{
.appVersion = "3148";
.formatVersion = 3;
DisplayStrings = (
"x\":;¿!¡..…·/periodcentered.case ∙•/bullet.case -­‐–—/emdash.case 

«»“”„/guillemetleft.case/guillemetright.case/asterisk.c2sc/exclamdown.c2sc/quotedblleft.c2sc/quotedblright.c2sc/quoteleft.c2sc/quoteright.c2sc/backslash.c2sc ˌďľť

NBKFPHDŽǄ
ǈǉ/dzcaron.smcp/degree.c2sc/minute.c2sc/second.c2sc ″/second.lf 

%‰/percent.lf/perthousand.lf ≈ΔΩμ

½⅓⅔¼¾⅛⅜⅝⅞

",
"ǅǇǈǊǋǆǉǌ/dzcaron.smcp/lj.smcp/nj.smcp",
"aurfsdđďhmnlknhhħbpqgoce
ijtvwxyz
 
",
"↑→←↓↔↕↘↙↗↖
/upArrow.ss16/rightArrow.ss16/leftArrow.ss16/downArrow.ss16/leftRightArrow.ss16/upDownArrow.ss16/southEastArrow.ss16/southWestArrow.ss16/northEastArrow.ss16/northWestArrow.ss16 
/upArrow.ss17/rightArrow.ss17/leftArrow.ss17/downArrow.ss17/leftRightArrow.ss17/upDownArrow.ss17",
"/a.smcp/aogonek.smcp/h.smcp/t.smcp/tbar.smcp/h.smcp/hbar.smcp/d.smcp/eth.smcp/i.smcp/j.smcp/u.smcp/uhorn.smcp/uogonek.smcp/o.smcp/ohorn.smcp/oogonek.smcp/oslash.smcp/n.smcp/k.smcp/kgreenlandic.smcp/b.smcp/f.smcp/e.smcp/eogonek.smcp/l.smcp/p.smcp/r.smcp/c.smcp/q.smcp 
/h.smcp/s.smcp/h.smcp/sacutedotaccent.smcp/h.smcp/scedilla.smcp/h.smcp/m.smcp/h.smcp/v.smcp/h.smcp/w.smcp/h.smcp/y.smcp/h.smcp/x.smcp/h.smcp/z.smcp/h.smcp */asterisk.c2sc/h.smcp 
/g.smcp/q.smcp.ss02/ampersand.c2sc"
);
axes = (
{
name = Weight;
tag = wght;
},
{
name = GRAD;
tag = GRAD;
}
);
classes = (
{

glyphs = (
{
color = 4;
glyphname = .notdef;
lastChange = "2023-06-13 13:13:42 +0000";
layers = (
{
layerId = "E2DCCAAC-30DB-413E-982C-2359C46E476F";
shapes = (
{
closed = 1;
nodes = (
(1020,0,ls),
(1080,0,o),
(1116,35,o),
(1116,96,cs),
(1116,1274,ls),
(1116,1335,o),
(1080,1370,o),
(1020,1370,cs),
(293,1370,ls),
(233,1370,o),
(197,1335,o),
(197,1274,cs),
(197,96,ls),
(197,35,o),
(233,0,o),
(293,0,cs)
);
},
{
closed = 1;
nodes = (
(673,608,l),
(723,664,l),
(944,1017,o),
(962,1050,o),
(1003,1147,c),
(1090,1127,l),
(1008,1343,l),
(651,768,l),
(601,712,l),
(380,359,o),
(362,326,o),
(322,229,c),
(234,249,l),
(306,17,l)
);
},
{
closed = 1;
nodes = (
(1098,247,l),
(1000,227,l),
(960,324,o),
(943,352,o),
(700,736,cs),
(314,1346,l),
(223,1127,l),
(320,1147,l),
(361,1050,o),
(378,1022,o),
(621,638,cs),
(1007,28,l)
);
},
{
closed = 1;
nodes = (
(322,304,o),
(326,368,o),
(326,680,cs),
(326,987,o),
(322,1069,o),
(301,1262,c),
(385,1257,o),
(469,1250,o),
(659,1250,cs),
(849,1250,o),
(939,1257,o),
(1022,1262,c),
(1001,1067,o),
(997,986,o),
(997,680,cs),
(997,369,o),
(1001,306,o),
(1022,108,c),
(938,117,o),
(849,120,o),
(659,120,cs),
(469,120,o),
(385,117,o),
(301,108,c)
);
}
);
width = 1313;
},
{
layerId = "33C6340C-19D4-4BAD-95FA-1AE5BEBDD22C";
shapes = (
{
closed = 1;
nodes = (
(975,0,ls),
(1035,0,o),
(1071,35,o),
(1071,96,cs),
(1071,1274,ls),
(1071,1335,o),
(1035,1370,o),
(975,1370,cs),
(248,1370,ls),
(188,1370,o),
(152,1335,o),
(152,1274,cs),
(152,96,ls),
(152,35,o),
(188,0,o),
(248,0,cs)
);
},
{
closed = 1;
nodes = (
(628,608,l),
(678,664,l),
(899,1017,o),
(917,1050,o),
(958,1147,c),
(1045,1127,l),
(963,1343,l),
(606,768,l),
(556,712,l),
(335,359,o),
(317,326,o),
(277,229,c),
(189,249,l),
(261,17,l)
);
},
{
closed = 1;
nodes = (
(1053,247,l),
(955,227,l),
(915,324,o),
(898,352,o),
(655,736,cs),
(269,1346,l),
(178,1127,l),
(275,1147,l),
(316,1050,o),
(333,1022,o),
(576,638,cs),
(962,28,l)
);
},
{
closed = 1;
nodes = (
(277,304,o),
(281,368,o),
(281,680,cs),
(281,987,o),
(277,1069,o),
(256,1262,c),
(340,1257,o),
(424,1250,o),
(614,1250,cs),
(804,1250,o),
(894,1257,o),
(977,1262,c),
(956,1067,o),
(952,986,o),
(952,680,cs),
(952,369,o),
(956,306,o),
(977,108,c),
(893,117,o),
(804,120,o),
(614,120,cs),
(424,120,o),
(340,117,o),
(256,108,c)
);
}
);
width = 1223;
},
{
layerId = "11405D41-D873-4173-B059-BD48D7789B90";
shapes = (
{
closed = 1;
nodes = (
(1020,0,ls),
(1080,0,o),
(1116,35,o),
(1116,96,cs),
(1116,1274,ls),
(1116,1335,o),
(1080,1370,o),
(1020,1370,cs),
(293,1370,ls),
(233,1370,o),
(197,1335,o),
(197,1274,cs),
(197,96,ls),
(197,35,o),
(233,0,o),
(293,0,cs)
);
},
{
closed = 1;
nodes = (
(673,608,l),
(723,664,l),
(944,1017,o),
(962,1050,o),
(1003,1147,c),
(1090,1127,l),
(1008,1343,l),
(651,768,l),
(601,712,l),
(380,359,o),
(362,326,o),
(322,229,c),
(234,249,l),
(306,17,l)
);
},
{
closed = 1;
nodes = (
(1098,247,l),
(1000,227,l),
(960,324,o),
(943,352,o),
(700,736,cs),
(314,1346,l),
(223,1127,l),
(320,1147,l),
(361,1050,o),
(378,1022,o),
(621,638,cs),
(1007,28,l)
);
},
{
closed = 1;
nodes = (
(322,304,o),
(326,368,o),
(326,680,cs),
(326,987,o),
(322,1069,o),
(301,1262,c),
(385,1257,o),
(469,1250,o),
(659,1250,cs),
(849,1250,o),
(939,1257,o),
(1022,1262,c),
(1001,1067,o),
(997,986,o),
(997,680,cs),
(997,369,o),
(1001,306,o),
(1022,108,c),
(938,117,o),
(849,120,o),
(659,120,cs),
(469,120,o),
(385,117,o),
(301,108,c)
);
}
);
width = 1313;
},
{
layerId = "E2DCE989-2657-47EA-91FE-B2106D1F3005";
shapes = (
{
closed = 1;
nodes = (
(975,0,ls),
(1035,0,o),
(1071,35,o),
(1071,96,cs),
(1071,1274,ls),
(1071,1335,o),
(1035,1370,o),
(975,1370,cs),
(248,1370,ls),
(188,1370,o),
(152,1335,o),
(152,1274,cs),
(152,96,ls),
(152,35,o),
(188,0,o),
(248,0,cs)
);
},
{
closed = 1;
nodes = (
(628,608,l),
(678,664,l),
(899,1017,o),
(917,1050,o),
(958,1147,c),
(1045,1127,l),
(963,1343,l),
(606,768,l),
(556,712,l),
(335,359,o),
(317,326,o),
(277,229,c),
(189,249,l),
(261,17,l)
);
},
{
closed = 1;
nodes = (
(1053,247,l),
(955,227,l),
(915,324,o),
(898,352,o),
(655,736,cs),
(269,1346,l),
(178,1127,l),
(275,1147,l),
(316,1050,o),
(333,1022,o),
(576,638,cs),
(962,28,l)
);
},
{
closed = 1;
nodes = (
(277,304,o),
(281,368,o),
(281,680,cs),
(281,987,o),
(277,1069,o),
(256,1262,c),
(340,1257,o),
(424,1250,o),
(614,1250,cs),
(804,1250,o),
(894,1257,o),
(977,1262,c),
(956,1067,o),
(952,986,o),
(952,680,cs),
(952,369,o),
(956,306,o),
(977,108,c),
(893,117,o),
(804,120,o),
(614,120,cs),
(424,120,o),
(340,117,o),
(256,108,c)
);
}
);
width = 1223;
}
);
},
{
color = 4;
glyphname = A;
kernLeft = A;
kernRight = A;
lastChange = "2023-06-06 12:13:07 +0000";
layers = (
{
anchors = (
{
name = bottom;
pos = (598,0);
},
{
name = ogonek;
pos = (1141,9);
},
{
name = top;
pos = (597,1464);
}
);
layerId = "E2DCCAAC-30DB-413E-982C-2359C46E476F";
shapes = (
{
closed = 1;
nodes = (
(52,9,l),
(56,2,l),
(79,-4,o),
(100,-8,o),
(131,-8,cs),
(155,-8,o),
(180,-6,o),
(199,-2,c),
(515,963,ls),
(531,1016,o),
(562,1123,o),
(582,1201,c),
(592,1201,l),
(617,1110,o),
(655,984,o),
(695,866,cs),
(958,67,ls),
(979,5,o),
(1001,-12,o),
(1050,-12,cs),
(1087,-12,o),
(1118,-6,o),
(1141,9,c),
(682,1366,l),
(665,1370,o),
(622,1372,o),
(599,1372,cs),
(573,1372,o),
(533,1370,o),
(509,1366,c)
);
},
{
closed = 1;
nodes = (
(723,354,ls),
(736,354,o),
(861,356,o),
(876,356,cs),
(936,356,l),
(892,487,l),
(838,487,ls),
(823,487,o),
(717,489,o),
(704,489,cs),
(475,489,ls),
(462,489,o),
(359,487,o),
(345,487,cs),
(291,487,l),
(242,356,l),
(303,356,ls),
(317,356,o),
(441,354,o),
(454,354,cs)
);
}
);
width = 1194;
},
{
anchors = (
{
name = bottom;
pos = (644,0);
},
{
name = ogonek;
pos = (1259,21);
},
{
name = top;
pos = (644,1464);
}
);
layerId = "33C6340C-19D4-4BAD-95FA-1AE5BEBDD22C";
shapes = (
{
closed = 1;
nodes = (
(17,25,l),
(29,7,l),
(65,-6,o),
(135,-13,o),
(183,-13,cs),
(233,-13,o),
(279,-11,o),
(319,-2,c),
(523,693,ls),
(554,802,o),
(600,963,o),
(620,1074,c),
(632,1074,l),
(666,941,o),
(711,775,o),
(742,663,cs),
(885,156,ls),
(923,19,o),
(974,-17,o),
(1076,-17,cs),
(1136,-17,o),
(1215,-4,o),
(1259,21,c),
(829,1364,l),
(778,1374,o),
(695,1377,o),
(644,1377,cs),
(590,1377,o),
(510,1374,o),
(459,1366,c)
);
},
{
closed = 1;
nodes = (
(768,286,ls),
(796,286,o),
(842,288,o),
(871,288,cs),
(1039,288,l),
(958,537,l),
(805,537,ls),
(776,537,o),
(733,539,o),
(704,539,cs),
(558,539,ls),
(530,539,o),
(486,537,o),
(458,537,cs),
(310,537,l),
(213,288,l),
(381,288,ls),
(409,288,o),
(455,286,o),
(483,286,cs)
);
}
);
width = 1276;
},
{
anchors = (
{
name = bottom;
pos = (597,0);
},
{
name = ogonek;
pos = (1135,8);
},
{
name = top;
pos = (596,1464);
}
);
layerId = "11405D41-D873-4173-B059-BD48D7789B90";
shapes = (
{
closed = 1;
nodes = (
(58,8,l),
(61,2,l),
(83,-4,o),
(100,-8,o),
(130,-8,cs),
(152,-8,o),
(175,-6,o),
(193,-2,c),
(517,983,ls),
(532,1032,o),
(562,1135,o),
(582,1210,c),
(592,1210,l),
(616,1123,o),
(654,1000,o),
(694,881,cs),
(966,60,ls),
(986,4,o),
(1006,-12,o),
(1051,-12,cs),
(1086,-12,o),
(1114,-6,o),
(1135,8,c),
(674,1366,l),
(659,1370,o),
(620,1372,o),
(598,1372,cs),
(575,1372,o),
(538,1370,o),
(516,1366,c)
);
},
{
closed = 1;
nodes = (
(722,359,ls),
(734,359,o),
(865,361,o),
(879,361,cs),
(931,361,l),
(890,483,l),
(844,483,ls),
(830,483,o),
(719,485,o),
(707,485,cs),
(472,485,ls),
(460,485,o),
(353,483,o),
(339,483,cs),
(293,483,l),
(247,361,l),
(300,361,ls),
(313,361,o),
(443,359,o),
(455,359,cs)
);
}
);
width = 1194;
},
{
anchors = (
{
name = bottom;
pos = (644,0);
},
{
name = ogonek;
pos = (1253,20);
},
{
name = top;
pos = (644,1464);
}
);
layerId = "E2DCE989-2657-47EA-91FE-B2106D1F3005";
shapes = (
{
closed = 1;
nodes = (
(24,24,l),
(35,7,l),
(70,-6,o),
(136,-13,o),
(182,-13,cs),
(230,-13,o),
(274,-11,o),
(312,-2,c),
(526,717,ls),
(555,821,o),
(600,977,o),
(620,1085,c),
(632,1085,l),
(665,956,o),
(710,794,o),
(742,680,cs),
(895,148,ls),
(932,18,o),
(981,-17,o),
(1078,-17,cs),
(1135,-17,o),
(1211,-4,o),
(1253,20,c),
(820,1364,l),
(772,1374,o),
(693,1377,o),
(644,1377,cs),
(593,1377,o),
(517,1374,o),
(468,1366,c)
);
},
{
closed = 1;
nodes = (
(768,292,ls),
(795,292,o),
(847,294,o),
(875,294,cs),
(1034,294,l),
(956,532,l),
(812,532,ls),
(784,532,o),
(736,534,o),
(708,534,cs),
(555,534,ls),
(528,534,o),
(479,532,o),
(452,532,cs),
(313,532,l),
(219,294,l),
(378,294,ls),
(404,294,o),
(458,292,o),
(485,292,cs)
);
}
);
width = 1276;
}
);
unicode = 65;
},
{
color = 4;
glyphname = B;
lastChange = "2023-06-06 12:13:07 +0000";
layers = (
{
anchors = (
{
name = bottom;
pos = (590,0);
},
{
name = top;
pos = (557,1464);
}
);
layerId = "E2DCCAAC-30DB-413E-982C-2359C46E476F";
shapes = (
{
closed = 1;
nodes = (
(197,1354,l),
(197,12,l),
(210,0,l),
(349,-2,o),
(457,-6,o),
(622,-6,cs),
(970,-6,o),
(1086,186,o),
(1086,377,cs),
(1086,589,o),
(916,738,o),
(748,739,c),
(748,711,l),
(914,729,o),
(1020,857,o),
(1020,1012,cs),
(1020,1223,o),
(904,1372,o),
(600,1372,cs),
(473,1372,o),
(349,1368,o),
(210,1366,c)
);
},
{
closed = 1;
nodes = (
(351,1247,l),
(423,1245,o),
(536,1245,o),
(603,1245,cs),
(822,1245,o),
(860,1123,o),
(860,1015,cs),
(860,910,o),
(814,783,o),
(597,783,cs),
(287,783,l),
(287,653,l),
(615,653,ls),
(860,653,o),
(925,494,o),
(925,387,cs),
(925,277,o),
(879,121,o),
(634,121,cs),
(541,121,o),
(445,119,o),
(351,119,c)
);
}
);
width = 1200;
},
{
anchors = (
{
name = bottom;
pos = (597,0);
},
{
name = top;
pos = (580,1464);
}
);
layerId = "33C6340C-19D4-4BAD-95FA-1AE5BEBDD22C";
shapes = (
{
closed = 1;
nodes = (
(152,1356,l),
(152,10,l),
(166,-4,l),
(337,-7,o),
(504,-11,o),
(659,-11,cs),
(965,-11,o),
(1159,113,o),
(1159,393,cs),
(1159,579,o),
(1013,743,o),
(851,753,c),
(851,721,l),
(984,737,o),
(1095,867,o),
(1095,1014,cs),
(1095,1266,o),
(906,1377,o),
(627,1377,cs),
(485,1377,o),
(326,1373,o),
(166,1370,c)
);
},
{
closed = 1;
nodes = (
(467,1153,l),
(517,1151,o),
(576,1151,o),
(611,1151,cs),
(745,1151,o),
(783,1071,o),
(783,992,cs),
(783,914,o),
(746,830,o),
(611,830,cs),
(347,830,l),
(347,603,l),
(634,603,ls),
(794,603,o),
(838,494,o),
(838,406,cs),
(838,322,o),
(799,213,o),
(636,213,cs),
(593,213,o),
(532,213,o),
(467,211,c)
);
}
);
width = 1229;
},
{
anchors = (
{
name = bottom;
pos = (592,0);
},
{
name = top;
pos = (557,1464);
}
);
layerId = "11405D41-D873-4173-B059-BD48D7789B90";
shapes = (
{
closed = 1;
nodes = (
(202,1354,l),
(202,12,l),
(214,0,l),
(351,-2,o),
(454,-6,o),
(620,-6,cs),
(971,-6,o),
(1082,191,o),
(1082,376,cs),
(1082,590,o),
(910,738,o),
(741,738,c),
(741,710,l),
(910,728,o),
(1016,856,o),
(1016,1012,cs),
(1016,1220,o),
(905,1372,o),
(599,1372,cs),
(473,1372,o),
(352,1368,o),
(214,1366,c)
);
},
{
closed = 1;
nodes = (
(343,1254,l),
(417,1252,o),
(534,1252,o),
(603,1252,cs),
(829,1252,o),
(867,1127,o),
(867,1017,cs),
(867,910,o),
(820,779,o),
(597,779,cs),
(284,779,l),
(284,657,l),
(615,657,ls),
(866,657,o),
(933,494,o),
(933,386,cs),
(933,273,o),
(886,114,o),
(635,114,cs),
(538,114,o),
(440,112,o),
(343,112,c)
);
}
);
width = 1200;
},
{
anchors = (
{
name = bottom;
pos = (598,0);
},
{
name = top;
pos = (578,1464);
}
);
layerId = "E2DCE989-2657-47EA-91FE-B2106D1F3005";
shapes = (
{
closed = 1;
nodes = (
(158,1356,l),
(158,10,l),
(172,-4,l),
(340,-7,o),
(502,-11,o),
(657,-11,cs),
(967,-11,o),
(1155,119,o),
(1155,392,cs),
(1155,580,o),
(1007,743,o),
(844,752,c),
(844,720,l),
(980,736,o),
(1091,866,o),
(1091,1014,cs),
(1091,1263,o),
(908,1377,o),
(627,1377,cs),
(486,1377,o),
(331,1373,o),
(172,1370,c)
);
},
{
closed = 1;
nodes = (
(459,1162,l),
(510,1160,o),
(574,1160,o),
(612,1160,cs),
(754,1160,o),
(792,1076,o),
(792,995,cs),
(792,914,o),
(754,826,o),
(612,826,cs),
(344,826,l),
(344,608,l),
(635,608,ls),
(802,608,o),
(848,494,o),
(848,405,cs),
(848,318,o),
(808,204,o),
(638,204,cs),
(590,204,o),
(527,204,o),
(459,202,c)
);
}
);
width = 1229;
}
);
unicode = 66;
},
{
color = 4;
glyphname = C;
kernLeft = C;
kernRight = C;
lastChange = "2023-06-06 12:13:07 +0000";
layers = (
{
anchors = (
{
name = bottom;
pos = (633,0);
},
{
name = top;
pos = (637,1466);
}
);
layerId = "E2DCCAAC-30DB-413E-982C-2359C46E476F";
shapes = (
{
closed = 1;
nodes = (
(980,926,o),
(995,923,o),
(1020,923,cs),
(1091,923,o),
(1106,970,o),
(1106,1014,cs),
(1106,1197,o),
(930,1390,o),
(641,1390,cs),
(359,1390,o),
(114,1171,o),
(114,676,cs),
(114,315,o),
(253,-24,o),
(616,-24,cs),
(812,-24,o),
(982,61,o),
(1089,169,c),
(1077,205,o),
(1042,246,o),
(1005,269,c),
(877,157,o),
(756,110,o),
(639,110,cs),
(413,110,o),
(276,320,o),
(276,676,cs),
(276,1059,o),
(408,1261,o),
(640,1261,cs),
(877,1261,o),
(951,1077,o),
(951,934,c)
);
}
);
width = 1201;
},
{
anchors = (
{
name = bottom;
pos = (654,0);
},
{
name = top;
pos = (653,1466);
}
);
layerId = "33C6340C-19D4-4BAD-95FA-1AE5BEBDD22C";
shapes = (
{
closed = 1;
nodes = (
(905,812,o),
(941,805,o),
(987,805,cs),
(1101,805,o),
(1170,856,o),
(1170,981,cs),
(1170,1216,o),
(967,1397,o),
(657,1397,cs),
(338,1397,o),
(72,1181,o),
(72,678,cs),
(72,334,o),
(203,-29,o),
(623,-29,cs),
(845,-29,o),
(1053,69,o),
(1169,183,c),
(1155,257,o),
(1084,347,o),
(1022,389,c),
(929,320,o),
(820,249,o),
(682,249,cs),
(507,249,o),
(408,391,o),
(408,676,cs),
(408,979,o),
(474,1143,o),
(645,1143,cs),
(823,1143,o),
(869,988,o),
(866,822,c)
);
}
);
width = 1218;
},
{
anchors = (
{
name = bottom;
pos = (633,0);
},
{
name = top;
pos = (637,1466);
}
);
layerId = "11405D41-D873-4173-B059-BD48D7789B90";
shapes = (
{
closed = 1;
nodes = (
(986,934,o),
(1000,932,o),
(1024,932,cs),
(1091,932,o),
(1102,978,o),
(1102,1017,cs),
(1102,1196,o),
(928,1390,o),
(641,1390,cs),
(361,1390,o),
(118,1170,o),
(118,676,cs),
(118,314,o),
(258,-24,o),
(617,-24,cs),
(810,-24,o),
(978,60,o),
(1084,168,c),
(1072,201,o),
(1040,238,o),
(1005,260,c),
(874,145,o),
(752,100,o),
(637,100,cs),
(407,100,o),
(267,315,o),
(267,676,cs),
(267,1065,o),
(404,1270,o),
(641,1270,cs),
(882,1270,o),
(958,1084,o),
(958,942,c)
);
}
);
width = 1201;
},
{
anchors = (
{
name = bottom;
pos = (654,0);
},
{
name = top;
pos = (653,1466);
}
);
layerId = "E2DCE989-2657-47EA-91FE-B2106D1F3005";
shapes = (
{
closed = 1;
nodes = (
(912,822,o),
(947,815,o),
(991,815,cs),
(1101,815,o),
(1165,866,o),
(1165,984,cs),
(1165,1215,o),
(964,1397,o),
(657,1397,cs),
(340,1397,o),
(77,1180,o),
(77,678,cs),
(77,333,o),
(209,-29,o),
(624,-29,cs),
(843,-29,o),
(1048,68,o),
(1163,182,c),
(1149,252,o),
(1081,338,o),
(1022,378,c),
(925,305,o),
(815,237,o),
(680,237,cs),
(499,237,o),
(398,385,o),
(398,676,cs),
(398,986,o),
(469,1153,o),
(646,1153,cs),
(829,1153,o),
(877,996,o),
(874,832,c)
);
}
);
width = 1218;
}
);
unicode = 67;
},
{
color = 4;
glyphname = D;
kernRight = D;
lastChange = "2023-06-06 12:13:07 +0000";
layers = (
{
anchors = (
{
name = bottom;
pos = (604,0);
},
{
name = top;
pos = (604,1464);
}
);
layerId = "E2DCCAAC-30DB-413E-982C-2359C46E476F";
shapes = (
{
closed = 1;
nodes = (
(1158,914,o),
(1126,1122,o),
(953,1270,cs),
(868,1342,o),
(718,1372,o),
(615,1372,cs),
(458,1372,o),
(383,1372,o),
(210,1366,c),
(197,1354,l),
(197,12,l),
(210,0,l),
(384,-4,o),
(458,-8,o),
(615,-8,cs),
(718,-8,o),
(868,22,o),
(953,94,cs),
(1128,242,o),
(1158,448,o),
(1158,682,cs)
);
},
{
closed = 1;
nodes = (
(996,425,o),
(947,121,o),
(613,121,cs),
(521,121,o),
(453,123,o),
(351,123,c),
(351,1245,l),
(453,1245,o),
(521,1243,o),
(613,1243,cs),
(947,1243,o),
(996,941,o),
(996,682,cs)
);
}
);
width = 1275;
},
{
anchors = (
{
name = bottom;
pos = (631,0);
},
{
name = top;
pos = (641,1464);
}
);
layerId = "33C6340C-19D4-4BAD-95FA-1AE5BEBDD22C";
shapes = (
{
closed = 1;
nodes = (
(1261,916,o),
(1225,1129,o),
(1036,1277,cs),
(945,1349,o),
(780,1377,o),
(669,1377,cs),
(496,1377,o),
(338,1376,o),
(166,1370,c),
(152,1356,l),
(152,10,l),
(166,-4,l),
(340,-8,o),
(496,-12,o),
(669,-12,cs),
(780,-12,o),
(944,17,o),
(1036,89,cs),
(1227,237,o),
(1261,450,o),
(1261,684,cs)
);
},
{
closed = 1;
nodes = (
(932,481,o),
(898,237,o),
(669,237,cs),
(601,237,o),
(542,237,o),
(471,236,c),
(471,1131,l),
(542,1129,o),
(601,1129,o),
(669,1129,cs),
(898,1129,o),
(932,887,o),
(932,684,cs)
);
}
);
width = 1335;
},
{
anchors = (
{
name = bottom;
pos = (605,0);
},
{
name = top;
pos = (604,1464);
}
);
layerId = "11405D41-D873-4173-B059-BD48D7789B90";
shapes = (
{
closed = 1;
nodes = (
(1151,914,o),
(1119,1122,o),
(948,1270,cs),
(863,1342,o),
(714,1372,o),
(612,1372,cs),
(456,1372,o),
(388,1372,o),
(214,1366,c),
(202,1354,l),
(202,12,l),
(214,0,l),
(388,-4,o),
(456,-8,o),
(612,-8,cs),
(714,-8,o),
(864,22,o),
(948,94,cs),
(1121,242,o),
(1151,448,o),
(1151,682,cs)
);
},
{
closed = 1;
nodes = (
(1002,421,o),
(952,112,o),
(610,112,cs),
(516,112,o),
(447,114,o),
(343,114,c),
(343,1254,l),
(447,1254,o),
(516,1252,o),
(610,1252,cs),
(952,1252,o),
(1002,945,o),
(1002,682,cs)
);
}
);
width = 1275;
},
{
anchors = (
{
name = bottom;
pos = (633,0);
},
{
name = top;
pos = (641,1464);
}
);
layerId = "E2DCE989-2657-47EA-91FE-B2106D1F3005";
shapes = (
{
closed = 1;
nodes = (
(1254,916,o),
(1218,1129,o),
(1031,1277,cs),
(940,1349,o),
(777,1377,o),
(666,1377,cs),
(494,1377,o),
(344,1376,o),
(172,1370,c),
(158,1356,l),
(158,10,l),
(172,-4,l),
(346,-8,o),
(494,-12,o),
(666,-12,cs),
(777,-12,o),
(940,17,o),
(1031,89,cs),
(1220,237,o),
(1254,450,o),
(1254,684,cs)
);
},
{
closed = 1;
nodes = (
(940,476,o),
(905,227,o),
(666,227,cs),
(596,227,o),
(536,227,o),
(462,226,c),
(462,1141,l),
(536,1139,o),
(596,1139,o),
(666,1139,cs),
(905,1139,o),
(940,892,o),
(940,684,cs)
);
}
);
width = 1335;
}
);
unicode = 68;
},
{
color = 4;
glyphname = E;
kernRight = E;
lastChange = "2023-06-06 12:13:07 +0000";
layers = (
{
anchors = (
{
name = bottom;
pos = (614,0);
},
{
name = ogonek;
pos = (917,0);
},
{
name = top;
pos = (598,1464);
}
);
layerId = "E2DCCAAC-30DB-413E-982C-2359C46E476F";
shapes = (
{
closed = 1;
nodes = (
(197,101,ls),
(197,38,o),
(231,0,o),
(285,0,cs),
(345,0,l),
(345,128,ls),
(345,157,o),
(347,178,o),
(347,205,cs),
(347,1111,ls),
(347,1165,o),
(345,1184,o),
(345,1240,cs),
(345,1366,l),
(209,1366,l),
(197,1354,l)
);
},
{
closed = 1;
nodes = (
(466,757,ls),
(422,757,o),
(352,755,o),
(294,755,c),
(294,628,l),
(352,628,o),
(422,626,o),
(466,626,cs),
(880,626,l),
(884,649,o),
(886,675,o),
(886,692,cs),
(886,709,o),
(884,735,o),
(880,757,c)
);
},
{
closed = 1;
nodes = (
(294,1366,l),
(294,1236,l),
(352,1234,o),
(422,1234,o),
(466,1234,cs),
(976,1234,l),
(985,1258,o),
(987,1287,o),
(987,1304,cs),
(987,1321,o),
(987,1343,o),
(983,1366,c)
);
},
{
closed = 1;
nodes = (
(468,133,ls),
(395,133,o),
(346,129,o),
(294,125,c),
(294,0,l),
(913,0,ls),
(987,0,o),
(1016,29,o),
(1016,133,c)
);
}
);
width = 1125;
},
{
anchors = (
{
name = bottom;
pos = (621,0);
},
{
name = ogonek;
pos = (929,0);
},
{
name = top;
pos = (598,1464);
}
);
layerId = "33C6340C-19D4-4BAD-95FA-1AE5BEBDD22C";
shapes = (
{
closed = 1;
nodes = (
(150,181,ls),
(150,65,o),
(219,-5,o),
(334,-5,cs),
(465,-5,l),
(465,260,ls),
(465,314,o),
(467,352,o),
(467,404,cs),
(467,954,ls),
(467,1008,o),
(465,1047,o),
(465,1103,cs),
(465,1366,l),
(164,1366,l),
(150,1352,l)
);
},
{
closed = 1;
nodes = (
(602,817,ls),
(552,817,o),
(420,815,o),
(356,813,c),
(356,560,l),
(420,558,o),
(552,556,o),
(602,556,cs),
(907,556,l),
(921,597,o),
(926,650,o),
(926,687,cs),
(926,721,o),
(921,778,o),
(907,817,c)
);
},
{
closed = 1;
nodes = (
(356,1366,l),
(356,1102,l),
(420,1100,o),
(552,1098,o),
(602,1098,cs),
(1011,1098,l),
(1028,1146,o),
(1037,1204,o),
(1037,1240,cs),
(1037,1276,o),
(1036,1318,o),
(1026,1366,c)
);
},
{
closed = 1;
nodes = (
(613,262,ls),
(515,262,o),
(443,256,o),
(356,252,c),
(356,-5,l),
(866,-5,ls),
(1036,-5,o),
(1076,86,o),
(1076,262,c)
);
}
);
width = 1146;
},
{
anchors = (
{
name = bottom;
pos = (615,0);
},
{
name = ogonek;
pos = (917,0);
},
{
name = top;
pos = (599,1464);
}
);
layerId = "11405D41-D873-4173-B059-BD48D7789B90";
shapes = (
{
closed = 1;
nodes = (
(202,95,ls),
(202,36,o),
(233,0,o),
(282,0,cs),
(337,0,l),
(337,118,ls),
(337,145,o),
(339,165,o),
(339,190,cs),
(339,1123,ls),
(339,1177,o),
(337,1194,o),
(337,1250,cs),
(337,1366,l),
(214,1366,l),
(202,1354,l)
);
},
{
closed = 1;
nodes = (
(457,753,ls),
(413,753,o),
(348,751,o),
(290,751,c),
(290,633,l),
(348,633,o),
(413,631,o),
(457,631,cs),
(879,631,l),
(882,653,o),
(884,677,o),
(884,692,cs),
(884,708,o),
(882,732,o),
(879,753,c)
);
},
{
closed = 1;
nodes = (
(290,1366,l),
(290,1246,l),
(348,1244,o),
(413,1244,o),
(457,1244,cs),
(974,1244,l),
(983,1266,o),
(984,1293,o),
(984,1309,cs),
(984,1325,o),
(984,1345,o),
(981,1366,c)
);
},
{
closed = 1;
nodes = (
(458,124,ls),
(387,124,o),
(340,120,o),
(290,116,c),
(290,0,l),
(918,0,ls),
(984,0,o),
(1012,25,o),
(1012,124,c)
);
}
);
width = 1125;
},
{
anchors = (
{
name = bottom;
pos = (622,0);
},
{
name = ogonek;
pos = (929,0);
},
{
name = top;
pos = (599,1464);
}
);
layerId = "E2DCE989-2657-47EA-91FE-B2106D1F3005";
shapes = (
{
closed = 1;
nodes = (
(155,174,ls),
(155,63,o),
(221,-5,o),
(330,-5,cs),
(455,-5,l),
(455,249,ls),
(455,300,o),
(457,337,o),
(457,386,cs),
(457,968,ls),
(457,1022,o),
(455,1059,o),
(455,1115,cs),
(455,1366,l),
(169,1366,l),
(155,1352,l)
);
},
{
closed = 1;
nodes = (
(591,812,ls),
(542,812,o),
(415,810,o),
(352,808,c),
(352,566,l),
(415,564,o),
(542,562,o),
(591,562,cs),
(906,562,l),
(918,602,o),
(923,653,o),
(923,687,cs),
(923,720,o),
(918,775,o),
(906,812,c)
);
},
{
closed = 1;
nodes = (
(352,1366,l),
(352,1114,l),
(415,1112,o),
(542,1110,o),
(591,1110,cs),
(1009,1110,l),
(1026,1156,o),
(1033,1211,o),
(1033,1246,cs),
(1033,1280,o),
(1032,1321,o),
(1024,1366,c)
);
},
{
closed = 1;
nodes = (
(601,251,ls),
(505,251,o),
(436,245,o),
(352,241,c),
(352,-5,l),
(871,-5,ls),
(1032,-5,o),
(1072,81,o),
(1072,251,c)
);
}
);
width = 1146;
}
);
unicode = 69;
},
{
color = 4;
glyphname = F;
lastChange = "2023-06-06 12:13:07 +0000";
layers = (
{
anchors = (
{
name = top;
pos = (598,1464);
}
);
layerId = "E2DCCAAC-30DB-413E-982C-2359C46E476F";
shapes = (
{
closed = 1;
nodes = (
(351,957,ls),
(351,1055,o),
(349,1156,o),
(349,1255,cs),
(349,1366,l),
(210,1366,l),
(197,1354,l),
(197,0,l),
(217,-4,o),
(246,-6,o),
(273,-6,cs),
(301,-6,o),
(329,-4,o),
(351,0,c)
);
},
{
closed = 1;
nodes = (
(293,1366,l),
(293,1240,l),
(362,1234,o),
(452,1232,o),
(567,1232,cs),
(885,1232,ls),
(948,1232,o),
(977,1253,o),
(977,1303,cs),
(977,1324,o),
(973,1347,o),
(967,1366,c)
);
},
{
closed = 1;
nodes = (
(461,757,ls),
(416,757,o),
(350,755,o),
(293,755,c),
(293,628,l),
(350,628,o),
(416,626,o),
(461,626,cs),
(870,626,l),
(874,649,o),
(876,674,o),
(876,691,cs),
(876,708,o),
(874,734,o),
(870,757,c)
);
}
);
width = 1028;
},
{
anchors = (
{
name = top;
pos = (591,1464);
}
);
layerId = "33C6340C-19D4-4BAD-95FA-1AE5BEBDD22C";
shapes = (
{
closed = 1;
nodes = (
(473,938,ls),
(473,1043,o),
(471,1160,o),
(471,1271,cs),
(471,1366,l),
(166,1366,l),
(152,1354,l),
(152,0,l),
(207,-9,o),
(272,-11,o),
(316,-11,cs),
(361,-11,o),
(418,-9,o),
(473,0,c)
);
},
{
closed = 1;
nodes = (
(340,1366,l),
(340,1097,l),
(428,1097,o),
(514,1095,o),
(614,1095,cs),
(864,1095,ls),
(979,1095,o),
(1035,1139,o),
(1035,1243,cs),
(1035,1280,o),
(1031,1331,o),
(1021,1366,c)
);
},
{
closed = 1;
nodes = (
(511,811,ls),
(454,811,o),
(390,809,o),
(351,807,c),
(351,553,l),
(390,551,o),
(454,549,o),
(511,549,cs),
(899,549,l),
(911,588,o),
(916,645,o),
(916,681,cs),
(916,715,o),
(911,774,o),
(899,811,c)
);
}
);
width = 1070;
},
{
anchors = (
{
name = top;
pos = (600,1464);
}
);
layerId = "11405D41-D873-4173-B059-BD48D7789B90";
shapes = (
{
closed = 1;
nodes = (
(343,958,ls),
(343,1056,o),
(341,1156,o),
(341,1254,cs),
(341,1366,l),
(214,1366,l),
(202,1354,l),
(202,0,l),
(219,-4,o),
(245,-6,o),
(271,-6,cs),
(298,-6,o),
(323,-4,o),
(343,0,c)
);
},
{
closed = 1;
nodes = (
(290,1366,l),
(290,1251,l),
(358,1244,o),
(448,1242,o),
(564,1242,cs),
(887,1242,ls),
(947,1242,o),
(974,1262,o),
(974,1307,cs),
(974,1327,o),
(970,1348,o),
(964,1366,c)
);
},
{
closed = 1;
nodes = (
(458,753,ls),
(414,753,o),
(348,751,o),
(290,751,c),
(290,633,l),
(348,634,o),
(414,632,o),
(458,632,cs),
(869,632,l),
(872,653,o),
(874,676,o),
(874,692,cs),
(874,708,o),
(872,731,o),
(869,753,c)
);
}
);
width = 1028;
},
{
anchors = (
{
name = top;
pos = (594,1464);
}
);
layerId = "E2DCE989-2657-47EA-91FE-B2106D1F3005";
shapes = (
{
closed = 1;
nodes = (
(464,939,ls),
(464,1044,o),
(462,1160,o),
(462,1270,cs),
(462,1366,l),
(172,1366,l),
(158,1354,l),
(158,0,l),
(210,-9,o),
(272,-11,o),
(315,-11,cs),
(358,-11,o),
(412,-9,o),
(464,0,c)
);
},
{
closed = 1;
nodes = (
(338,1366,l),
(338,1110,l),
(424,1109,o),
(511,1107,o),
(612,1107,cs),
(867,1107,ls),
(979,1107,o),
(1032,1149,o),
(1032,1248,cs),
(1032,1284,o),
(1028,1332,o),
(1018,1366,c)
);
},
{
closed = 1;
nodes = (
(508,806,ls),
(452,806,o),
(388,804,o),
(348,802,c),
(348,559,l),
(388,558,o),
(452,556,o),
(508,556,cs),
(899,556,l),
(909,593,o),
(914,647,o),
(914,682,cs),
(914,715,o),
(909,770,o),
(899,806,c)
);
}
);
width = 1070;
}
);
unicode = 70;
},
{
color = 4;
glyphname = G;
kernLeft = C;
kernRight = G;
lastChange = "2023-06-06 12:13:07 +0000";
layers = (
{
anchors = (
{
name = bottom;
pos = (671,0);
},
{
name = top;
pos = (683,1464);
}
);
layerId = "E2DCCAAC-30DB-413E-982C-2359C46E476F";
shapes = (
{
closed = 1;
nodes = (
(1023,1333,o),
(844,1390,o),
(688,1390,cs),
(401,1390,o),
(114,1194,o),
(114,673,cs),
(114,331,o),
(237,-24,o),
(677,-24,cs),
(824,-24,o),
(1012,14,o),
(1134,62,c),
(1057,187,l),
(995,156,o),
(852,110,o),
(705,110,cs),
(414,110,o),
(275,292,o),
(275,670,cs),
(275,1107,o),
(461,1253,o),
(683,1253,cs),
(819,1253,o),
(957,1198,o),
(1051,1122,c),
(1082,1144,o),
(1120,1189,o),
(1132,1241,c)
);
},
{
closed = 1;
nodes = (
(984,59,l),
(1134,62,l),
(1134,582,l),
(998,630,l),
(988,584,o),
(984,521,o),
(984,429,cs)
);
},
{
closed = 1;
nodes = (
(710,687,l),
(704,668,o),
(698,642,o),
(698,618,cs),
(698,552,o),
(752,550,o),
(777,550,cs),
(1134,550,l),
(1134,582,ls),
(1134,654,o),
(1103,687,o),
(1015,687,cs)
);
}
);
width = 1274;
},
{
anchors = (
{
name = bottom;
pos = (688,0);
},
{
name = top;
pos = (700,1464);
}
);
layerId = "33C6340C-19D4-4BAD-95FA-1AE5BEBDD22C";
shapes = (
{
closed = 1;
nodes = (
(1066,1338,o),
(893,1395,o),
(710,1395,cs),
(385,1395,o),
(72,1159,o),
(72,674,cs),
(72,242,o),
(267,-29,o),
(678,-29,cs),
(897,-29,o),
(1089,14,o),
(1205,53,c),
(1038,272,l),
(970,253,o),
(863,222,o),
(733,222,cs),
(518,222,o),
(399,360,o),
(399,672,cs),
(399,993,o),
(527,1131,o),
(729,1131,cs),
(841,1131,o),
(962,1088,o),
(1059,1023,c),
(1124,1065,o),
(1195,1162,o),
(1202,1253,c)
);
},
{
closed = 1;
nodes = (
(905,49,l),
(1205,53,l),
(1205,578,l),
(934,668,l),
(909,579,o),
(905,465,o),
(905,371,cs)
);
},
{
closed = 1;
nodes = (
(681,776,l),
(667,738,o),
(658,686,o),
(658,644,cs),
(658,543,o),
(708,510,o),
(811,510,cs),
(1205,510,l),
(1205,578,ls),
(1205,694,o),
(1153,776,o),
(994,776,cs)
);
}
);
width = 1309;
},
{
anchors = (
{
name = bottom;
pos = (671,0);
},
{
name = top;
pos = (683,1464);
}
);
layerId = "11405D41-D873-4173-B059-BD48D7789B90";
shapes = (
{
closed = 1;
nodes = (
(1021,1333,o),
(841,1390,o),
(687,1390,cs),
(403,1390,o),
(118,1197,o),
(118,673,cs),
(118,338,o),
(236,-24,o),
(678,-24,cs),
(820,-24,o),
(1007,14,o),
(1130,62,c),
(1059,181,l),
(998,149,o),
(852,102,o),
(704,102,cs),
(407,102,o),
(267,287,o),
(267,670,cs),
(267,1116,o),
(457,1262,o),
(680,1262,cs),
(818,1262,o),
(958,1206,o),
(1051,1130,c),
(1080,1150,o),
(1116,1191,o),
(1128,1240,c)
);
},
{
closed = 1;
nodes = (
(991,60,l),
(1130,62,l),
(1130,582,l),
(1004,627,l),
(995,584,o),
(991,525,o),
(991,433,cs)
);
},
{
closed = 1;
nodes = (
(713,680,l),
(708,663,o),
(702,638,o),
(702,616,cs),
(702,552,o),
(757,553,o),
(775,553,cs),
(1130,553,l),
(1130,582,ls),
(1130,651,o),
(1100,680,o),
(1017,680,cs)
);
}
);
width = 1274;
},
{
anchors = (
{
name = bottom;
pos = (688,0);
},
{
name = top;
pos = (700,1464);
}
);
layerId = "E2DCE989-2657-47EA-91FE-B2106D1F3005";
shapes = (
{
closed = 1;
nodes = (
(1064,1338,o),
(889,1395,o),
(708,1395,cs),
(387,1395,o),
(77,1162,o),
(77,674,cs),
(77,250,o),
(266,-29,o),
(679,-29,cs),
(892,-29,o),
(1083,14,o),
(1200,54,c),
(1040,265,l),
(974,245,o),
(863,212,o),
(732,212,cs),
(510,212,o),
(389,354,o),
(389,672,cs),
(389,1003,o),
(522,1142,o),
(726,1142,cs),
(839,1142,o),
(963,1098,o),
(1059,1032,c),
(1121,1073,o),
(1190,1165,o),
(1197,1252,c)
);
},
{
closed = 1;
nodes = (
(914,50,l),
(1200,54,l),
(1200,578,l),
(941,664,l),
(918,579,o),
(914,470,o),
(914,376,cs)
);
},
{
closed = 1;
nodes = (
(684,768,l),
(672,732,o),
(663,682,o),
(663,641,cs),
(663,544,o),
(713,514,o),
(809,514,cs),
(1200,514,l),
(1200,578,ls),
(1200,690,o),
(1149,768,o),
(996,768,cs)
);
}
);
width = 1309;
}
);
unicode = 71;
},
{
color = 4;
glyphname = H;
lastChange = "2023-06-14 11:37:01 +0000";
layers = (
{
anchors = (
{
name = bottom;
pos = (668,0);
},
{
name = top;
pos = (667,1464);
}
);
layerId = "E2DCCAAC-30DB-413E-982C-2359C46E476F";
shapes = (
{
closed = 1;
nodes = (
(866,638,ls),
(879,638,o),
(972,640,o),
(987,640,cs),
(1017,640,o),
(1047,638,o),
(1077,638,c),
(1077,774,l),
(1047,774,o),
(1017,772,o),
(987,772,cs),
(972,772,o),
(879,774,o),
(866,774,cs),
(470,774,ls),
(457,774,o),
(364,772,o),
(349,772,cs),
(319,772,o),
(289,774,o),
(259,774,c),
(259,638,l),
(289,638,o),
(319,640,o),
(349,640,cs),
(364,640,o),
(457,638,o),
(470,638,cs)
);
},
{
closed = 1;
nodes = (
(351,492,ls),
(351,548,o),
(349,586,o),
(349,640,cs),
(349,772,ls),
(349,826,o),
(351,864,o),
(351,920,cs),
(351,1366,l),
(329,1370,o),
(301,1372,o),
(272,1372,cs),
(246,1372,o),
(217,1370,o),
(197,1366,c),
(197,0,l),
(217,-4,o),
(246,-6,o),
(272,-6,cs),
(301,-6,o),
(329,-4,o),
(351,0,c)
);
},
{
closed = 1;
nodes = (
(985,0,l),
(1005,-4,o),
(1033,-6,o),
(1060,-6,cs),
(1089,-6,o),
(1117,-4,o),
(1139,0,c),
(1139,1366,l),
(1117,1370,o),
(1089,1372,o),
(1060,1372,cs),
(1033,1372,o),
(1005,1370,o),
(985,1366,c),
(985,920,ls),
(985,864,o),
(987,826,o),
(987,772,cs),
(987,640,ls),
(987,586,o),
(985,548,o),
(985,492,cs)
);
}
);
width = 1336;
},
{
anchors = (
{
name = bottom;
pos = (686,0);
},
{
name = top;
pos = (686,1466);
}
);
layerId = "33C6340C-19D4-4BAD-95FA-1AE5BEBDD22C";
shapes = (
{
closed = 1;
nodes = (
(802,570,ls),
(830,570,o),
(873,572,o),
(902,572,cs),
(965,572,o),
(1031,570,o),
(1094,570,c),
(1094,838,l),
(1031,838,o),
(965,836,o),
(902,836,cs),
(873,836,o),
(830,838,o),
(802,838,cs),
(571,838,ls),
(542,838,o),
(500,836,o),
(471,836,cs),
(408,836,o),
(341,838,o),
(278,838,c),
(278,570,l),
(341,570,o),
(408,572,o),
(471,572,cs),
(500,572,o),
(542,570,o),
(571,570,cs)
);
},
{
closed = 1;
nodes = (
(473,424,ls),
(473,480,o),
(471,518,o),
(471,572,cs),
(471,836,ls),
(471,890,o),
(473,928,o),
(473,984,cs),
(473,1366,l),
(420,1375,o),
(355,1377,o),
(312,1377,cs),
(273,1377,o),
(203,1375,o),
(152,1366,c),
(152,0,l),
(203,-9,o),
(273,-11,o),
(312,-11,cs),
(355,-11,o),
(420,-9,o),
(473,0,c)
);
},
{
closed = 1;
nodes = (
(900,0,l),
(955,-9,o),
(1019,-11,o),
(1064,-11,cs),
(1108,-11,o),
(1166,-9,o),
(1221,0,c),
(1221,1366,l),
(1169,1375,o),
(1099,1377,o),
(1060,1377,cs),
(1017,1377,o),
(953,1375,o),
(900,1366,c),
(900,984,ls),
(900,928,o),
(902,890,o),
(902,836,cs),
(902,572,ls),
(902,518,o),
(900,480,o),
(900,424,cs)
);
}
);
width = 1373;
},
{
anchors = (
{
name = bottom;
pos = (669,0);
},
{
name = top;
pos = (668,1464);
}
);
layerId = "11405D41-D873-4173-B059-BD48D7789B90";
shapes = (
{
closed = 1;
nodes = (
(872,643,ls),
(884,643,o),
(981,645,o),
(994,645,cs),
(1022,645,o),
(1049,643,o),
(1077,643,c),
(1077,769,l),
(1049,769,o),
(1022,767,o),
(994,767,cs),
(981,767,o),
(884,769,o),
(872,769,cs),
(463,769,ls),
(452,769,o),
(355,767,o),
(341,767,cs),
(313,767,o),
(286,769,o),
(259,769,c),
(259,643,l),
(286,643,o),
(313,645,o),
(341,645,cs),
(355,645,o),
(452,643,o),
(463,643,cs)
);
},
{
closed = 1;
nodes = (
(343,497,ls),
(343,553,o),
(341,591,o),
(341,645,cs),
(341,767,ls),
(341,821,o),
(343,859,o),
(343,915,cs),
(343,1366,l),
(323,1370,o),
(298,1372,o),
(270,1372,cs),
(245,1372,o),
(219,1370,o),
(202,1366,c),
(202,0,l),
(219,-4,o),
(245,-6,o),
(270,-6,cs),
(298,-6,o),
(323,-4,o),
(343,0,c)
);
},
{
closed = 1;
nodes = (
(992,0,l),
(1010,-4,o),
(1035,-6,o),
(1061,-6,cs),
(1089,-6,o),
(1114,-4,o),
(1134,0,c),
(1134,1366,l),
(1114,1370,o),
(1089,1372,o),
(1061,1372,cs),
(1035,1372,o),
(1010,1370,o),
(992,1366,c),
(992,915,ls),
(992,859,o),
(994,821,o),
(994,767,cs),
(994,645,ls),
(994,591,o),
(992,553,o),
(992,497,cs)
);
}
);
width = 1336;
},
{
anchors = (
{
name = bottom;
pos = (687,0);
},
{
name = top;
pos = (687,1466);
}
);
layerId = "E2DCE989-2657-47EA-91FE-B2106D1F3005";
shapes = (
{
closed = 1;
nodes = (
(809,576,ls),
(836,576,o),
(883,578,o),
(910,578,cs),
(971,578,o),
(1033,576,o),
(1094,576,c),
(1094,832,l),
(1033,832,o),
(971,830,o),
(910,830,cs),
(883,830,o),
(836,832,o),
(809,832,cs),
(564,832,ls),
(537,832,o),
(490,830,o),
(462,830,cs),
(402,830,o),
(338,832,o),
(279,832,c),
(279,576,l),
(338,576,o),
(402,578,o),
(462,578,cs),
(490,578,o),
(537,576,o),
(564,576,cs)
);
},
{
closed = 1;
nodes = (
(464,430,ls),
(464,486,o),
(462,524,o),
(462,578,cs),
(462,830,ls),
(462,884,o),
(464,922,o),
(464,978,cs),
(464,1366,l),
(414,1375,o),
(352,1377,o),
(310,1377,cs),
(273,1377,o),
(206,1375,o),
(158,1366,c),
(158,0,l),
(206,-9,o),
(273,-11,o),
(310,-11,cs),
(352,-11,o),
(414,-9,o),
(464,0,c)
);
},
{
closed = 1;
nodes = (
(908,0,l),
(961,-9,o),
(1021,-11,o),
(1065,-11,cs),
(1108,-11,o),
(1162,-9,o),
(1215,0,c),
(1215,1366,l),
(1165,1375,o),
(1099,1377,o),
(1061,1377,cs),
(1019,1377,o),
(959,1375,o),
(908,1366,c),
(908,978,ls),
(908,922,o),
(910,884,o),
(910,830,cs),
(910,578,ls),
(910,524,o),
(908,486,o),
(908,430,cs)
);
}
);
width = 1373;
}
);
unicode = 72;
},
{
color = 4;
glyphname = I;
lastChange = "2023-06-06 12:13:07 +0000";
layers = (
{
anchors = (
{
name = bottom;
pos = (280,0);
},
{
name = ogonek;
pos = (359,0);
},
{
name = top;
pos = (282,1464);
}
);
layerId = "E2DCCAAC-30DB-413E-982C-2359C46E476F";
shapes = (
{
closed = 1;
nodes = (
(205,0,l),
(225,-4,o),
(253,-6,o),
(280,-6,cs),
(309,-6,o),
(337,-4,o),
(359,0,c),
(359,1366,l),
(337,1370,o),
(309,1372,o),
(280,1372,cs),
(253,1372,o),
(225,1370,o),
(205,1366,c)
);
}
);
width = 564;
},
{
anchors = (
{
name = bottom;
pos = (315,0);
},
{
name = ogonek;
pos = (475,0);
},
{
name = top;
pos = (315,1466);
}
);
layerId = "33C6340C-19D4-4BAD-95FA-1AE5BEBDD22C";
shapes = (
{
closed = 1;
nodes = (
(155,0,l),
(206,-9,o),
(276,-11,o),
(315,-11,cs),
(358,-11,o),
(422,-9,o),
(475,0,c),
(475,1366,l),
(422,1375,o),
(358,1377,o),
(315,1377,cs),
(276,1377,o),
(206,1375,o),
(155,1366,c)
);
}
);
width = 630;
},
{
anchors = (
{
name = bottom;
pos = (279,0);
},
{
name = ogonek;
pos = (352,0);
},
{
name = top;
pos = (281,1464);
}
);
layerId = "11405D41-D873-4173-B059-BD48D7789B90";
shapes = (
{
closed = 1;
nodes = (
(211,0,l),
(228,-4,o),
(253,-6,o),
(279,-6,cs),
(307,-6,o),
(333,-4,o),
(352,0,c),
(352,1366,l),
(333,1370,o),
(307,1372,o),
(279,1372,cs),
(253,1372,o),
(228,1370,o),
(211,1366,c)
);
}
);
width = 564;
},
{
anchors = (
{
name = bottom;
pos = (315,0);
},
{
name = ogonek;
pos = (468,0);
},
{
name = top;
pos = (315,1466);
}
);
layerId = "E2DCE989-2657-47EA-91FE-B2106D1F3005";
shapes = (
{
closed = 1;
nodes = (
(163,0,l),
(210,-9,o),
(276,-11,o),
(315,-11,cs),
(356,-11,o),
(418,-9,o),
(468,0,c),
(468,1366,l),
(418,1375,o),
(356,1377,o),
(315,1377,cs),
(276,1377,o),
(210,1375,o),
(163,1366,c)
);
}
);
width = 630;
}
);
unicode = 73;
},
{
color = 4;
glyphname = J;
kernLeft = J;
kernRight = U;
lastChange = "2023-06-06 12:34:21 +0000";
layers = (
{
anchors = (
{
name = top;
pos = (627,1464);
}
);
layerId = "E2DCCAAC-30DB-413E-982C-2359C46E476F";
shapes = (
{
closed = 1;
nodes = (
(51,147,o),
(30,108,o),
(20,62,c),
(103,12,o),
(221,-20,o),
(323,-20,cs),
(654,-20,o),
(702,202,o),
(702,482,cs),
(702,1366,l),
(682,1370,o),
(654,1372,o),
(627,1372,cs),
(599,1372,o),
(570,1370,o),
(549,1366,c),
(549,452,ls),
(549,207,o),
(490,112,o),
(316,112,cs),
(237,112,o),
(144,141,o),
(83,179,c)
);
}
);
width = 872;
},
{
anchors = (
{
name = top;
pos = (650,1464);
}
);
layerId = "33C6340C-19D4-4BAD-95FA-1AE5BEBDD22C";
shapes = (
{
closed = 1;
nodes = (
(72,239,o),
(32,148,o),
(20,67,c),
(115,8,o),
(240,-20,o),
(346,-20,cs),
(722,-20,o),
(810,209,o),
(810,524,cs),
(810,1366,l),
(757,1375,o),
(692,1377,o),
(650,1377,cs),
(611,1377,o),
(541,1375,o),
(489,1366,c),
(489,494,ls),
(489,336,o),
(455,244,o),
(311,244,cs),
(247,244,o),
(186,270,o),
(130,304,c)
);
}
);
width = 942;
},
{
anchors = (
{
name = top;
pos = (629,1464);
}
);
layerId = "11405D41-D873-4173-B059-BD48D7789B90";
shapes = (
{
closed = 1;
nodes = (
(54,140,o),
(34,105,o),
(24,62,c),
(106,12,o),
(224,-20,o),
(325,-20,cs),
(653,-20,o),
(698,202,o),
(698,479,cs),
(698,1366,l),
(681,1370,o),
(655,1372,o),
(629,1372,cs),
(602,1372,o),
(576,1370,o),
(557,1366,c),
(557,449,ls),
(557,198,o),
(497,102,o),
(320,102,cs),
(240,102,o),
(145,132,o),
(83,170,c)
);
}
);
width = 872;
},
{
anchors = (
{
name = top;
pos = (651,1464);
}
);
layerId = "E2DCE989-2657-47EA-91FE-B2106D1F3005";
shapes = (
{
closed = 1;
nodes = (
(75,230,o),
(36,144,o),
(24,67,c),
(118,8,o),
(243,-20,o),
(347,-20,cs),
(720,-20,o),
(804,209,o),
(804,520,cs),
(804,1366,l),
(755,1375,o),
(692,1377,o),
(651,1377,cs),
(614,1377,o),
(547,1375,o),
(498,1366,c),
(498,490,ls),
(498,325,o),
(462,233,o),
(315,233,cs),
(250,233,o),
(186,259,o),
(130,293,c)
);
}
);
width = 942;
}
);
unicode = 74;
},
{
color = 4;
glyphname = K;
kernRight = K;
lastChange = "2023-06-06 12:13:07 +0000";
layers = (
{
anchors = (
{
name = bottom;
pos = (609,0);
},
{
name = top;
pos = (603,1464);
}
);
layerId = "E2DCCAAC-30DB-413E-982C-2359C46E476F";
shapes = (
{
closed = 1;
nodes = (
(197,0,l),
(217,-4,o),
(246,-6,o),
(272,-6,cs),
(301,-6,o),
(329,-4,o),
(351,0,c),
(351,1366,l),
(329,1370,o),
(301,1372,o),
(272,1372,cs),
(246,1372,o),
(217,1370,o),
(197,1366,c)
);
},
{
closed = 1;
nodes = (
(1093,65,o),
(1068,97,o),
(1041,164,cs),
(917,476,ls),
(846,657,o),
(777,739,o),
(583,739,cs),
(270,739,l),
(270,630,l),
(403,636,o),
(481,636,o),
(513,636,cs),
(645,636,o),
(714,581,o),
(778,415,cs),
(905,90,ls),
(930,25,o),
(949,-10,o),
(1016,-10,cs),
(1051,-10,o),
(1101,9,o),
(1122,42,c)
);
},
{
closed = 1;
nodes = (
(565,821,ls),
(544,788,o),
(531,772,o),
(496,772,cs),
(434,772,o),
(336,770,o),
(270,766,c),
(270,675,l),
(503,675,ls),
(603,675,o),
(675,727,o),
(724,807,cs),
(1061,1350,l),
(1048,1366,l),
(1019,1368,o),
(994,1370,o),
(966,1370,cs),
(906,1370,o),
(887,1344,o),
(859,1296,cs)
);
}
);
width = 1166;
},
{
anchors = (
{
name = bottom;
pos = (658,0);
},
{
name = top;
pos = (650,1464);
}
);
layerId = "33C6340C-19D4-4BAD-95FA-1AE5BEBDD22C";
shapes = (
{
closed = 1;
nodes = (
(152,0,l),
(203,-9,o),
(273,-11,o),
(312,-11,cs),
(355,-11,o),
(420,-9,o),
(473,0,c),
(473,1366,l),
(420,1375,o),
(355,1377,o),
(312,1377,cs),
(273,1377,o),
(203,1375,o),
(152,1366,c)
);
},
{
closed = 1;
nodes = (
(1182,121,o),
(1163,150,o),
(1124,267,cs),
(1042,514,ls),
(999,647,o),
(934,753,o),
(708,753,cs),
(310,753,l),
(310,557,l),
(411,566,o),
(500,574,o),
(560,574,cs),
(655,574,o),
(707,525,o),
(747,399,cs),
(822,165,ls),
(860,42,o),
(900,-17,o),
(1016,-17,cs),
(1101,-17,o),
(1186,17,o),
(1228,79,c)
);
},
{
closed = 1;
nodes = (
(614,908,ls),
(586,854,o),
(574,840,o),
(523,840,cs),
(453,839,o),
(381,837,o),
(310,836,c),
(310,656,l),
(553,656,ls),
(750,656,o),
(859,743,o),
(935,887,cs),
(1177,1346,l),
(1160,1368,l),
(1097,1373,o),
(1020,1377,o),
(968,1377,cs),
(875,1377,o),
(842,1342,o),
(803,1267,cs)
);
}
);
width = 1241;
},
{
anchors = (
{
name = bottom;
pos = (609,0);
},
{
name = top;
pos = (603,1464);
}
);
layerId = "11405D41-D873-4173-B059-BD48D7789B90";
shapes = (
{
closed = 1;
nodes = (
(202,0,l),
(219,-4,o),
(245,-6,o),
(270,-6,cs),
(298,-6,o),
(323,-4,o),
(343,0,c),
(343,1366,l),
(323,1370,o),
(298,1372,o),
(270,1372,cs),
(245,1372,o),
(219,1370,o),
(202,1366,c)
);
},
{
closed = 1;
nodes = (
(1087,61,o),
(1062,93,o),
(1036,156,cs),
(909,473,ls),
(835,658,o),
(766,738,o),
(575,738,cs),
(268,738,l),
(268,635,l),
(403,641,o),
(481,641,o),
(510,641,cs),
(645,641,o),
(715,585,o),
(781,416,cs),
(912,85,ls),
(936,24,o),
(954,-10,o),
(1017,-10,cs),
(1048,-10,o),
(1096,8,o),
(1115,39,c)
);
},
{
closed = 1;
nodes = (
(562,815,ls),
(542,783,o),
(529,767,o),
(495,767,cs),
(434,767,o),
(333,765,o),
(268,761,c),
(268,676,l),
(500,676,ls),
(593,676,o),
(662,726,o),
(709,801,cs),
(1053,1350,l),
(1041,1366,l),
(1014,1368,o),
(993,1370,o),
(967,1370,cs),
(909,1370,o),
(892,1344,o),
(864,1298,cs)
);
}
);
width = 1166;
},
{
anchors = (
{
name = bottom;
pos = (659,0);
},
{
name = top;
pos = (652,1464);
}
);
layerId = "E2DCE989-2657-47EA-91FE-B2106D1F3005";
shapes = (
{
closed = 1;
nodes = (
(158,0,l),
(206,-9,o),
(273,-11,o),
(310,-11,cs),
(352,-11,o),
(414,-9,o),
(464,0,c),
(464,1366,l),
(414,1375,o),
(352,1377,o),
(310,1377,cs),
(273,1377,o),
(206,1375,o),
(158,1366,c)
);
},
{
closed = 1;
nodes = (
(1176,116,o),
(1157,145,o),
(1119,258,cs),
(1033,510,ls),
(987,648,o),
(922,752,o),
(699,752,cs),
(308,752,l),
(308,563,l),
(412,572,o),
(501,579,o),
(558,579,cs),
(656,579,o),
(709,530,o),
(751,400,cs),
(831,159,ls),
(868,41,o),
(907,-17,o),
(1018,-17,cs),
(1098,-17,o),
(1181,16,o),
(1220,75,c)
);
},
{
closed = 1;
nodes = (
(611,901,ls),
(584,848,o),
(573,834,o),
(523,834,cs),
(454,833,o),
(379,831,o),
(308,830,c),
(308,657,l),
(550,657,ls),
(739,657,o),
(845,742,o),
(918,880,cs),
(1169,1346,l),
(1152,1368,l),
(1092,1373,o),
(1020,1377,o),
(970,1377,cs),
(879,1377,o),
(848,1342,o),
(810,1269,cs)
);
}
);
width = 1241;
}
);
unicode = 75;
},
{
color = 4;
glyphname = L;
kernRight = L;
lastChange = "2023-06-06 12:13:07 +0000";
layers = (
{
anchors = (
{
name = bottom;
pos = (578,0);
},
{
name = periodcentered;
pos = (1012,786);
},
{
name = top;
pos = (272,1464);
},
{
name = topright;
pos = (461,884);
}
);
layerId = "E2DCCAAC-30DB-413E-982C-2359C46E476F";
shapes = (
{
closed = 1;
nodes = (
(351,1273,ls),
(351,1339,o),
(338,1372,o),
(271,1372,cs),
(209,1372,l),
(197,1360,l),
(197,103,ls),
(197,34,o),
(237,0,o),
(287,0,cs),
(351,0,l)
);
},
{
closed = 1;
nodes = (
(524,136,ls),
(431,136,o),
(306,129,o),
(211,114,c),
(287,0,l),
(847,0,ls),
(919,0,o),
(949,25,o),
(949,136,c)
);
}
);
width = 1012;
},
{
anchors = (
{
name = bottom;
pos = (571,0);
},
{
name = periodcentered;
pos = (1045,786);
},
{
name = top;
pos = (309,1455);
},
{
name = topright;
pos = (521,868);
}
);
layerId = "33C6340C-19D4-4BAD-95FA-1AE5BEBDD22C";
shapes = (
{
closed = 1;
nodes = (
(471,1177,ls),
(471,1320,o),
(404,1379,o),
(281,1379,cs),
(164,1379,l),
(150,1365,l),
(150,181,ls),
(150,65,o),
(221,-5,o),
(336,-5,cs),
(471,-5,l)
);
},
{
closed = 1;
nodes = (
(658,270,ls),
(516,270,o),
(339,256,o),
(164,226,c),
(336,-5,l),
(787,-5,ls),
(946,-5,o),
(1005,67,o),
(1005,270,c)
);
}
);
width = 1045;
},
{
anchors = (
{
name = bottom;
pos = (579,0);
},
{
name = periodcentered;
pos = (1012,786);
},
{
name = top;
pos = (270,1464);
},
{
name = topright;
pos = (458,885);
}
);
layerId = "11405D41-D873-4173-B059-BD48D7789B90";
shapes = (
{
closed = 1;
nodes = (
(343,1280,ls),
(343,1340,o),
(334,1372,o),
(271,1372,cs),
(214,1372,l),
(202,1360,l),
(202,97,ls),
(202,32,o),
(239,0,o),
(284,0,cs),
(343,0,l)
);
},
{
closed = 1;
nodes = (
(515,126,ls),
(426,126,o),
(304,120,o),
(216,106,c),
(284,0,l),
(852,0,ls),
(918,0,o),
(946,22,o),
(946,126,c)
);
}
);
width = 1012;
},
{
anchors = (
{
name = bottom;
pos = (572,0);
},
{
name = periodcentered;
pos = (1045,786);
},
{
name = top;
pos = (306,1456);
},
{
name = topright;
pos = (517,869);
}
);
layerId = "E2DCE989-2657-47EA-91FE-B2106D1F3005";
shapes = (
{
closed = 1;
nodes = (
(461,1186,ls),
(461,1321,o),
(399,1379,o),
(281,1379,cs),
(169,1379,l),
(155,1365,l),
(155,174,ls),
(155,63,o),
(223,-5,o),
(332,-5,cs),
(461,-5,l)
);
},
{
closed = 1;
nodes = (
(647,258,ls),
(510,258,o),
(337,245,o),
(169,216,c),
(332,-5,l),
(793,-5,ls),
(945,-5,o),
(1001,63,o),
(1001,258,c)
);
}
);
width = 1045;
}
);
unicode = 76;
},
{
color = 4;
glyphname = M;
kernLeft = M;
kernRight = M;
lastChange = "2023-06-06 12:37:05 +0000";
layers = (
{
anchors = (
{
name = bottom;
pos = (793,0);
},
{
name = top;
pos = (792,1464);
}
);
layerId = "E2DCCAAC-30DB-413E-982C-2359C46E476F";
shapes = (
{
closed = 1;
nodes = (
(169,2,l),
(188,-4,o),
(218,-8,o),
(244,-8,cs),
(269,-8,o),
(294,-6,o),
(317,-2,c),
(374,826,ls),
(380,917,o),
(384,1090,o),
(390,1203,c),
(400,1203,l),
(717,213,l),
(739,209,o),
(766,207,o),
(792,207,cs),
(817,207,o),
(846,209,o),
(869,213,c),
(1187,1203,l),
(1197,1203,l),
(1201,1090,o),
(1207,917,o),
(1213,826,cs),
(1269,-2,l),
(1293,-6,o),
(1314,-8,o),
(1339,-8,cs),
(1365,-8,o),
(1397,-4,o),
(1418,2,c),
(1312,1366,l),
(1271,1372,o),
(1228,1372,o),
(1208,1372,cs),
(1186,1372,o),
(1151,1372,o),
(1110,1366,c),
(880,664,ls),
(857,595,o),
(803,402,o),
(798,372,c),
(788,372,l),
(784,402,o),
(730,595,o),
(707,664,cs),
(477,1366,l),
(441,1372,o),
(401,1372,o),
(379,1372,cs),
(359,1372,o),
(312,1372,o),
(275,1366,c)
);
}
);
width = 1587;
},
{
anchors = (
{
name = bottom;
pos = (833,0);
},
{
name = top;
pos = (834,1464);
}
);
layerId = "33C6340C-19D4-4BAD-95FA-1AE5BEBDD22C";
shapes = (
{
closed = 1;
nodes = (
(110,4,l),
(156,-8,o),
(221,-12,o),
(272,-12,cs),
(320,-12,o),
(366,-10,o),
(412,-2,c),
(443,555,ls),
(451,696,o),
(458,885,o),
(459,1015,c),
(472,1015,l),
(669,201,l),
(717,193,o),
(793,190,o),
(833,190,cs),
(877,190,o),
(950,193,o),
(998,201,c),
(1195,1015,l),
(1209,1015,l),
(1209,885,o),
(1217,696,o),
(1225,555,cs),
(1255,-2,l),
(1301,-10,o),
(1347,-12,o),
(1395,-12,cs),
(1447,-12,o),
(1511,-8,o),
(1557,4,c),
(1451,1364,l),
(1384,1376,o),
(1294,1379,o),
(1235,1379,cs),
(1177,1379,o),
(1101,1376,o),
(1033,1364,c),
(915,875,ls),
(904,827,o),
(857,613,o),
(840,511,c),
(827,511,l),
(811,613,o),
(764,827,o),
(753,875,cs),
(635,1364,l),
(567,1376,o),
(491,1379,o),
(432,1379,cs),
(374,1379,o),
(284,1376,o),
(216,1364,c)
);
}
);
width = 1667;
},
{
anchors = (
{
name = bottom;
pos = (793,0);
},
{
name = top;
pos = (792,1464);
}
);
layerId = "11405D41-D873-4173-B059-BD48D7789B90";
shapes = (
{
closed = 1;
nodes = (
(176,2,l),
(194,-4,o),
(221,-8,o),
(245,-8,cs),
(268,-8,o),
(292,-6,o),
(313,-2,c),
(372,846,ls),
(378,934,o),
(382,1105,o),
(388,1217,c),
(398,1217,l),
(724,214,l),
(744,210,o),
(767,208,o),
(792,208,cs),
(816,208,o),
(841,210,o),
(863,214,c),
(1189,1217,l),
(1199,1217,l),
(1203,1105,o),
(1209,934,o),
(1215,846,cs),
(1273,-2,l),
(1295,-6,o),
(1314,-8,o),
(1338,-8,cs),
(1362,-8,o),
(1391,-4,o),
(1411,2,c),
(1305,1366,l),
(1265,1372,o),
(1226,1372,o),
(1209,1372,cs),
(1189,1372,o),
(1158,1372,o),
(1119,1366,c),
(880,648,ls),
(856,578,o),
(802,386,o),
(798,362,c),
(788,362,l),
(785,386,o),
(730,578,o),
(706,648,cs),
(468,1366,l),
(435,1372,o),
(397,1372,o),
(378,1372,cs),
(361,1372,o),
(317,1372,o),
(282,1366,c)
);
}
);
width = 1587;
},
{
anchors = (
{
name = bottom;
pos = (832,0);
},
{
name = top;
pos = (832,1464);
}
);
layerId = "E2DCE989-2657-47EA-91FE-B2106D1F3005";
shapes = (
{
closed = 1;
nodes = (
(118,4,l),
(162,-8,o),
(224,-12,o),
(273,-12,cs),
(318,-12,o),
(363,-10,o),
(406,-2,c),
(440,578,ls),
(448,716,o),
(455,903,o),
(456,1031,c),
(469,1031,l),
(677,202,l),
(723,194,o),
(794,191,o),
(832,191,cs),
(876,191,o),
(945,194,o),
(991,202,c),
(1198,1031,l),
(1212,1031,l),
(1212,903,o),
(1220,716,o),
(1228,578,cs),
(1260,-2,l),
(1304,-10,o),
(1348,-12,o),
(1394,-12,cs),
(1444,-12,o),
(1505,-8,o),
(1549,4,c),
(1443,1364,l),
(1378,1376,o),
(1292,1379,o),
(1237,1379,cs),
(1182,1379,o),
(1110,1376,o),
(1044,1364,c),
(916,856,ls),
(903,806,o),
(856,594,o),
(840,499,c),
(826,499,l),
(812,594,o),
(765,806,o),
(752,856,cs),
(624,1364,l),
(559,1376,o),
(486,1379,o),
(430,1379,cs),
(376,1379,o),
(289,1376,o),
(224,1364,c)
);
}
);
width = 1667;
}
);
unicode = 77;
},
{
color = 4;
glyphname = N;
lastChange = "2023-06-06 12:13:07 +0000";
layers = (
{
anchors = (
{
name = bottom;
pos = (671,0);
},
{
name = top;
pos = (676,1464);
}
);
layerId = "E2DCCAAC-30DB-413E-982C-2359C46E476F";
shapes = (
{
closed = 1;
nodes = (
(197,0,l),
(223,-4,o),
(247,-6,o),
(268,-6,cs),
(289,-6,o),
(313,-4,o),
(340,0,c),
(340,750,ls),
(340,889,o),
(332,1059,o),
(328,1181,c),
(342,1182,l),
(384,1366,l),
(358,1370,o),
(320,1372,o),
(289,1372,cs),
(262,1372,o),
(223,1370,o),
(197,1366,c)
);
},
{
closed = 1;
nodes = (
(957,0,l),
(1083,103,l),
(1009,178,l),
(966,265,o),
(922,362,o),
(870,459,cs),
(384,1366,l),
(260,1274,l),
(334,1182,l),
(377,1092,o),
(419,1003,o),
(470,907,cs)
);
},
{
closed = 1;
nodes = (
(1133,1372,l),
(1082,1372,ls),
(1015,1372,o),
(1003,1339,o),
(1003,1273,cs),
(1003,634,ls),
(1003,496,o),
(1009,324,o),
(1015,178,c),
(1001,178,l),
(957,0,l),
(983,-4,o),
(1014,-6,o),
(1052,-6,cs),
(1090,-6,o),
(1120,-4,o),
(1145,0,c),
(1145,1362,l)
);
}
);
width = 1342;
},
{
anchors = (
{
name = bottom;
pos = (696,0);
},
{
name = top;
pos = (703,1464);
}
);
layerId = "33C6340C-19D4-4BAD-95FA-1AE5BEBDD22C";
shapes = (
{
closed = 1;
nodes = (
(152,0,l),
(202,-9,o),
(266,-11,o),
(305,-11,cs),
(345,-11,o),
(398,-9,o),
(450,0,c),
(450,398,ls),
(450,564,o),
(440,825,o),
(425,995,c),
(446,1003,l),
(527,1366,l),
(457,1375,o),
(382,1377,o),
(341,1377,cs),
(300,1377,o),
(202,1372,o),
(152,1361,c)
);
},
{
closed = 1;
nodes = (
(861,0,l),
(1122,173,l),
(960,348,l),
(931,422,o),
(885,534,o),
(835,652,cs),
(527,1366,l),
(285,1170,l),
(433,999,l),
(460,922,o),
(501,819,o),
(545,716,cs)
);
},
{
closed = 1;
nodes = (
(1225,1379,l),
(1122,1379,ls),
(999,1379,o),
(943,1329,o),
(943,1186,cs),
(943,942,ls),
(943,804,o),
(951,538,o),
(968,352,c),
(945,345,l),
(861,0,l),
(931,-9,o),
(1005,-11,o),
(1047,-11,cs),
(1088,-11,o),
(1188,-6,o),
(1239,5,c),
(1239,1366,l)
);
}
);
width = 1391;
},
{
anchors = (
{
name = bottom;
pos = (671,0);
},
{
name = top;
pos = (676,1464);
}
);
layerId = "11405D41-D873-4173-B059-BD48D7789B90";
shapes = (
{
closed = 1;
nodes = (
(202,0,l),
(225,-4,o),
(247,-6,o),
(266,-6,cs),
(286,-6,o),
(308,-4,o),
(333,0,c),
(333,776,ls),
(333,913,o),
(325,1076,o),
(322,1195,c),
(335,1195,l),
(374,1366,l),
(351,1370,o),
(316,1372,o),
(286,1372,cs),
(260,1372,o),
(225,1370,o),
(202,1366,c)
);
},
{
closed = 1;
nodes = (
(966,0,l),
(1082,98,l),
(1015,165,l),
(971,253,o),
(927,349,o),
(875,445,cs),
(374,1366,l),
(259,1282,l),
(327,1195,l),
(372,1105,o),
(414,1017,o),
(466,921,cs)
);
},
{
closed = 1;
nodes = (
(1128,1372,l),
(1081,1372,ls),
(1018,1372,o),
(1009,1340,o),
(1009,1280,cs),
(1009,611,ls),
(1009,473,o),
(1015,308,o),
(1021,165,c),
(1007,165,l),
(966,0,l),
(989,-4,o),
(1016,-6,o),
(1054,-6,cs),
(1092,-6,o),
(1117,-4,o),
(1140,0,c),
(1140,1362,l)
);
}
);
width = 1342;
},
{
anchors = (
{
name = bottom;
pos = (695,0);
},
{
name = top;
pos = (703,1464);
}
);
layerId = "E2DCE989-2657-47EA-91FE-B2106D1F3005";
shapes = (
{
closed = 1;
nodes = (
(158,0,l),
(205,-9,o),
(267,-11,o),
(303,-11,cs),
(342,-11,o),
(393,-9,o),
(442,0,c),
(442,429,ls),
(442,592,o),
(432,846,o),
(419,1011,c),
(439,1019,l),
(516,1366,l),
(450,1375,o),
(379,1377,o),
(338,1377,cs),
(298,1377,o),
(205,1372,o),
(158,1361,c)
);
},
{
closed = 1;
nodes = (
(873,0,l),
(1121,167,l),
(968,333,l),
(937,408,o),
(892,519,o),
(841,635,cs),
(516,1366,l),
(284,1179,l),
(426,1015,l),
(455,937,o),
(495,835,o),
(541,733,cs)
);
},
{
closed = 1;
nodes = (
(1219,1379,l),
(1121,1379,ls),
(1003,1379,o),
(951,1330,o),
(951,1194,cs),
(951,915,ls),
(951,777,o),
(959,519,o),
(975,337,c),
(953,330,l),
(873,0,l),
(939,-9,o),
(1009,-11,o),
(1050,-11,cs),
(1091,-11,o),
(1185,-6,o),
(1233,5,c),
(1233,1366,l)
);
}
);
width = 1391;
}
);
metricRight = "=|";
unicode = 78;
},
{
color = 4;
glyphname = O;
kernLeft = C;
kernRight = O;
lastChange = "2023-06-09 09:31:00 +0000";
layers = (
{
anchors = (
{
name = bottom;
pos = (653,0);
},
{
name = ogonek;
pos = (838,8);
},
{
name = top;
pos = (653,1464);
},
{
name = topright;
pos = (1002,1346);
}
);
layerId = "E2DCCAAC-30DB-413E-982C-2359C46E476F";
shapes = (
{
closed = 1;
nodes = (
(276,943,o),
(347,1262,o),
(653,1262,cs),
(959,1262,o),
(1028,943,o),
(1028,684,cs),
(1028,425,o),
(959,104,o),
(653,104,cs),
(347,104,o),
(276,425,o),
(276,684,cs)
);
},
{
closed = 1;
nodes = (
(114,295,o),
(284,-24,o),
(653,-24,cs),
(1020,-24,o),
(1192,292,o),
(1192,684,cs),
(1192,1072,o),
(1021,1390,o),
(653,1390,cs),
(287,1390,o),
(114,1074,o),
(114,684,cs)
);
}
);
width = 1306;
},
{
anchors = (
{
name = bottom;
pos = (666,0);
},
{
name = ogonek;
pos = (873,1);
},
{
name = top;
pos = (666,1464);
},
{
name = topright;
pos = (1102,1337);
}
);
layerId = "33C6340C-19D4-4BAD-95FA-1AE5BEBDD22C";
shapes = (
{
closed = 1;
nodes = (
(406,894,o),
(436,1150,o),
(666,1150,cs),
(897,1150,o),
(926,894,o),
(926,684,cs),
(926,474,o),
(897,216,o),
(666,216,cs),
(436,216,o),
(406,474,o),
(406,684,cs)
);
},
{
closed = 1;
nodes = (
(72,258,o),
(260,-29,o),
(666,-29,cs),
(1069,-29,o),
(1261,254,o),
(1261,684,cs),
(1261,1109,o),
(1072,1395,o),
(666,1395,cs),
(263,1395,o),
(72,1112,o),
(72,684,cs)
);
}
);
width = 1333;
},
{
anchors = (
{
name = bottom;
pos = (653,0);
},
{
name = ogonek;
pos = (836,8);
},
{
name = top;
pos = (653,1464);
},
{
name = topright;
pos = (995,1346);
}
);
layerId = "11405D41-D873-4173-B059-BD48D7789B90";
shapes = (
{
closed = 1;
nodes = (
(268,947,o),
(342,1270,o),
(654,1270,cs),
(965,1270,o),
(1038,947,o),
(1038,684,cs),
(1038,421,o),
(965,96,o),
(654,96,cs),
(342,96,o),
(268,421,o),
(268,684,cs)
);
},
{
closed = 1;
nodes = (
(118,298,o),
(287,-24,o),
(653,-24,cs),
(1017,-24,o),
(1188,295,o),
(1188,684,cs),
(1188,1069,o),
(1018,1390,o),
(653,1390,cs),
(290,1390,o),
(118,1071,o),
(118,684,cs)
);
}
);
width = 1306;
},
{
anchors = (
{
name = bottom;
pos = (666,0);
},
{
name = ogonek;
pos = (870,1);
},
{
name = top;
pos = (666,1464);
},
{
name = topright;
pos = (1094,1338);
}
);
layerId = "E2DCE989-2657-47EA-91FE-B2106D1F3005";
shapes = (
{
closed = 1;
nodes = (
(396,899,o),
(428,1160,o),
(666,1160,cs),
(903,1160,o),
(936,899,o),
(936,684,cs),
(936,469,o),
(903,206,o),
(666,206,cs),
(428,206,o),
(396,469,o),
(396,684,cs)
);
},
{
closed = 1;
nodes = (
(77,262,o),
(263,-29,o),
(666,-29,cs),
(1065,-29,o),
(1256,258,o),
(1256,684,cs),
(1256,1105,o),
(1068,1395,o),
(666,1395,cs),
(266,1395,o),
(77,1108,o),
(77,684,cs)
);
}
);
width = 1333;
}
);
metricRight = "=|";
unicode = 79;
},
{
color = 4;
glyphname = P;
lastChange = "2023-06-06 12:13:07 +0000";
layers = (
{
anchors = (
{
name = top;
pos = (577,1464);
}
);
layerId = "E2DCCAAC-30DB-413E-982C-2359C46E476F";
shapes = (
{
closed = 1;
nodes = (
(1033,1228,o),
(848,1372,o),
(592,1372,cs),
(465,1372,o),
(349,1368,o),
(210,1366,c),
(197,1354,l),
(197,0,l),
(217,-4,o),
(246,-6,o),
(272,-6,cs),
(301,-6,o),
(329,-4,o),
(351,0,c),
(351,1246,l),
(424,1244,o),
(530,1244,o),
(596,1244,cs),
(817,1244,o),
(870,1081,o),
(870,944,cs),
(870,810,o),
(817,642,o),
(596,642,cs),
(530,642,o),
(360,641,o),
(287,639,c),
(287,513,l),
(592,513,ls),
(852,513,o),
(1033,662,o),
(1033,944,cs)
);
}
);
width = 1112;
},
{
anchors = (
{
name = top;
pos = (600,1464);
}
);
layerId = "33C6340C-19D4-4BAD-95FA-1AE5BEBDD22C";
shapes = (
{
closed = 1;
nodes = (
(1120,1226,o),
(914,1377,o),
(630,1377,cs),
(479,1377,o),
(337,1373,o),
(166,1370,c),
(152,1356,l),
(152,0,l),
(203,-9,o),
(273,-11,o),
(312,-11,cs),
(355,-11,o),
(420,-9,o),
(473,0,c),
(473,1134,l),
(527,1132,o),
(563,1132,o),
(603,1132,cs),
(763,1132,o),
(793,996,o),
(793,902,cs),
(793,806,o),
(763,671,o),
(603,671,cs),
(563,671,o),
(391,666,o),
(337,662,c),
(337,428,l),
(630,428,ls),
(914,428,o),
(1120,589,o),
(1120,902,cs)
);
}
);
width = 1178;
},
{
anchors = (
{
name = top;
pos = (579,1464);
}
);
layerId = "11405D41-D873-4173-B059-BD48D7789B90";
shapes = (
{
closed = 1;
nodes = (
(1032,1228,o),
(848,1372,o),
(594,1372,cs),
(469,1372,o),
(351,1368,o),
(214,1366,c),
(202,1354,l),
(202,0,l),
(219,-4,o),
(245,-6,o),
(270,-6,cs),
(298,-6,o),
(323,-4,o),
(343,0,c),
(343,1254,l),
(417,1252,o),
(532,1252,o),
(601,1252,cs),
(826,1252,o),
(881,1087,o),
(881,947,cs),
(881,810,o),
(826,640,o),
(601,640,cs),
(532,640,o),
(359,639,o),
(284,637,c),
(284,519,l),
(594,519,ls),
(852,519,o),
(1032,667,o),
(1032,947,cs)
);
}
);
width = 1112;
},
{
anchors = (
{
name = top;
pos = (601,1464);
}
);
layerId = "E2DCE989-2657-47EA-91FE-B2106D1F3005";
shapes = (
{
closed = 1;
nodes = (
(1115,1226,o),
(910,1377,o),
(628,1377,cs),
(480,1377,o),
(340,1373,o),
(172,1370,c),
(158,1356,l),
(158,0,l),
(206,-9,o),
(273,-11,o),
(310,-11,cs),
(352,-11,o),
(414,-9,o),
(464,0,c),
(464,1144,l),
(520,1142,o),
(562,1142,o),
(605,1142,cs),
(770,1142,o),
(802,1003,o),
(802,906,cs),
(802,806,o),
(770,669,o),
(605,669,cs),
(562,669,o),
(391,663,o),
(334,659,c),
(334,435,l),
(628,435,ls),
(911,435,o),
(1115,595,o),
(1115,906,cs)
);
}
);
width = 1178;
}
);
unicode = 80;
},
{
color = 4;
glyphname = Q;
kernLeft = C;
kernRight = O;
lastChange = "2023-06-06 12:13:07 +0000";
layers = (
{
layerId = "E2DCCAAC-30DB-413E-982C-2359C46E476F";
shapes = (
{
closed = 1;
nodes = (
(275,947,o),
(336,1262,o),
(642,1262,cs),
(947,1262,o),
(1006,947,o),
(1006,684,cs),
(1006,421,o),
(947,110,o),
(642,110,cs),
(336,110,o),
(275,421,o),
(275,684,cs)
);
},
{
closed = 1;
nodes = (
(114,281,o),
(265,-24,o),
(653,-24,cs),
(717,-24,o),
(735,-7,o),
(770,10,cs),
(1043,17,o),
(1170,372,o),
(1170,684,cs),
(1170,1078,o),
(1018,1390,o),
(642,1390,cs),
(268,1390,o),
(114,1081,o),
(114,684,cs)
);
},
{
closed = 1;
nodes = (
(925,-197,ls),
(962,-222,o),
(998,-237,o),
(1046,-237,cs),
(1096,-237,o),
(1152,-206,o),
(1157,-122,c),
(1094,-121,o),
(1042,-101,o),
(904,-2,cs),
(786,83,l),
(609,28,l)
);
}
);
width = 1283;
},
{
layerId = "33C6340C-19D4-4BAD-95FA-1AE5BEBDD22C";
shapes = (
{
closed = 1;
nodes = (
(400,897,o),
(437,1150,o),
(669,1150,cs),
(902,1150,o),
(936,897,o),
(936,684,cs),
(936,473,o),
(902,216,o),
(669,216,cs),
(437,216,o),
(400,473,o),
(400,684,cs)
);
},
{
closed = 1;
nodes = (
(72,266,o),
(260,-29,o),
(669,-29,cs),
(736,-29,o),
(793,3,o),
(841,41,cs),
(1142,42,o),
(1267,349,o),
(1267,682,cs),
(1267,1102,o),
(1079,1395,o),
(669,1395,cs),
(262,1395,o),
(72,1105,o),
(72,684,cs)
);
},
{
closed = 1;
nodes = (
(871,-209,ls),
(925,-257,o),
(991,-289,o),
(1084,-289,cs),
(1191,-289,o),
(1284,-202,o),
(1286,-62,c),
(1204,-61,o),
(1139,-41,o),
(1034,33,cs),
(846,166,l),
(557,68,l)
);
}
);
width = 1339;
},
{
layerId = "11405D41-D873-4173-B059-BD48D7789B90";
shapes = (
{
closed = 1;
nodes = (
(267,951,o),
(331,1270,o),
(643,1270,cs),
(954,1270,o),
(1014,951,o),
(1014,684,cs),
(1014,417,o),
(954,102,o),
(643,102,cs),
(331,102,o),
(267,417,o),
(267,684,cs)
);
},
{
closed = 1;
nodes = (
(118,282,o),
(268,-24,o),
(655,-24,cs),
(719,-24,o),
(734,-8,o),
(768,8,cs),
(1038,15,o),
(1166,374,o),
(1166,684,cs),
(1166,1076,o),
(1016,1390,o),
(643,1390,cs),
(271,1390,o),
(118,1079,o),
(118,684,cs)
);
},
{
closed = 1;
nodes = (
(932,-196,ls),
(968,-219,o),
(1001,-233,o),
(1046,-233,cs),
(1092,-233,o),
(1145,-206,o),
(1151,-127,c),
(1089,-125,o),
(1038,-105,o),
(897,-5,cs),
(784,77,l),
(616,25,l)
);
}
);
width = 1283;
},
{
layerId = "E2DCE989-2657-47EA-91FE-B2106D1F3005";
shapes = (
{
closed = 1;
nodes = (
(390,902,o),
(429,1160,o),
(668,1160,cs),
(907,1160,o),
(943,902,o),
(943,684,cs),
(943,468,o),
(907,206,o),
(668,206,cs),
(429,206,o),
(390,468,o),
(390,684,cs)
);
},
{
closed = 1;
nodes = (
(77,267,o),
(261,-29,o),
(669,-29,cs),
(736,-29,o),
(789,2,o),
(836,39,cs),
(1134,39,o),
(1260,352,o),
(1260,682,cs),
(1260,1099,o),
(1075,1395,o),
(668,1395,cs),
(263,1395,o),
(77,1102,o),
(77,684,cs)
);
},
{
closed = 1;
nodes = (
(877,-208,ls),
(930,-254,o),
(992,-284,o),
(1081,-284,cs),
(1184,-284,o),
(1274,-202,o),
(1276,-67,c),
(1195,-66,o),
(1132,-46,o),
(1024,30,cs),
(842,159,l),
(563,64,l)
);
}
);
width = 1339;
}
);
unicode = 81;
},
{
color = 4;
glyphname = Q.ss02;
kernLeft = C;
kernRight = O;
lastChange = "2023-06-06 12:13:07 +0000";
layers = (
{
layerId = "E2DCCAAC-30DB-413E-982C-2359C46E476F";
shapes = (
{
closed = 1;
nodes = (
(272,-48,l),
(428,-48,o),
(528,-98,o),
(673,-168,cs),
(827,-243,o),
(918,-278,o),
(1019,-278,cs),
(1106,-278,o),
(1160,-239,o),
(1160,-158,cs),
(1160,-141,o),
(1158,-124,o),
(1156,-116,c),
(1123,-126,o),
(1091,-128,o),
(1058,-128,cs),
(923,-128,o),
(786,-69,o),
(633,-14,c),
(1087,31,o),
(1156,464,o),
(1156,686,cs),
(1156,896,o),
(1100,1130,o),
(951,1268,cs),
(870,1344,o),
(769,1390,o),
(608,1390,cs),
(294,1390,o),
(89,1146,o),
(89,765,cs),
(89,450,o),
(243,232,o),
(464,232,cs),
(556,232,o),
(594,279,o),
(594,335,cs),
(594,351,o),
(592,368,o),
(588,381,c),
(377,340,o),
(250,487,o),
(250,777,cs),
(250,1035,o),
(346,1262,o),
(610,1262,cs),
(923,1262,o),
(990,947,o),
(990,686,cs),
(990,287,o),
(826,104,o),
(496,92,cs),
(410,88,o),
(384,98,o),
(270,90,c),
(260,63,o),
(254,42,o),
(254,17,cs),
(254,0,o),
(256,-19,o),
(260,-36,c)
);
}
);
width = 1274;
},
{
layerId = "33C6340C-19D4-4BAD-95FA-1AE5BEBDD22C";
shapes = (
{
closed = 1;
nodes = (
(239,-119,l),
(432,-119,o),
(526,-168,o),
(659,-243,cs),
(802,-325,o),
(909,-379,o),
(1033,-379,cs),
(1176,-379,o),
(1266,-295,o),
(1266,-165,cs),
(1266,-125,o),
(1261,-89,o),
(1255,-76,c),
(1201,-91,o),
(1145,-97,o),
(1095,-97,cs),
(968,-97,o),
(850,-53,o),
(727,-19,c),
(1170,48,o),
(1255,435,o),
(1255,679,cs),
(1255,892,o),
(1199,1130,o),
(1034,1272,cs),
(945,1348,o),
(829,1395,o),
(648,1395,cs),
(292,1395,o),
(66,1139,o),
(66,786,cs),
(66,445,o),
(253,267,o),
(459,267,cs),
(594,267,o),
(660,339,o),
(660,448,cs),
(660,476,o),
(654,509,o),
(648,528,c),
(493,512,o),
(386,601,o),
(386,820,cs),
(386,990,o),
(452,1148,o),
(650,1148,cs),
(878,1148,o),
(926,895,o),
(926,679,cs),
(926,334,o),
(764,175,o),
(452,160,cs),
(375,156,o),
(320,160,o),
(237,152,c),
(222,106,o),
(212,49,o),
(212,-4,cs),
(212,-37,o),
(216,-73,o),
(223,-102,c)
);
}
);
width = 1344;
},
{
layerId = "11405D41-D873-4173-B059-BD48D7789B90";
shapes = (
{
closed = 1;
nodes = (
(279,-43,l),
(432,-43,o),
(534,-93,o),
(678,-163,cs),
(833,-238,o),
(922,-270,o),
(1022,-270,cs),
(1105,-270,o),
(1156,-235,o),
(1156,-158,cs),
(1156,-142,o),
(1154,-127,o),
(1152,-119,c),
(1121,-129,o),
(1091,-130,o),
(1059,-130,cs),
(923,-130,o),
(785,-70,o),
(630,-14,c),
(1085,30,o),
(1152,466,o),
(1152,686,cs),
(1152,896,o),
(1098,1130,o),
(951,1268,cs),
(871,1344,o),
(771,1390,o),
(611,1390,cs),
(303,1390,o),
(93,1146,o),
(93,764,cs),
(93,450,o),
(244,229,o),
(466,229,cs),
(555,229,o),
(591,275,o),
(591,326,cs),
(591,342,o),
(589,358,o),
(585,370,c),
(370,327,o),
(242,478,o),
(242,774,cs),
(242,1039,o),
(347,1270,o),
(613,1270,cs),
(933,1270,o),
(999,951,o),
(999,686,cs),
(999,283,o),
(837,99,o),
(503,87,cs),
(417,84,o),
(393,93,o),
(277,85,c),
(267,60,o),
(261,42,o),
(261,18,cs),
(261,3,o),
(263,-15,o),
(267,-31,c)
);
}
);
width = 1274;
},
{
layerId = "E2DCE989-2657-47EA-91FE-B2106D1F3005";
shapes = (
{
closed = 1;
nodes = (
(245,-113,l),
(436,-113,o),
(530,-162,o),
(664,-237,cs),
(809,-318,o),
(914,-370,o),
(1037,-370,cs),
(1175,-370,o),
(1261,-290,o),
(1261,-165,cs),
(1261,-126,o),
(1257,-92,o),
(1251,-80,c),
(1199,-94,o),
(1145,-99,o),
(1096,-99,cs),
(969,-99,o),
(848,-54,o),
(722,-19,c),
(1168,47,o),
(1251,437,o),
(1251,679,cs),
(1251,892,o),
(1195,1130,o),
(1032,1272,cs),
(943,1348,o),
(828,1395,o),
(648,1395,cs),
(295,1395,o),
(71,1139,o),
(71,785,cs),
(71,445,o),
(254,264,o),
(462,264,cs),
(593,264,o),
(657,334,o),
(657,438,cs),
(657,465,o),
(652,497,o),
(646,515,c),
(486,497,o),
(377,591,o),
(377,817,cs),
(377,994,o),
(446,1158,o),
(650,1158,cs),
(886,1158,o),
(936,900,o),
(936,679,cs),
(936,330,o),
(773,169,o),
(460,154,cs),
(382,150,o),
(329,155,o),
(243,147,c),
(229,103,o),
(219,49,o),
(219,-3,cs),
(219,-33,o),
(223,-68,o),
(230,-96,c)
);
}
);
width = 1344;
}
);
},
{
color = 4;
glyphname = R;
kernRight = R;
lastChange = "2023-06-06 12:13:07 +0000";
layers = (
{
anchors = (
{
name = bottom;
pos = (608,0);
},
{
name = top;
pos = (591,1464);
}
);
layerId = "E2DCCAAC-30DB-413E-982C-2359C46E476F";
shapes = (
{
closed = 1;
nodes = (
(1049,1221,o),
(892,1372,o),
(614,1372,cs),
(486,1372,o),
(349,1368,o),
(210,1366,c),
(197,1354,l),
(197,0,l),
(217,-4,o),
(246,-6,o),
(272,-6,cs),
(301,-6,o),
(329,-4,o),
(351,0,c),
(351,1246,l),
(424,1244,o),
(546,1244,o),
(612,1244,cs),
(832,1244,o),
(887,1107,o),
(887,976,cs),
(887,850,o),
(832,708,o),
(612,708,cs),
(515,708,o),
(380,706,o),
(287,702,c),
(287,576,l),
(558,576,ls),
(692,576,o),
(740,497,o),
(779,393,cs),
(894,89,ls),
(919,23,o),
(942,-12,o),
(1003,-12,cs),
(1038,-12,o),
(1088,3,o),
(1109,38,c),
(1077,64,o),
(1058,93,o),
(1025,181,cs),
(921,451,ls),
(893,524,o),
(847,592,o),
(786,612,c),
(947,660,o),
(1049,795,o),
(1049,976,cs)
);
}
);
width = 1185;
},
{
anchors = (
{
name = bottom;
pos = (650,0);
},
{
name = top;
pos = (604,1464);
}
);
layerId = "33C6340C-19D4-4BAD-95FA-1AE5BEBDD22C";
shapes = (
{
closed = 1;
nodes = (
(1132,1246,o),
(923,1377,o),
(645,1377,cs),
(493,1377,o),
(337,1373,o),
(166,1370,c),
(152,1356,l),
(152,0,l),
(203,-9,o),
(272,-11,o),
(310,-11,cs),
(353,-11,o),
(416,-9,o),
(469,0,c),
(469,1138,l),
(527,1136,o),
(577,1136,o),
(617,1136,cs),
(770,1136,o),
(805,1047,o),
(805,943,cs),
(805,843,o),
(770,750,o),
(617,750,cs),
(575,750,o),
(417,744,o),
(339,740,c),
(339,501,l),
(553,501,ls),
(659,501,o),
(698,445,o),
(721,376,cs),
(793,167,ls),
(836,44,o),
(874,-17,o),
(989,-17,cs),
(1075,-17,o),
(1161,22,o),
(1201,76,c),
(1159,110,o),
(1125,161,o),
(1103,224,cs),
(1043,393,ls),
(1012,481,o),
(963,550,o),
(889,577,c),
(1003,622,o),
(1132,750,o),
(1132,943,cs)
);
}
);
width = 1230;
},
{
anchors = (
{
name = bottom;
pos = (608,0);
},
{
name = top;
pos = (593,1464);
}
);
layerId = "11405D41-D873-4173-B059-BD48D7789B90";
shapes = (
{
closed = 1;
nodes = (
(1044,1219,o),
(891,1372,o),
(613,1372,cs),
(487,1372,o),
(351,1368,o),
(214,1366,c),
(202,1354,l),
(202,0,l),
(219,-4,o),
(245,-6,o),
(270,-6,cs),
(298,-6,o),
(324,-4,o),
(343,0,c),
(343,1254,l),
(417,1252,o),
(545,1252,o),
(613,1252,cs),
(838,1252,o),
(894,1111,o),
(894,979,cs),
(894,850,o),
(838,705,o),
(613,705,cs),
(512,705,o),
(378,703,o),
(284,699,c),
(284,581,l),
(559,581,ls),
(696,581,o),
(744,501,o),
(784,394,cs),
(903,83,ls),
(926,22,o),
(948,-12,o),
(1005,-12,cs),
(1036,-12,o),
(1084,2,o),
(1103,35,c),
(1072,60,o),
(1054,88,o),
(1020,178,cs),
(913,455,ls),
(885,527,o),
(839,595,o),
(779,615,c),
(944,663,o),
(1044,799,o),
(1044,979,cs)
);
}
);
width = 1185;
},
{
anchors = (
{
name = bottom;
pos = (649,0);
},
{
name = top;
pos = (606,1464);
}
);
layerId = "E2DCE989-2657-47EA-91FE-B2106D1F3005";
shapes = (
{
closed = 1;
nodes = (
(1127,1243,o),
(923,1377,o),
(645,1377,cs),
(495,1377,o),
(340,1373,o),
(172,1370,c),
(158,1356,l),
(158,0,l),
(206,-9,o),
(272,-11,o),
(308,-11,cs),
(350,-11,o),
(411,-9,o),
(461,0,c),
(461,1148,l),
(520,1146,o),
(577,1146,o),
(619,1146,cs),
(777,1146,o),
(814,1052,o),
(814,946,cs),
(814,843,o),
(777,746,o),
(619,746,cs),
(572,746,o),
(415,740,o),
(336,736,c),
(336,507,l),
(555,507,ls),
(664,507,o),
(704,450,o),
(728,377,cs),
(804,160,ls),
(845,43,o),
(882,-17,o),
(992,-17,cs),
(1073,-17,o),
(1157,21,o),
(1194,72,c),
(1154,106,o),
(1121,155,o),
(1098,221,cs),
(1034,398,ls),
(1004,485,o),
(955,554,o),
(882,580,c),
(1000,626,o),
(1127,754,o),
(1127,946,cs)
);
}
);
width = 1230;
}
);
unicode = 82;
},
{
color = 4;
glyphname = S;
kernLeft = S;
kernRight = S;
lastChange = "2023-06-06 12:50:03 +0000";
layers = (
{
anchors = (
{
name = bottom;
pos = (556,0);
},
{
name = top;
pos = (565,1464);
}
);
layerId = "E2DCCAAC-30DB-413E-982C-2359C46E476F";
shapes = (
{
closed = 1;
nodes = (
(203,35,o),
(374,-24,o),
(542,-24,cs),
(861,-24,o),
(1013,139,o),
(1013,362,cs),
(1013,546,o),
(873,658,o),
(715,724,cs),
(480,822,ls),
(375,866,o),
(286,925,o),
(286,1033,cs),
(286,1167,o),
(402,1259,o),
(569,1259,cs),
(670,1259,o),
(795,1221,o),
(901,1167,c),
(936,1196,o),
(961,1249,o),
(962,1293,c),
(858,1344,o),
(718,1390,o),
(564,1390,cs),
(297,1390,o),
(130,1220,o),
(130,1020,cs),
(130,860,o),
(230,756,o),
(399,684,cs),
(641,582,ls),
(761,531,o),
(854,451,o),
(854,330,cs),
(854,194,o),
(735,111,o),
(549,111,cs),
(414,111,o),
(266,167,o),
(148,248,c),
(115,223,o),
(82,172,o),
(77,126,c)
);
}
);
width = 1110;
},
{
anchors = (
{
name = bottom;
pos = (551,0);
},
{
name = top;
pos = (565,1464);
}
);
layerId = "33C6340C-19D4-4BAD-95FA-1AE5BEBDD22C";
shapes = (
{
closed = 1;
nodes = (
(178,23,o),
(374,-29,o),
(537,-29,cs),
(886,-29,o),
(1062,156,o),
(1062,399,cs),
(1062,572,o),
(954,714,o),
(760,794,cs),
(514,895,ls),
(426,932,o),
(397,970,o),
(397,1021,cs),
(397,1075,o),
(441,1139,o),
(556,1139,cs),
(664,1139,o),
(815,1090,o),
(917,1042,c),
(979,1099,o),
(1020,1189,o),
(1025,1281,c),
(921,1335,o),
(745,1395,o),
(556,1395,cs),
(284,1395,o),
(69,1227,o),
(69,978,cs),
(69,787,o),
(190,678,o),
(355,609,cs),
(596,509,ls),
(708,462,o),
(722,402,o),
(722,359,cs),
(722,295,o),
(675,227,o),
(559,227,cs),
(416,227,o),
(266,291,o),
(153,358,c),
(92,305,o),
(38,209,o),
(30,119,c)
);
}
);
width = 1114;
},
{
anchors = (
{
name = bottom;
pos = (556,0);
},
{
name = top;
pos = (565,1464);
}
);
layerId = "11405D41-D873-4173-B059-BD48D7789B90";
shapes = (
{
closed = 1;
nodes = (
(205,36,o),
(374,-24,o),
(542,-24,cs),
(859,-24,o),
(1009,138,o),
(1009,359,cs),
(1009,544,o),
(867,654,o),
(711,719,cs),
(477,817,ls),
(371,861,o),
(278,921,o),
(278,1034,cs),
(278,1174,o),
(399,1268,o),
(570,1268,cs),
(670,1268,o),
(794,1231,o),
(900,1176,c),
(933,1203,o),
(957,1253,o),
(957,1294,c),
(853,1344,o),
(716,1390,o),
(564,1390,cs),
(298,1390,o),
(135,1220,o),
(135,1023,cs),
(135,865,o),
(233,762,o),
(403,689,cs),
(645,587,ls),
(765,536,o),
(864,455,o),
(864,328,cs),
(864,186,o),
(739,102,o),
(548,102,cs),
(414,102,o),
(266,158,o),
(148,240,c),
(117,217,o),
(85,169,o),
(81,126,c)
);
}
);
width = 1110;
},
{
anchors = (
{
name = bottom;
pos = (551,0);
},
{
name = top;
pos = (565,1464);
}
);
layerId = "E2DCE989-2657-47EA-91FE-B2106D1F3005";
shapes = (
{
closed = 1;
nodes = (
(181,24,o),
(374,-29,o),
(537,-29,cs),
(883,-29,o),
(1057,155,o),
(1057,395,cs),
(1057,570,o),
(947,709,o),
(756,788,cs),
(511,889,ls),
(421,926,o),
(387,966,o),
(387,1022,cs),
(387,1084,o),
(437,1150,o),
(557,1150,cs),
(664,1150,o),
(814,1102,o),
(916,1053,c),
(975,1107,o),
(1015,1194,o),
(1019,1282,c),
(915,1336,o),
(743,1395,o),
(557,1395,cs),
(285,1395,o),
(74,1227,o),
(74,982,cs),
(74,793,o),
(194,686,o),
(359,615,cs),
(600,515,ls),
(713,468,o),
(733,407,o),
(733,357,cs),
(733,286,o),
(680,217,o),
(558,217,cs),
(416,217,o),
(266,280,o),
(153,348,c),
(95,298,o),
(42,205,o),
(34,119,c)
);
}
);
width = 1114;
}
);
unicode = 83;
},
{
color = 4;
glyphname = T;
kernLeft = T;
kernRight = T;
lastChange = "2023-06-06 12:32:08 +0000";
layers = (
{
anchors = (
{
name = bottom;
pos = (485,0);
},
{
name = top;
pos = (483,1464);
}
);
layerId = "E2DCCAAC-30DB-413E-982C-2359C46E476F";
shapes = (
{
closed = 1;
nodes = (
(299,1234,ls),
(325,1234,o),
(382,1236,o),
(408,1236,cs),
(561,1236,ls),
(588,1236,o),
(646,1234,o),
(670,1234,cs),
(842,1234,ls),
(905,1234,o),
(934,1253,o),
(934,1303,cs),
(934,1324,o),
(930,1347,o),
(924,1366,c),
(44,1366,l),
(39,1343,o),
(37,1321,o),
(37,1300,cs),
(37,1279,o),
(39,1256,o),
(44,1234,c)
);
},
{
closed = 1;
nodes = (
(408,0,l),
(430,-4,o),
(459,-6,o),
(485,-6,cs),
(510,-6,o),
(539,-4,o),
(561,0,c),
(561,1088,ls),
(561,1142,o),
(561,1180,o),
(561,1236,cs),
(561,1300,l),
(408,1300,l),
(408,1236,ls),
(408,1180,o),
(408,1142,o),
(408,1088,cs)
);
}
);
width = 965;
},
{
anchors = (
{
name = bottom;
pos = (512,0);
},
{
name = top;
pos = (511,1464);
}
);
layerId = "33C6340C-19D4-4BAD-95FA-1AE5BEBDD22C";
shapes = (
{
closed = 1;
nodes = (
(225,1100,ls),
(254,1100,o),
(322,1102,o),
(351,1102,cs),
(672,1102,ls),
(702,1102,o),
(769,1100,o),
(798,1100,cs),
(857,1100,ls),
(972,1100,o),
(1024,1139,o),
(1024,1243,cs),
(1024,1284,o),
(1018,1333,o),
(1008,1366,c),
(18,1366,l),
(9,1318,o),
(7,1269,o),
(7,1232,cs),
(7,1196,o),
(9,1148,o),
(18,1100,c)
);
},
{
closed = 1;
nodes = (
(351,0,l),
(406,-9,o),
(467,-11,o),
(512,-11,cs),
(556,-11,o),
(617,-9,o),
(672,0,c),
(672,954,ls),
(672,1008,o),
(670,1046,o),
(670,1102,cs),
(670,1234,l),
(353,1234,l),
(353,1102,ls),
(353,1046,o),
(351,1008,o),
(351,954,cs)
);
}
);
width = 1019;
},
{
anchors = (
{
name = bottom;
pos = (485,0);
},
{
name = top;
pos = (483,1464);
}
);
layerId = "11405D41-D873-4173-B059-BD48D7789B90";
shapes = (
{
closed = 1;
nodes = (
(306,1244,ls),
(332,1244,o),
(388,1246,o),
(414,1246,cs),
(555,1246,ls),
(581,1246,o),
(639,1244,o),
(663,1244,cs),
(843,1244,ls),
(902,1244,o),
(929,1262,o),
(929,1307,cs),
(929,1327,o),
(925,1348,o),
(920,1366,c),
(48,1366,l),
(43,1345,o),
(41,1325,o),
(41,1305,cs),
(41,1285,o),
(43,1264,o),
(48,1244,c)
);
},
{
closed = 1;
nodes = (
(414,0,l),
(434,-4,o),
(461,-6,o),
(485,-6,cs),
(508,-6,o),
(535,-4,o),
(555,0,c),
(555,1098,ls),
(555,1152,o),
(555,1190,o),
(555,1246,cs),
(555,1305,l),
(414,1305,l),
(414,1246,ls),
(414,1190,o),
(414,1152,o),
(414,1098,cs)
);
}
);
width = 965;
},
{
anchors = (
{
name = bottom;
pos = (513,0);
},
{
name = top;
pos = (512,1464);
}
);
layerId = "E2DCE989-2657-47EA-91FE-B2106D1F3005";
shapes = (
{
closed = 1;
nodes = (
(234,1112,ls),
(263,1112,o),
(330,1114,o),
(359,1114,cs),
(665,1114,ls),
(695,1114,o),
(761,1112,o),
(790,1112,cs),
(859,1112,ls),
(969,1112,o),
(1019,1149,o),
(1019,1248,cs),
(1019,1288,o),
(1013,1334,o),
(1004,1366,c),
(24,1366,l),
(14,1321,o),
(12,1274,o),
(12,1238,cs),
(12,1203,o),
(14,1158,o),
(24,1112,c)
);
},
{
closed = 1;
nodes = (
(359,0,l),
(412,-9,o),
(469,-11,o),
(513,-11,cs),
(555,-11,o),
(612,-9,o),
(665,0,c),
(665,966,ls),
(665,1020,o),
(663,1058,o),
(663,1114,cs),
(663,1240,l),
(361,1240,l),
(361,1114,ls),
(361,1058,o),
(359,1020,o),
(359,966,cs)
);
}
);
width = 1019;
}
);
unicode = 84;
},
{
color = 4;
glyphname = U;
kernLeft = U;
kernRight = U;
lastChange = "2023-06-06 12:13:07 +0000";
layers = (
{
anchors = (
{
name = bottom;
pos = (666,0);
},
{
name = ogonek;
pos = (863,8);
},
{
name = top;
pos = (666,1464);
},
{
name = topright;
pos = (1152,1366);
}
);
layerId = "E2DCCAAC-30DB-413E-982C-2359C46E476F";
shapes = (
{
closed = 1;
nodes = (
(1152,1366,l),
(1130,1370,o),
(1101,1372,o),
(1073,1372,cs),
(1046,1372,o),
(1018,1370,o),
(998,1366,c),
(998,468,ls),
(998,229,o),
(876,103,o),
(666,103,cs),
(457,103,o),
(335,229,o),
(335,468,cs),
(335,1273,ls),
(335,1339,o),
(322,1372,o),
(255,1372,cs),
(193,1372,l),
(181,1360,l),
(181,466,ls),
(181,140,o),
(383,-24,o),
(665,-24,cs),
(950,-24,o),
(1152,140,o),
(1152,466,cs)
);
}
);
width = 1333;
},
{
anchors = (
{
name = bottom;
pos = (673,0);
},
{
name = ogonek;
pos = (908,8);
},
{
name = top;
pos = (668,1464);
},
{
name = topright;
pos = (1214,1366);
}
);
layerId = "33C6340C-19D4-4BAD-95FA-1AE5BEBDD22C";
shapes = (
{
closed = 1;
nodes = (
(1215,1366,l),
(1164,1375,o),
(1090,1377,o),
(1051,1377,cs),
(1009,1377,o),
(948,1375,o),
(895,1366,c),
(895,501,ls),
(895,318,o),
(835,225,o),
(674,225,cs),
(514,225,o),
(453,318,o),
(453,501,cs),
(453,1177,ls),
(453,1320,o),
(386,1379,o),
(263,1379,cs),
(146,1379,l),
(132,1365,l),
(132,504,ls),
(132,166,o),
(328,-29,o),
(674,-29,cs),
(1021,-29,o),
(1215,166,o),
(1215,504,cs)
);
}
);
width = 1347;
},
{
anchors = (
{
name = bottom;
pos = (667,0);
},
{
name = ogonek;
pos = (859,8);
},
{
name = top;
pos = (666,1464);
},
{
name = topright;
pos = (1147,1366);
}
);
layerId = "11405D41-D873-4173-B059-BD48D7789B90";
shapes = (
{
closed = 1;
nodes = (
(1148,1366,l),
(1128,1370,o),
(1103,1372,o),
(1076,1372,cs),
(1050,1372,o),
(1024,1370,o),
(1007,1366,c),
(1007,465,ls),
(1007,222,o),
(880,94,o),
(667,94,cs),
(454,94,o),
(326,222,o),
(326,465,cs),
(326,1280,ls),
(326,1340,o),
(317,1372,o),
(254,1372,cs),
(197,1372,l),
(185,1360,l),
(185,463,ls),
(185,138,o),
(388,-24,o),
(665,-24,cs),
(946,-24,o),
(1148,138,o),
(1148,463,cs)
);
}
);
width = 1333;
},
{
anchors = (
{
name = bottom;
pos = (674,0);
},
{
name = ogonek;
pos = (905,8);
},
{
name = top;
pos = (669,1464);
},
{
name = topright;
pos = (1210,1366);
}
);
layerId = "E2DCE989-2657-47EA-91FE-B2106D1F3005";
shapes = (
{
closed = 1;
nodes = (
(1209,1366,l),
(1160,1375,o),
(1090,1377,o),
(1053,1377,cs),
(1012,1377,o),
(953,1375,o),
(903,1366,c),
(903,498,ls),
(903,310,o),
(838,214,o),
(673,214,cs),
(508,214,o),
(444,310,o),
(444,498,cs),
(444,1186,ls),
(444,1321,o),
(381,1379,o),
(263,1379,cs),
(151,1379,l),
(138,1365,l),
(138,500,ls),
(138,164,o),
(332,-29,o),
(672,-29,cs),
(1014,-29,o),
(1209,164,o),
(1209,500,cs)
);
}
);
width = 1347;
}
);
metricRight = "=|";
unicode = 85;
},
{
color = 4;
glyphname = V;
lastChange = "2023-06-06 12:44:27 +0000";
layers = (
{
anchors = (
{
name = bottom;
pos = (561,0);
},
{
name = top;
pos = (570,1464);
}
);
layerId = "E2DCCAAC-30DB-413E-982C-2359C46E476F";
shapes = (
{
closed = 1;
nodes = (
(581,149,l),
(573,149,o),
(569,151,o),
(565,165,cs),
(537,264,o),
(498,411,o),
(472,499,cs),
(235,1304,ls),
(218,1362,o),
(189,1378,o),
(150,1378,cs),
(117,1378,o),
(84,1368,o),
(54,1353,c),
(441,72,ls),
(459,11,o),
(488,-8,o),
(549,-8,cs),
(589,-8,o),
(623,-6,o),
(663,-2,c),
(1071,1351,l),
(1065,1364,l),
(1047,1368,o),
(1021,1372,o),
(994,1372,cs),
(968,1372,o),
(946,1370,o),
(928,1366,c)
);
}
);
width = 1114;
},
{
anchors = (
{
name = bottom;
pos = (604,0);
},
{
name = top;
pos = (610,1464);
}
);
layerId = "33C6340C-19D4-4BAD-95FA-1AE5BEBDD22C";
shapes = (
{
closed = 1;
nodes = (
(633,267,l),
(622,267,o),
(616,271,o),
(612,292,cs),
(593,409,o),
(568,538,o),
(536,656,cs),
(382,1225,ls),
(354,1335,o),
(305,1383,o),
(210,1383,cs),
(140,1383,o),
(75,1363,o),
(17,1337,c),
(350,132,ls),
(382,19,o),
(446,-12,o),
(566,-12,cs),
(649,-12,o),
(747,-8,o),
(821,0,c),
(1196,1339,l),
(1183,1357,l),
(1139,1372,o),
(1075,1377,o),
(1036,1377,cs),
(994,1377,o),
(944,1377,o),
(897,1366,c)
);
}
);
width = 1213;
},
{
anchors = (
{
name = bottom;
pos = (562,0);
},
{
name = top;
pos = (571,1464);
}
);
layerId = "11405D41-D873-4173-B059-BD48D7789B90";
shapes = (
{
closed = 1;
nodes = (
(580,140,l),
(572,140,o),
(568,142,o),
(564,156,cs),
(536,253,o),
(494,402,o),
(469,487,cs),
(226,1310,ls),
(210,1364,o),
(182,1378,o),
(147,1378,cs),
(117,1378,o),
(86,1368,o),
(59,1354,c),
(451,67,ls),
(468,10,o),
(494,-8,o),
(551,-8,cs),
(588,-8,o),
(617,-6,o),
(654,-2,c),
(1066,1352,l),
(1060,1364,l),
(1044,1368,o),
(1021,1372,o),
(995,1372,cs),
(970,1372,o),
(950,1370,o),
(934,1366,c)
);
}
);
width = 1114;
},
{
anchors = (
{
name = bottom;
pos = (605,0);
},
{
name = top;
pos = (610,1464);
}
);
layerId = "E2DCE989-2657-47EA-91FE-B2106D1F3005";
shapes = (
{
closed = 1;
nodes = (
(632,257,l),
(621,257,o),
(616,260,o),
(612,281,cs),
(592,396,o),
(566,527,o),
(534,642,cs),
(373,1233,ls),
(346,1337,o),
(299,1383,o),
(209,1383,cs),
(141,1383,o),
(80,1363,o),
(25,1338,c),
(362,127,ls),
(393,18,o),
(454,-12,o),
(569,-12,cs),
(648,-12,o),
(740,-8,o),
(811,0,c),
(1189,1340,l),
(1177,1357,l),
(1134,1372,o),
(1074,1377,o),
(1036,1377,cs),
(996,1377,o),
(948,1377,o),
(903,1366,c)
);
}
);
width = 1213;
}
);
unicode = 86;
},
{
color = 4;
glyphname = W;
kernLeft = W;
kernRight = W;
lastChange = "2023-06-06 12:48:09 +0000";
layers = (
{
anchors = (
{
name = bottom;
pos = (828,0);
},
{
name = top;
pos = (828,1464);
}
);
layerId = "E2DCCAAC-30DB-413E-982C-2359C46E476F";
shapes = (
{
closed = 1;
nodes = (
(336,75,ls),
(351,4,o),
(396,-8,o),
(444,-8,cs),
(480,-8,o),
(541,-6,o),
(579,0,c),
(720,666,ls),
(746,786,o),
(784,980,o),
(820,1176,c),
(832,1176,l),
(867,980,o),
(904,783,o),
(926,666,cs),
(1038,73,ls),
(1050,4,o),
(1087,-8,o),
(1134,-8,cs),
(1172,-8,o),
(1239,-6,o),
(1279,2,c),
(1577,1353,l),
(1569,1364,l),
(1545,1370,o),
(1518,1372,o),
(1494,1372,cs),
(1471,1372,o),
(1444,1370,o),
(1424,1366,c),
(1248,530,ls),
(1229,441,o),
(1192,255,o),
(1171,126,c),
(1160,126,o),
(1158,128,o),
(1154,147,cs),
(928,1336,l),
(906,1341,o),
(857,1343,o),
(828,1343,cs),
(802,1343,o),
(756,1341,o),
(727,1336,c),
(479,126,l),
(469,126,o),
(467,126,o),
(463,147,cs),
(446,243,o),
(410,441,o),
(394,529,cs),
(246,1297,ls),
(235,1355,o),
(214,1378,o),
(166,1378,cs),
(138,1378,o),
(112,1376,o),
(77,1359,c)
);
}
);
width = 1641;
},
{
anchors = (
{
name = bottom;
pos = (905,0);
},
{
name = top;
pos = (905,1464);
}
);
layerId = "33C6340C-19D4-4BAD-95FA-1AE5BEBDD22C";
shapes = (
{
closed = 1;
nodes = (
(266,133,ls),
(291,4,o),
(367,-12,o),
(470,-12,cs),
(557,-12,o),
(661,-6,o),
(737,2,c),
(828,565,ls),
(854,724,o),
(879,903,o),
(893,1029,c),
(909,1029,l),
(919,903,o),
(942,722,o),
(966,565,cs),
(1034,133,ls),
(1054,4,o),
(1134,-12,o),
(1229,-12,cs),
(1313,-12,o),
(1429,-6,o),
(1502,2,c),
(1767,1337,l),
(1751,1357,l),
(1709,1370,o),
(1650,1377,o),
(1600,1377,cs),
(1556,1377,o),
(1504,1375,o),
(1457,1366,c),
(1343,695,ls),
(1320,559,o),
(1295,377,o),
(1284,267,c),
(1272,267,o),
(1266,267,o),
(1262,294,cs),
(1109,1340,l),
(1049,1351,o),
(970,1355,o),
(905,1355,cs),
(842,1355,o),
(763,1351,o),
(700,1340,c),
(535,267,l),
(521,267,o),
(517,269,o),
(515,294,cs),
(506,390,o),
(481,561,o),
(460,691,cs),
(376,1208,ls),
(355,1345,o),
(311,1383,o),
(199,1383,cs),
(142,1383,o),
(77,1367,o),
(30,1347,c)
);
}
);
width = 1807;
},
{
anchors = (
{
name = bottom;
pos = (829,0);
},
{
name = top;
pos = (829,1464);
}
);
layerId = "11405D41-D873-4173-B059-BD48D7789B90";
shapes = (
{
closed = 1;
nodes = (
(344,71,ls),
(358,4,o),
(401,-8,o),
(445,-8,cs),
(478,-8,o),
(536,-6,o),
(571,0,c),
(717,674,ls),
(742,791,o),
(782,986,o),
(820,1187,c),
(831,1187,l),
(868,986,o),
(906,787,o),
(928,674,cs),
(1044,69,ls),
(1056,4,o),
(1089,-8,o),
(1133,-8,cs),
(1168,-8,o),
(1232,-6,o),
(1269,2,c),
(1571,1354,l),
(1563,1364,l),
(1541,1370,o),
(1516,1372,o),
(1494,1372,cs),
(1473,1372,o),
(1448,1370,o),
(1430,1366,c),
(1250,517,ls),
(1232,432,o),
(1193,246,o),
(1169,116,c),
(1159,116,o),
(1157,118,o),
(1153,136,cs),
(920,1336,l),
(900,1340,o),
(853,1342,o),
(827,1342,cs),
(804,1342,o),
(761,1340,o),
(734,1336,c),
(479,116,l),
(469,116,o),
(467,115,o),
(463,136,cs),
(444,232,o),
(409,432,o),
(392,517,cs),
(238,1304,ls),
(228,1356,o),
(209,1378,o),
(165,1378,cs),
(140,1378,o),
(117,1376,o),
(83,1360,c)
);
}
);
width = 1641;
},
{
anchors = (
{
name = bottom;
pos = (904,0);
},
{
name = top;
pos = (904,1464);
}
);
layerId = "E2DCE989-2657-47EA-91FE-B2106D1F3005";
shapes = (
{
closed = 1;
nodes = (
(275,128,ls),
(299,4,o),
(373,-12,o),
(473,-12,cs),
(555,-12,o),
(656,-6,o),
(729,2,c),
(824,574,ls),
(850,729,o),
(876,910,o),
(893,1042,c),
(908,1042,l),
(921,910,o),
(943,727,o),
(968,574,cs),
(1040,128,ls),
(1060,4,o),
(1136,-12,o),
(1227,-12,cs),
(1308,-12,o),
(1420,-6,o),
(1491,2,c),
(1761,1338,l),
(1746,1357,l),
(1705,1370,o),
(1649,1377,o),
(1600,1377,cs),
(1558,1377,o),
(1508,1375,o),
(1462,1366,c),
(1345,680,ls),
(1323,549,o),
(1295,369,o),
(1281,255,c),
(1269,255,o),
(1263,255,o),
(1259,281,cs),
(1099,1340,l),
(1042,1350,o),
(966,1354,o),
(904,1354,cs),
(844,1354,o),
(769,1350,o),
(709,1340,c),
(536,255,l),
(522,255,o),
(518,256,o),
(516,281,cs),
(506,377,o),
(480,550,o),
(459,676,cs),
(369,1216,ls),
(347,1346,o),
(307,1383,o),
(199,1383,cs),
(144,1383,o),
(81,1368,o),
(35,1348,c)
);
}
);
width = 1807;
}
);
unicode = 87;
},
{
color = 4;
glyphname = X;
lastChange = "2023-06-06 12:49:30 +0000";
layers = (
{
anchors = (
{
name = top;
pos = (578,1464);
}
);
layerId = "E2DCCAAC-30DB-413E-982C-2359C46E476F";
shapes = (
{
closed = 1;
nodes = (
(897,51,l),
(926,4,o),
(960,-12,o),
(993,-12,cs),
(1025,-12,o),
(1063,-1,o),
(1097,24,c),
(303,1315,ls),
(273,1362,o),
(240,1378,o),
(207,1378,cs),
(175,1378,o),
(137,1368,o),
(103,1343,c)
);
},
{
closed = 1;
nodes = (
(569,819,l),
(505,752,l),
(46,19,l),
(52,7,l),
(68,-2,o),
(100,-8,o),
(132,-8,cs),
(154,-8,o),
(188,-4,o),
(200,0,c),
(582,628,l),
(646,693,l),
(1053,1347,l),
(1047,1360,l),
(1031,1368,o),
(1000,1374,o),
(968,1374,cs),
(946,1374,o),
(915,1370,o),
(904,1366,c)
);
}
);
width = 1143;
},
{
anchors = (
{
name = top;
pos = (612,1464);
}
);
layerId = "33C6340C-19D4-4BAD-95FA-1AE5BEBDD22C";
shapes = (
{
closed = 1;
nodes = (
(801,107,l),
(862,11,o),
(916,-19,o),
(1007,-19,cs),
(1074,-19,o),
(1152,7,o),
(1215,50,c),
(460,1261,ls),
(400,1355,o),
(348,1385,o),
(257,1385,cs),
(191,1385,o),
(112,1359,o),
(49,1316,c)
);
},
{
closed = 1;
nodes = (
(614,939,l),
(484,794,l),
(17,33,l),
(25,15,l),
(70,0,o),
(135,-12,o),
(196,-12,cs),
(251,-12,o),
(296,-8,o),
(330,0,c),
(619,487,l),
(749,633,l),
(1175,1335,l),
(1167,1351,l),
(1125,1366,o),
(1060,1378,o),
(999,1378,cs),
(944,1378,o),
(899,1374,o),
(866,1366,c)
);
}
);
width = 1232;
},
{
anchors = (
{
name = top;
pos = (579,1464);
}
);
layerId = "11405D41-D873-4173-B059-BD48D7789B90";
shapes = (
{
closed = 1;
nodes = (
(908,47,l),
(935,4,o),
(967,-12,o),
(996,-12,cs),
(1025,-12,o),
(1060,-2,o),
(1092,22,c),
(294,1319,ls),
(267,1362,o),
(235,1378,o),
(206,1378,cs),
(177,1378,o),
(142,1368,o),
(110,1345,c)
);
},
{
closed = 1;
nodes = (
(568,810,l),
(509,749,l),
(51,18,l),
(57,6,l),
(71,-2,o),
(100,-8,o),
(130,-8,cs),
(150,-8,o),
(183,-4,o),
(193,0,c),
(583,638,l),
(642,697,l),
(1048,1348,l),
(1042,1360,l),
(1028,1368,o),
(999,1374,o),
(970,1374,cs),
(950,1374,o),
(920,1370,o),
(911,1366,c)
);
}
);
width = 1143;
},
{
anchors = (
{
name = top;
pos = (613,1464);
}
);
layerId = "E2DCE989-2657-47EA-91FE-B2106D1F3005";
shapes = (
{
closed = 1;
nodes = (
(814,102,l),
(872,11,o),
(924,-19,o),
(1010,-19,cs),
(1073,-19,o),
(1148,6,o),
(1209,48,c),
(450,1266,ls),
(393,1355,o),
(342,1385,o),
(256,1385,cs),
(194,1385,o),
(119,1360,o),
(58,1319,c)
);
},
{
closed = 1;
nodes = (
(614,928,l),
(489,790,l),
(23,32,l),
(31,14,l),
(74,0,o),
(136,-12,o),
(194,-12,cs),
(247,-12,o),
(290,-8,o),
(323,0,c),
(619,499,l),
(744,638,l),
(1168,1336,l),
(1160,1352,l),
(1120,1366,o),
(1059,1378,o),
(1001,1378,cs),
(948,1378,o),
(904,1374,o),
(874,1366,c)
);
}
);
width = 1232;
}
);
metricRight = "=|";
unicode = 88;
},
{
color = 4;
glyphname = Y;
kernLeft = Y;
kernRight = Y;
lastChange = "2023-06-06 12:40:20 +0000";
layers = (
{
anchors = (
{
name = bottom;
pos = (482,0);
},
{
name = top;
pos = (489,1464);
}
);
layerId = "E2DCCAAC-30DB-413E-982C-2359C46E476F";
shapes = (
{
closed = 1;
nodes = (
(407,0,l),
(426,-4,o),
(455,-6,o),
(482,-6,cs),
(510,-6,o),
(538,-4,o),
(560,0,c),
(560,542,l),
(407,542,l)
);
},
{
closed = 1;
nodes = (
(580,843,ls),
(565,804,o),
(518,681,o),
(497,613,c),
(487,613,l),
(467,679,o),
(433,779,o),
(407,842,cs),
(214,1307,ls),
(195,1355,o),
(172,1380,o),
(130,1380,cs),
(103,1380,o),
(73,1373,o),
(30,1349,c),
(427,403,l),
(542,403,l),
(937,1351,l),
(930,1364,l),
(907,1370,o),
(883,1374,o),
(856,1374,cs),
(835,1374,o),
(809,1372,o),
(788,1366,c)
);
}
);
width = 963;
},
{
anchors = (
{
name = bottom;
pos = (544,0);
},
{
name = top;
pos = (549,1464);
}
);
layerId = "33C6340C-19D4-4BAD-95FA-1AE5BEBDD22C";
shapes = (
{
closed = 1;
nodes = (
(382,0,l),
(433,-9,o),
(505,-11,o),
(544,-11,cs),
(587,-11,o),
(650,-9,o),
(703,0,c),
(703,612,l),
(382,612,l)
);
},
{
closed = 1;
nodes = (
(655,1027,ls),
(619,936,o),
(582,830,o),
(557,729,c),
(545,729,l),
(517,837,o),
(487,932,o),
(454,1016,cs),
(359,1255,ls),
(322,1345,o),
(280,1382,o),
(190,1382,cs),
(122,1382,o),
(50,1359,o),
(-5,1328,c),
(402,382,l),
(687,382,l),
(1090,1337,l),
(1077,1355,l),
(1034,1370,o),
(974,1378,o),
(920,1378,cs),
(878,1378,o),
(834,1376,o),
(790,1366,c)
);
}
);
width = 1085;
},
{
anchors = (
{
name = bottom;
pos = (482,0);
},
{
name = top;
pos = (490,1464);
}
);
layerId = "11405D41-D873-4173-B059-BD48D7789B90";
shapes = (
{
closed = 1;
nodes = (
(414,0,l),
(431,-4,o),
(456,-6,o),
(482,-6,cs),
(509,-6,o),
(535,-4,o),
(554,0,c),
(554,537,l),
(414,537,l)
);
},
{
closed = 1;
nodes = (
(581,829,ls),
(564,786,o),
(518,670,o),
(498,604,c),
(488,604,l),
(468,667,o),
(432,767,o),
(406,829,cs),
(205,1311,ls),
(187,1355,o),
(166,1380,o),
(127,1380,cs),
(104,1380,o),
(77,1374,o),
(35,1350,c),
(434,404,l),
(536,404,l),
(932,1352,l),
(926,1364,l),
(905,1370,o),
(883,1374,o),
(858,1374,cs),
(839,1374,o),
(814,1372,o),
(795,1366,c)
);
}
);
width = 963;
},
{
anchors = (
{
name = bottom;
pos = (545,0);
},
{
name = top;
pos = (550,1464);
}
);
layerId = "E2DCE989-2657-47EA-91FE-B2106D1F3005";
shapes = (
{
closed = 1;
nodes = (
(391,0,l),
(439,-9,o),
(506,-11,o),
(545,-11,cs),
(586,-11,o),
(646,-9,o),
(696,0,c),
(696,606,l),
(391,606,l)
);
},
{
closed = 1;
nodes = (
(658,1011,ls),
(624,924,o),
(582,817,o),
(558,719,c),
(546,719,l),
(518,823,o),
(486,918,o),
(453,1001,cs),
(350,1260,ls),
(316,1346,o),
(274,1382,o),
(188,1382,cs),
(124,1382,o),
(55,1360,o),
(0,1329,c),
(410,383,l),
(681,383,l),
(1085,1338,l),
(1073,1356,l),
(1032,1370,o),
(974,1378,o),
(922,1378,cs),
(883,1378,o),
(839,1376,o),
(797,1366,c)
);
}
);
width = 1085;
}
);
unicode = 89;
},
{
color = 4;
glyphname = Z;
kernLeft = Z;
kernRight = Z;
lastChange = "2023-06-06 12:35:44 +0000";
layers = (
{
anchors = (
{
name = bottom;
pos = (557,0);
},
{
name = top;
pos = (563,1464);
}
);
layerId = "E2DCCAAC-30DB-413E-982C-2359C46E476F";
shapes = (
{
closed = 1;
nodes = (
(129,180,ls),
(113,153,o),
(106,126,o),
(106,103,cs),
(106,85,o),
(108,66,o),
(129,0,c),
(885,0,ls),
(970,0,o),
(999,35,o),
(999,91,cs),
(999,118,o),
(993,145,o),
(985,170,c),
(932,146,o),
(853,137,o),
(743,137,cs),
(482,137,ls),
(432,137,o),
(357,135,o),
(273,127,c),
(267,133,l),
(319,208,o),
(379,292,o),
(425,363,cs),
(958,1190,ls),
(974,1217,o),
(982,1240,o),
(982,1261,cs),
(982,1279,o),
(978,1301,o),
(959,1366,c),
(168,1366,l),
(159,1339,o),
(155,1312,o),
(155,1284,cs),
(155,1267,o),
(157,1248,o),
(162,1231,c),
(502,1231,ls),
(552,1231,o),
(768,1235,o),
(816,1245,c),
(822,1239,l),
(763,1155,o),
(711,1086,o),
(668,1018,cs)
);
}
);
width = 1105;
},
{
anchors = (
{
name = bottom;
pos = (571,0);
},
{
name = top;
pos = (577,1464);
}
);
layerId = "33C6340C-19D4-4BAD-95FA-1AE5BEBDD22C";
shapes = (
{
closed = 1;
nodes = (
(113,310,ls),
(87,275,o),
(75,230,o),
(75,192,cs),
(75,165,o),
(79,141,o),
(110,0,c),
(875,0,ls),
(997,0,o),
(1084,54,o),
(1084,169,cs),
(1084,219,o),
(1075,274,o),
(1063,313,c),
(1009,287,o),
(935,266,o),
(837,266,cs),
(726,266,ls),
(641,266,o),
(512,259,o),
(426,252,c),
(420,258,l),
(472,312,o),
(537,393,o),
(576,446,cs),
(1022,1058,ls),
(1049,1097,o),
(1057,1134,o),
(1057,1170,cs),
(1057,1194,o),
(1055,1216,o),
(1013,1366,c),
(128,1366,l),
(114,1312,o),
(106,1268,o),
(106,1213,cs),
(106,1178,o),
(108,1144,o),
(118,1106,c),
(405,1106,ls),
(486,1106,o),
(620,1111,o),
(713,1123,c),
(719,1117,l),
(669,1063,o),
(597,974,o),
(558,921,cs)
);
}
);
width = 1159;
},
{
anchors = (
{
name = bottom;
pos = (558,0);
},
{
name = top;
pos = (564,1464);
}
);
layerId = "11405D41-D873-4173-B059-BD48D7789B90";
shapes = (
{
closed = 1;
nodes = (
(132,170,ls),
(117,144,o),
(110,118,o),
(110,96,cs),
(110,79,o),
(112,61,o),
(132,0,c),
(888,0,ls),
(970,0,o),
(995,34,o),
(995,85,cs),
(995,110,o),
(989,136,o),
(981,159,c),
(928,136,o),
(849,128,o),
(738,128,cs),
(466,128,ls),
(418,128,o),
(347,126,o),
(263,118,c),
(257,124,l),
(309,200,o),
(369,284,o),
(416,357,cs),
(955,1200,ls),
(971,1226,o),
(979,1248,o),
(979,1268,cs),
(979,1285,o),
(974,1307,o),
(957,1366,c),
(173,1366,l),
(165,1341,o),
(161,1315,o),
(161,1289,cs),
(161,1274,o),
(163,1256,o),
(167,1240,c),
(511,1240,ls),
(559,1240,o),
(781,1244,o),
(826,1254,c),
(832,1248,l),
(772,1162,o),
(722,1094,o),
(678,1025,cs)
);
}
);
width = 1105;
},
{
anchors = (
{
name = bottom;
pos = (572,0);
},
{
name = top;
pos = (578,1464);
}
);
layerId = "E2DCE989-2657-47EA-91FE-B2106D1F3005";
shapes = (
{
closed = 1;
nodes = (
(116,299,ls),
(91,265,o),
(79,221,o),
(79,184,cs),
(79,158,o),
(83,135,o),
(113,0,c),
(879,0,ls),
(998,0,o),
(1080,53,o),
(1080,162,cs),
(1080,210,o),
(1071,263,o),
(1059,300,c),
(1005,275,o),
(931,255,o),
(831,255,cs),
(707,255,ls),
(624,255,o),
(500,248,o),
(414,241,c),
(408,247,l),
(460,303,o),
(525,384,o),
(565,439,cs),
(1018,1069,ls),
(1046,1108,o),
(1053,1144,o),
(1053,1178,cs),
(1053,1201,o),
(1050,1223,o),
(1010,1366,c),
(134,1366,l),
(120,1315,o),
(113,1272,o),
(113,1219,cs),
(113,1186,o),
(115,1153,o),
(124,1117,c),
(415,1117,ls),
(494,1117,o),
(635,1122,o),
(724,1134,c),
(730,1128,l),
(680,1072,o),
(609,984,o),
(570,929,cs)
);
}
);
width = 1159;
}
);
metricRight = "=|";
unicode = 90;
},
{
color = 4;
glyphname = a;
kernLeft = a;
kernRight = a;
lastChange = "2023-06-08 10:56:22 +0000";
layers = (
{
anchors = (
{
name = bottom;
pos = (493,0);
},
{
name = ogonek;
pos = (829,-14);
},
{
name = top;
pos = (483,1084);
}
);
layerId = "E2DCCAAC-30DB-413E-982C-2359C46E476F";
shapes = (
{
closed = 1;
nodes = (
(102,124,o),
(196,-24,o),
(391,-24,cs),
(563,-24,o),
(693,108,o),
(762,189,c),
(737,324,l),
(653,175,o),
(517,102,o),
(411,102,cs),
(307,102,o),
(252,180,o),
(252,277,cs),
(252,404,o),
(340,477,o),
(479,477,cs),
(569,477,o),
(668,471,o),
(747,453,c),
(747,559,l),
(662,580,o),
(560,588,o),
(477,588,cs),
(254,588,o),
(102,488,o),
(102,266,cs)
);
},
{
closed = 1;
nodes = (
(847,110,o),
(840,173,o),
(840,257,cs),
(840,669,ls),
(840,885,o),
(738,1001,o),
(530,1001,cs),
(390,1001,o),
(238,952,o),
(138,908,c),
(138,867,o),
(162,815,o),
(189,792,c),
(295,839,o),
(407,875,o),
(515,875,cs),
(626,875,o),
(696,819,o),
(696,671,cs),
(696,207,l),
(697,103,o),
(730,22,o),
(829,-14,c),
(859,1,o),
(886,35,o),
(896,63,c)
);
}
);
width = 1007;
},
{
anchors = (
{
name = bottom;
pos = (510,0);
},
{
name = ogonek;
pos = (872,-16);
},
{
name = top;
pos = (500,1084);
}
);
layerId = "33C6340C-19D4-4BAD-95FA-1AE5BEBDD22C";
shapes = (
{
closed = 1;
nodes = (
(60,129,o),
(158,-29,o),
(364,-29,cs),
(544,-29,o),
(648,71,o),
(727,164,c),
(683,362,l),
(626,262,o),
(536,201,o),
(456,201,cs),
(399,201,o),
(364,240,o),
(364,294,cs),
(364,369,o),
(400,421,o),
(489,421,cs),
(542,421,o),
(635,421,o),
(693,408,c),
(693,606,l),
(620,620,o),
(516,621,o),
(456,621,cs),
(250,621,o),
(60,514,o),
(60,273,cs)
);
},
{
closed = 1;
nodes = (
(929,172,o),
(911,216,o),
(911,274,cs),
(911,681,ls),
(911,934,o),
(731,1022,o),
(556,1022,cs),
(427,1022,o),
(233,989,o),
(98,934,c),
(104,857,o),
(129,768,o),
(173,717,c),
(278,748,o),
(382,781,o),
(468,781,cs),
(558,781,o),
(599,737,o),
(599,654,cs),
(599,226,l),
(617,120,o),
(695,-13,o),
(872,-16,c),
(911,15,o),
(956,89,o),
(967,145,c)
);
}
);
width = 1026;
},
{
anchors = (
{
name = bottom;
pos = (492,0);
},
{
name = ogonek;
pos = (826,-14);
},
{
name = top;
pos = (482,1084);
}
);
layerId = "11405D41-D873-4173-B059-BD48D7789B90";
shapes = (
{
closed = 1;
nodes = (
(106,124,o),
(200,-24,o),
(394,-24,cs),
(565,-24,o),
(698,111,o),
(766,191,c),
(742,321,l),
(656,169,o),
(517,94,o),
(408,94,cs),
(301,94,o),
(245,175,o),
(245,276,cs),
(245,407,o),
(336,481,o),
(479,481,cs),
(572,481,o),
(672,475,o),
(752,457,c),
(752,555,l),
(666,577,o),
(564,585,o),
(479,585,cs),
(255,585,o),
(106,486,o),
(106,266,cs)
);
},
{
closed = 1;
nodes = (
(842,105,o),
(836,170,o),
(836,256,cs),
(836,668,ls),
(836,881,o),
(739,1000,o),
(529,1000,cs),
(388,1000,o),
(239,949,o),
(142,906,c),
(142,868,o),
(166,819,o),
(191,797,c),
(297,846,o),
(410,882,o),
(520,882,cs),
(632,882,o),
(704,825,o),
(704,672,cs),
(704,206,l),
(704,102,o),
(734,25,o),
(827,-14,c),
(856,0,o),
(882,31,o),
(892,57,c)
);
}
);
width = 1007;
},
{
anchors = (
{
name = bottom;
pos = (510,0);
},
{
name = ogonek;
pos = (870,-16);
},
{
name = top;
pos = (500,1084);
}
);
layerId = "E2DCE989-2657-47EA-91FE-B2106D1F3005";
shapes = (
{
closed = 1;
nodes = (
(65,129,o),
(163,-29,o),
(368,-29,cs),
(546,-29,o),
(653,75,o),
(731,167,c),
(689,358,l),
(630,255,o),
(536,192,o),
(453,192,cs),
(391,192,o),
(355,235,o),
(355,293,cs),
(355,372,o),
(396,426,o),
(489,426,cs),
(546,426,o),
(639,426,o),
(699,412,c),
(699,602,l),
(625,616,o),
(521,618,o),
(458,618,cs),
(251,618,o),
(65,512,o),
(65,273,cs)
);
},
{
closed = 1;
nodes = (
(923,167,o),
(906,213,o),
(906,273,cs),
(906,680,ls),
(906,929,o),
(732,1021,o),
(555,1021,cs),
(424,1021,o),
(234,985,o),
(103,932,c),
(108,858,o),
(133,772,o),
(175,723,c),
(280,756,o),
(386,790,o),
(473,790,cs),
(565,790,o),
(608,744,o),
(608,655,cs),
(608,225,l),
(625,119,o),
(699,-10,o),
(870,-16,c),
(907,14,o),
(951,84,o),
(962,138,c)
);
}
);
width = 1026;
}
);
unicode = 97;
},
{
color = 4;
glyphname = b;
kernLeft = h;
lastChange = "2023-06-08 12:25:51 +0000";
layers = (
{
anchors = (
{
name = bottom;
pos = (522,0);
},
{
name = top;
pos = (552,1520);
}
);
layerId = "E2DCCAAC-30DB-413E-982C-2359C46E476F";
shapes = (
{
closed = 1;
nodes = (
(322,1369,ls),
(322,1435,o),
(310,1470,o),
(243,1470,cs),
(189,1470,l),
(177,1458,l),
(177,50,l),
(322,50,l)
);
},
{
closed = 1;
nodes = (
(946,793,o),
(830,997,o),
(605,997,cs),
(437,997,o),
(312,880,o),
(262,804,c),
(285,672,l),
(343,779,o),
(462,868,o),
(583,868,cs),
(695,868,o),
(796,762,o),
(796,502,cs),
(796,227,o),
(670,100,o),
(524,100,cs),
(417,100,o),
(340,120,o),
(253,170,c),
(177,50,l),
(290,8,o),
(406,-14,o),
(525,-14,cs),
(737,-14,o),
(946,139,o),
(946,503,cs)
);
}
);
width = 1047;
},
{
anchors = (
{
name = bottom;
pos = (522,0);
},
{
name = top;
pos = (564,1520);
}
);
layerId = "33C6340C-19D4-4BAD-95FA-1AE5BEBDD22C";
shapes = (
{
closed = 1;
nodes = (
(425,1284,ls),
(425,1423,o),
(374,1472,o),
(251,1472,cs),
(133,1472,l),
(119,1458,l),
(119,50,l),
(425,50,l)
);
},
{
closed = 1;
nodes = (
(1010,805,o),
(892,1018,o),
(655,1018,cs),
(515,1018,o),
(416,957,o),
(335,877,c),
(379,641,l),
(428,732,o),
(504,769,o),
(562,767,cs),
(648,765,o),
(690,689,o),
(690,507,cs),
(690,321,o),
(639,206,o),
(517,206,cs),
(425,206,o),
(342,232,o),
(267,280,c),
(119,50,l),
(226,8,o),
(366,-18,o),
(511,-18,cs),
(817,-18,o),
(1012,188,o),
(1010,513,cs)
);
}
);
width = 1070;
},
{
anchors = (
{
name = bottom;
pos = (523,0);
},
{
name = top;
pos = (552,1520);
}
);
layerId = "11405D41-D873-4173-B059-BD48D7789B90";
shapes = (
{
closed = 1;
nodes = (
(315,1375,ls),
(315,1436,o),
(306,1470,o),
(243,1470,cs),
(194,1470,l),
(182,1458,l),
(182,50,l),
(315,50,l)
);
},
{
closed = 1;
nodes = (
(942,792,o),
(826,996,o),
(602,996,cs),
(432,996,o),
(305,874,o),
(258,799,c),
(279,674,l),
(338,783,o),
(460,876,o),
(585,876,cs),
(700,876,o),
(805,767,o),
(805,502,cs),
(805,220,o),
(673,92,o),
(525,92,cs),
(417,92,o),
(341,112,o),
(253,162,c),
(182,50,l),
(296,8,o),
(410,-14,o),
(527,-14,cs),
(732,-14,o),
(942,135,o),
(942,502,cs)
);
}
);
width = 1047;
},
{
anchors = (
{
name = bottom;
pos = (523,0);
},
{
name = top;
pos = (564,1520);
}
);
layerId = "E2DCE989-2657-47EA-91FE-B2106D1F3005";
shapes = (
{
closed = 1;
nodes = (
(417,1291,ls),
(417,1424,o),
(369,1472,o),
(251,1472,cs),
(139,1472,l),
(125,1458,l),
(125,50,l),
(417,50,l)
);
},
{
closed = 1;
nodes = (
(1006,804,o),
(888,1017,o),
(651,1017,cs),
(509,1017,o),
(408,950,o),
(330,871,c),
(371,643,l),
(422,736,o),
(501,778,o),
(564,776,cs),
(653,774,o),
(701,695,o),
(701,507,cs),
(701,312,o),
(642,196,o),
(518,196,cs),
(425,196,o),
(343,222,o),
(267,270,c),
(125,50,l),
(233,8,o),
(371,-18,o),
(513,-18,cs),
(811,-18,o),
(1008,183,o),
(1006,512,cs)
);
}
);
width = 1070;
}
);
unicode = 98;
},
{
color = 4;
glyphname = c;
kernLeft = c;
kernRight = c;
lastChange = "2023-06-08 11:20:44 +0000";
layers = (
{
anchors = (
{
name = bottom;
pos = (494,0);
},
{
name = top;
pos = (502,1084);
}
);
layerId = "E2DCCAAC-30DB-413E-982C-2359C46E476F";
shapes = (
{
closed = 1;
nodes = (
(734,629,o),
(753,627,o),
(774,627,cs),
(840,627,o),
(853,670,o),
(853,721,cs),
(853,826,o),
(760,1005,o),
(506,1005,cs),
(299,1005,o),
(104,844,o),
(104,483,cs),
(104,231,o),
(208,-24,o),
(494,-24,cs),
(635,-24,o),
(749,34,o),
(841,120,c),
(833,156,o),
(799,196,o),
(770,215,c),
(697,159,o),
(613,104,o),
(514,104,cs),
(355,104,o),
(259,227,o),
(259,483,cs),
(259,748,o),
(357,887,o),
(502,887,cs),
(670,887,o),
(718,750,o),
(711,634,c)
);
}
);
width = 939;
},
{
anchors = (
{
name = bottom;
pos = (501,0);
},
{
name = top;
pos = (504,1084);
}
);
layerId = "33C6340C-19D4-4BAD-95FA-1AE5BEBDD22C";
shapes = (
{
closed = 1;
nodes = (
(657,547,o),
(692,544,o),
(745,544,cs),
(833,544,o),
(898,591,o),
(898,696,cs),
(898,894,o),
(733,1028,o),
(508,1028,cs),
(289,1028,o),
(60,884,o),
(60,497,cs),
(60,177,o),
(213,-29,o),
(501,-29,cs),
(649,-29,o),
(801,30,o),
(890,124,c),
(876,185,o),
(822,269,o),
(772,298,c),
(709,253,o),
(630,214,o),
(552,214,cs),
(438,214,o),
(379,285,o),
(379,497,cs),
(379,706,o),
(409,796,o),
(502,796,cs),
(606,796,o),
(619,710,o),
(619,555,c)
);
}
);
width = 949;
},
{
anchors = (
{
name = bottom;
pos = (495,0);
},
{
name = top;
pos = (503,1084);
}
);
layerId = "11405D41-D873-4173-B059-BD48D7789B90";
shapes = (
{
closed = 1;
nodes = (
(741,635,o),
(758,633,o),
(777,633,cs),
(841,633,o),
(850,676,o),
(850,723,cs),
(850,821,o),
(763,1003,o),
(506,1003,cs),
(300,1003,o),
(107,841,o),
(107,482,cs),
(107,235,o),
(208,-24,o),
(494,-24,cs),
(635,-24,o),
(746,34,o),
(838,120,c),
(831,154,o),
(798,191,o),
(771,209,c),
(697,152,o),
(613,96,o),
(511,96,cs),
(349,96,o),
(250,223,o),
(250,482,cs),
(250,751,o),
(353,894,o),
(502,894,cs),
(676,894,o),
(727,753,o),
(719,640,c)
);
}
);
width = 939;
},
{
anchors = (
{
name = bottom;
pos = (502,0);
},
{
name = top;
pos = (505,1084);
}
);
layerId = "E2DCE989-2657-47EA-91FE-B2106D1F3005";
shapes = (
{
closed = 1;
nodes = (
(664,554,o),
(697,551,o),
(747,551,cs),
(833,551,o),
(894,599,o),
(894,699,cs),
(894,888,o),
(735,1025,o),
(508,1025,cs),
(290,1025,o),
(64,880,o),
(64,496,cs),
(64,182,o),
(213,-29,o),
(501,-29,cs),
(648,-29,o),
(796,30,o),
(885,124,c),
(873,183,o),
(819,263,o),
(772,291,c),
(708,244,o),
(629,204,o),
(548,204,cs),
(431,204,o),
(368,280,o),
(368,496,cs),
(368,710,o),
(404,804,o),
(502,804,cs),
(612,804,o),
(628,714,o),
(628,563,c)
);
}
);
width = 949;
}
);
unicode = 99;
},
{
color = 4;
glyphname = d;
kernLeft = d;
lastChange = "2023-06-08 11:17:08 +0000";
layers = (
{
anchors = (
{
name = bottom;
pos = (538,0);
},
{
name = top;
pos = (486,1520);
},
{
name = topright;
pos = (871,981);
}
);
layerId = "E2DCCAAC-30DB-413E-982C-2359C46E476F";
shapes = (
{
closed = 1;
nodes = (
(871,1369,ls),
(871,1435,o),
(859,1470,o),
(792,1470,cs),
(738,1470,l),
(726,1458,l),
(726,229,ls),
(726,122,o),
(753,24,o),
(859,-14,c),
(890,1,o),
(917,35,o),
(927,63,c),
(878,109,o),
(871,192,o),
(871,277,cs)
);
},
{
closed = 1;
nodes = (
(102,180,o),
(218,-24,o),
(437,-24,cs),
(620,-24,o),
(755,106,o),
(804,226,c),
(777,366,l),
(727,203,o),
(587,105,o),
(466,105,cs),
(355,105,o),
(252,211,o),
(252,478,cs),
(252,755,o),
(369,869,o),
(490,869,cs),
(609,869,o),
(713,793,o),
(790,734,c),
(798,866,l),
(702,940,o),
(596,997,o),
(475,997,cs),
(301,997,o),
(102,843,o),
(102,479,cs)
);
}
);
width = 1050;
},
{
anchors = (
{
name = bottom;
pos = (565,0);
},
{
name = top;
pos = (509,1520);
},
{
name = topright;
pos = (954,998);
}
);
layerId = "33C6340C-19D4-4BAD-95FA-1AE5BEBDD22C";
shapes = (
{
closed = 1;
nodes = (
(954,1284,ls),
(954,1423,o),
(908,1472,o),
(785,1472,cs),
(663,1472,l),
(649,1458,l),
(649,285,ls),
(649,118,o),
(739,-13,o),
(915,-16,c),
(954,15,o),
(999,89,o),
(1010,145,c),
(977,169,o),
(954,225,o),
(954,289,cs)
);
},
{
closed = 1;
nodes = (
(64,184,o),
(180,-29,o),
(423,-29,cs),
(620,-29,o),
(780,135,o),
(799,297,c),
(728,474,l),
(675,263,o),
(568,221,o),
(504,221,cs),
(435,221,o),
(384,300,o),
(384,485,cs),
(384,670,o),
(423,786,o),
(519,786,cs),
(584,786,o),
(668,733,o),
(746,670,c),
(796,892,l),
(707,945,o),
(603,1018,o),
(465,1018,cs),
(245,1018,o),
(64,831,o),
(64,487,cs)
);
}
);
width = 1077;
},
{
anchors = (
{
name = bottom;
pos = (537,0);
},
{
name = top;
pos = (485,1520);
},
{
name = topright;
pos = (866,980);
}
);
layerId = "11405D41-D873-4173-B059-BD48D7789B90";
shapes = (
{
closed = 1;
nodes = (
(866,1375,ls),
(866,1436,o),
(856,1470,o),
(793,1470,cs),
(744,1470,l),
(733,1458,l),
(733,225,ls),
(733,122,o),
(755,27,o),
(856,-14,c),
(886,0,o),
(912,31,o),
(922,57,c),
(871,105,o),
(866,189,o),
(866,276,cs)
);
},
{
closed = 1;
nodes = (
(106,180,o),
(222,-24,o),
(439,-24,cs),
(621,-24,o),
(754,104,o),
(805,221,c),
(782,358,l),
(732,199,o),
(589,96,o),
(464,96,cs),
(350,96,o),
(243,204,o),
(243,478,cs),
(243,761,o),
(366,875,o),
(489,875,cs),
(612,875,o),
(718,797,o),
(794,739,c),
(799,864,l),
(703,940,o),
(597,996,o),
(477,996,cs),
(306,996,o),
(106,844,o),
(106,478,cs)
);
}
);
width = 1050;
},
{
anchors = (
{
name = bottom;
pos = (564,0);
},
{
name = top;
pos = (507,1520);
},
{
name = topright;
pos = (948,997);
}
);
layerId = "E2DCE989-2657-47EA-91FE-B2106D1F3005";
shapes = (
{
closed = 1;
nodes = (
(949,1291,ls),
(949,1424,o),
(905,1472,o),
(787,1472,cs),
(671,1472,l),
(658,1458,l),
(658,280,ls),
(658,118,o),
(742,-9,o),
(912,-16,c),
(950,14,o),
(994,84,o),
(1005,138,c),
(970,164,o),
(949,222,o),
(949,288,cs)
);
},
{
closed = 1;
nodes = (
(68,184,o),
(184,-29,o),
(424,-29,cs),
(621,-29,o),
(779,133,o),
(801,291,c),
(735,464,l),
(682,258,o),
(571,211,o),
(501,211,cs),
(428,211,o),
(373,292,o),
(373,485,cs),
(373,677,o),
(418,793,o),
(518,793,cs),
(589,793,o),
(674,738,o),
(752,676,c),
(798,890,l),
(709,945,o),
(605,1017,o),
(467,1017,cs),
(250,1017,o),
(68,832,o),
(68,486,cs)
);
}
);
width = 1077;
}
);
unicode = 100;
},
{
color = 4;
glyphname = e;
kernLeft = c;
kernRight = e;
lastChange = "2023-06-08 11:21:56 +0000";
layers = (
{
anchors = (
{
name = bottom;
pos = (516,0);
},
{
name = ogonek;
pos = (670,0);
},
{
name = top;
pos = (510,1084);
}
);
layerId = "E2DCCAAC-30DB-413E-982C-2359C46E476F";
shapes = (
{
closed = 1;
nodes = (
(881,445,l),
(888,494,o),
(890,527,o),
(890,578,cs),
(890,814,o),
(761,1005,o),
(504,1005,cs),
(249,1005,o),
(104,788,o),
(104,492,cs),
(104,219,o),
(199,-24,o),
(498,-24,cs),
(635,-24,o),
(770,23,o),
(862,88,c),
(858,120,o),
(836,165,o),
(808,191,c),
(721,141,o),
(625,106,o),
(518,106,cs),
(322,106,o),
(261,262,o),
(261,479,cs),
(261,526,ls),
(261,745,o),
(346,891,o),
(504,891,cs),
(674,891,o),
(740,753,o),
(740,587,cs),
(740,559,l),
(194,559,l),
(194,445,l)
);
}
);
width = 1005;
},
{
anchors = (
{
name = bottom;
pos = (519,0);
},
{
name = ogonek;
pos = (717,0);
},
{
name = top;
pos = (510,1084);
}
);
layerId = "33C6340C-19D4-4BAD-95FA-1AE5BEBDD22C";
shapes = (
{
closed = 1;
nodes = (
(898,398,l),
(917,465,o),
(925,515,o),
(925,604,cs),
(925,845,o),
(771,1028,o),
(508,1028,cs),
(189,1028,o),
(60,793,o),
(60,492,cs),
(60,227,o),
(154,-29,o),
(505,-29,cs),
(647,-29,o),
(797,11,o),
(899,84,c),
(889,146,o),
(862,223,o),
(815,269,c),
(735,235,o),
(646,209,o),
(556,209,cs),
(395,209,o),
(374,330,o),
(374,467,cs),
(374,561,ls),
(374,728,o),
(408,806,o),
(506,806,cs),
(601,806,o),
(637,728,o),
(637,636,cs),
(637,613,l),
(260,613,l),
(260,398,l)
);
}
);
width = 993;
},
{
anchors = (
{
name = bottom;
pos = (516,0);
},
{
name = ogonek;
pos = (666,0);
},
{
name = top;
pos = (510,1084);
}
);
layerId = "11405D41-D873-4173-B059-BD48D7789B90";
shapes = (
{
closed = 1;
nodes = (
(880,449,l),
(886,496,o),
(887,528,o),
(887,576,cs),
(887,812,o),
(760,1003,o),
(504,1003,cs),
(253,1003,o),
(107,788,o),
(107,492,cs),
(107,218,o),
(203,-24,o),
(498,-24,cs),
(634,-24,o),
(768,24,o),
(859,88,c),
(856,118,o),
(834,161,o),
(808,185,c),
(720,134,o),
(624,98,o),
(515,98,cs),
(317,98,o),
(252,257,o),
(252,480,cs),
(252,523,ls),
(252,746,o),
(341,897,o),
(504,897,cs),
(679,897,o),
(748,755,o),
(748,583,cs),
(748,555,l),
(189,555,l),
(189,449,l)
);
}
);
width = 1005;
},
{
anchors = (
{
name = bottom;
pos = (519,0);
},
{
name = ogonek;
pos = (713,0);
},
{
name = top;
pos = (510,1084);
}
);
layerId = "E2DCE989-2657-47EA-91FE-B2106D1F3005";
shapes = (
{
closed = 1;
nodes = (
(896,402,l),
(914,467,o),
(921,516,o),
(921,602,cs),
(921,843,o),
(769,1025,o),
(508,1025,cs),
(195,1025,o),
(64,793,o),
(64,492,cs),
(64,226,o),
(159,-29,o),
(505,-29,cs),
(646,-29,o),
(794,12,o),
(894,84,c),
(886,144,o),
(859,218,o),
(814,262,c),
(733,226,o),
(645,200,o),
(552,200,cs),
(389,200,o),
(363,324,o),
(363,468,cs),
(363,558,ls),
(363,729,o),
(403,813,o),
(506,813,cs),
(607,813,o),
(646,731,o),
(646,631,cs),
(646,608,l),
(254,608,l),
(254,402,l)
);
}
);
width = 993;
}
);
unicode = 101;
},
{
color = 4;
glyphname = f;
kernLeft = f;
kernRight = f;
lastChange = "2023-06-09 11:20:01 +0000";
layers = (
{
anchors = (
{
name = top;
pos = (442,1530);
}
);
layerId = "E2DCCAAC-30DB-413E-982C-2359C46E476F";
shapes = (
{
closed = 1;
nodes = (
(44,983,l),
(40,962,o),
(37,947,o),
(37,926,cs),
(37,905,o),
(40,888,o),
(44,869,c),
(286,873,l),
(644,869,l),
(649,888,o),
(651,905,o),
(651,926,cs),
(651,947,o),
(649,962,o),
(644,983,c),
(285,979,l)
);
},
{
closed = 1;
nodes = (
(216,0,l),
(237,-4,o),
(265,-6,o),
(288,-6,cs),
(312,-6,o),
(339,-4,o),
(361,0,c),
(361,911,l),
(347,1010,o),
(335,1098,o),
(335,1180,cs),
(335,1298,o),
(394,1365,o),
(491,1365,cs),
(549,1365,o),
(615,1351,o),
(674,1333,c),
(697,1358,o),
(710,1399,o),
(710,1435,c),
(653,1458,o),
(554,1478,o),
(483,1478,cs),
(294,1478,o),
(195,1351,o),
(195,1187,cs),
(195,1110,o),
(208,1015,o),
(216,915,c)
);
}
);
width = 641;
},
{
anchors = (
{
name = top;
pos = (468,1521);
}
);
layerId = "33C6340C-19D4-4BAD-95FA-1AE5BEBDD22C";
shapes = (
{
closed = 1;
nodes = (
(4,1000,l),
(-4,966,o),
(-8,926,o),
(-8,891,cs),
(-8,856,o),
(-4,813,o),
(4,778,c),
(324,784,l),
(721,778,l),
(729,813,o),
(733,856,o),
(733,891,cs),
(733,926,o),
(729,966,o),
(721,1000,c),
(328,996,l)
);
},
{
closed = 1;
nodes = (
(176,0,l),
(223,-8,o),
(277,-11,o),
(326,-11,cs),
(378,-11,o),
(433,-8,o),
(481,0,c),
(481,866,l),
(471,940,o),
(449,1034,o),
(449,1109,cs),
(449,1199,o),
(498,1245,o),
(583,1245,cs),
(638,1245,o),
(698,1229,o),
(738,1219,c),
(779,1261,o),
(807,1354,o),
(805,1425,c),
(736,1451,o),
(624,1480,o),
(499,1480,cs),
(290,1480,o),
(150,1330,o),
(150,1131,cs),
(150,1040,o),
(168,955,o),
(176,868,c)
);
}
);
width = 724;
},
{
anchors = (
{
name = top;
pos = (446,1530);
}
);
layerId = "11405D41-D873-4173-B059-BD48D7789B90";
shapes = (
{
closed = 1;
nodes = (
(50,982,l),
(46,962,o),
(44,948,o),
(44,929,cs),
(44,909,o),
(46,893,o),
(50,876,c),
(286,880,l),
(644,876,l),
(649,893,o),
(651,909,o),
(651,929,cs),
(651,948,o),
(649,962,o),
(644,982,c),
(285,978,l)
);
},
{
closed = 1;
nodes = (
(222,0,l),
(241,-4,o),
(267,-6,o),
(288,-6,cs),
(310,-6,o),
(335,-4,o),
(355,0,c),
(355,915,l),
(341,1015,o),
(329,1103,o),
(329,1185,cs),
(329,1306,o),
(389,1374,o),
(487,1374,cs),
(545,1374,o),
(612,1360,o),
(672,1342,c),
(694,1365,o),
(706,1403,o),
(706,1436,c),
(650,1458,o),
(552,1478,o),
(485,1478,cs),
(297,1478,o),
(202,1352,o),
(202,1191,cs),
(202,1115,o),
(214,1019,o),
(222,919,c)
);
}
);
width = 641;
},
{
anchors = (
{
name = top;
pos = (466,1522);
}
);
layerId = "E2DCE989-2657-47EA-91FE-B2106D1F3005";
shapes = (
{
closed = 1;
nodes = (
(11,999,l),
(3,966,o),
(-1,927,o),
(-1,894,cs),
(-1,861,o),
(3,819,o),
(11,786,c),
(323,792,l),
(721,786,l),
(729,819,o),
(733,861,o),
(733,894,cs),
(733,927,o),
(729,966,o),
(721,999,c),
(328,995,l)
);
},
{
closed = 1;
nodes = (
(183,0,l),
(227,-8,o),
(279,-11,o),
(325,-11,cs),
(375,-11,o),
(427,-8,o),
(473,0,c),
(473,870,l),
(463,946,o),
(442,1040,o),
(442,1115,cs),
(442,1208,o),
(492,1256,o),
(577,1256,cs),
(633,1256,o),
(694,1240,o),
(735,1229,c),
(775,1269,o),
(802,1358,o),
(800,1426,c),
(732,1451,o),
(621,1480,o),
(501,1480,cs),
(293,1480,o),
(157,1331,o),
(157,1136,cs),
(157,1046,o),
(175,960,o),
(183,872,c)
);
}
);
width = 724;
}
);
unicode = 102;
},
{
color = 4;
glyphname = g;
kernLeft = d;
lastChange = "2023-06-08 11:25:13 +0000";
layers = (
{
anchors = (
{
name = bottom;
pos = (511,-418);
},
{
name = top;
pos = (525,1084);
}
);
layerId = "E2DCCAAC-30DB-413E-982C-2359C46E476F";
shapes = (
{
closed = 1;
nodes = (
(919,946,o),
(892,980,o),
(861,995,c),
(755,957,o),
(731,859,o),
(731,752,c),
(731,0,ls),
(731,-170,o),
(696,-320,o),
(461,-320,cs),
(388,-320,o),
(270,-296,o),
(188,-256,c),
(164,-283,o),
(147,-332,o),
(146,-372,c),
(231,-408,o),
(354,-440,o),
(476,-440,cs),
(621,-440,o),
(727,-383,o),
(782,-315,cs),
(846,-237,o),
(873,-126,o),
(873,76,cs),
(873,704,ls),
(873,789,o),
(880,872,o),
(929,918,c)
);
},
{
closed = 1;
nodes = (
(102,185,o),
(218,-16,o),
(443,-16,cs),
(611,-16,o),
(738,106,o),
(787,184,c),
(763,311,l),
(706,203,o),
(586,113,o),
(464,113,cs),
(349,113,o),
(252,221,o),
(252,488,cs),
(252,763,o),
(365,877,o),
(494,877,cs),
(609,877,o),
(728,801,o),
(794,712,c),
(810,845,l),
(734,927,o),
(637,1005,o),
(474,1005,cs),
(301,1005,o),
(102,850,o),
(102,489,cs)
);
}
);
width = 1047;
},
{
anchors = (
{
name = bottom;
pos = (527,-418);
},
{
name = top;
pos = (551,1084);
}
);
layerId = "33C6340C-19D4-4BAD-95FA-1AE5BEBDD22C";
shapes = (
{
closed = 1;
nodes = (
(1004,909,o),
(956,984,o),
(917,1014,c),
(741,1011,o),
(651,880,o),
(651,714,c),
(651,-7,ls),
(651,-130,o),
(595,-210,o),
(449,-210,cs),
(361,-210,o),
(265,-188,o),
(179,-150,c),
(135,-201,o),
(102,-303,o),
(102,-376,c),
(206,-415,o),
(352,-442,o),
(478,-442,cs),
(638,-442,o),
(774,-397,o),
(853,-296,cs),
(916,-216,o),
(956,-99,o),
(956,182,cs),
(956,709,ls),
(956,773,o),
(979,830,o),
(1012,854,c)
);
},
{
closed = 1;
nodes = (
(64,193,o),
(180,-20,o),
(424,-20,cs),
(564,-20,o),
(694,64,o),
(760,177,c),
(716,394,l),
(664,286,o),
(582,231,o),
(502,231,cs),
(434,231,o),
(384,310,o),
(384,495,cs),
(384,681,o),
(423,795,o),
(520,795,cs),
(592,795,o),
(688,718,o),
(765,573,c),
(815,828,l),
(765,915,o),
(660,1028,o),
(465,1028,cs),
(247,1028,o),
(64,841,o),
(64,497,cs)
);
}
);
width = 1072;
},
{
anchors = (
{
name = bottom;
pos = (510,-418);
},
{
name = top;
pos = (523,1084);
}
);
layerId = "11405D41-D873-4173-B059-BD48D7789B90";
shapes = (
{
closed = 1;
nodes = (
(913,949,o),
(887,980,o),
(857,994,c),
(756,953,o),
(737,858,o),
(737,755,c),
(737,0,ls),
(737,-173,o),
(704,-328,o),
(462,-328,cs),
(390,-328,o),
(270,-304,o),
(188,-264,c),
(166,-289,o),
(151,-334,o),
(149,-372,c),
(233,-408,o),
(354,-440,o),
(476,-440,cs),
(620,-440,o),
(723,-382,o),
(777,-316,cs),
(841,-238,o),
(867,-128,o),
(867,68,cs),
(867,704,ls),
(867,790,o),
(872,875,o),
(923,923,c)
);
},
{
closed = 1;
nodes = (
(106,184,o),
(221,-16,o),
(444,-16,cs),
(615,-16,o),
(741,109,o),
(789,184,c),
(767,305,l),
(709,197,o),
(586,104,o),
(461,104,cs),
(343,104,o),
(243,214,o),
(243,488,cs),
(243,769,o),
(361,883,o),
(492,883,cs),
(610,883,o),
(731,807,o),
(796,722,c),
(810,846,l),
(732,928,o),
(635,1003,o),
(474,1003,cs),
(305,1003,o),
(106,850,o),
(106,488,cs)
);
}
);
width = 1047;
},
{
anchors = (
{
name = bottom;
pos = (527,-418);
},
{
name = top;
pos = (549,1084);
}
);
layerId = "E2DCE989-2657-47EA-91FE-B2106D1F3005";
shapes = (
{
closed = 1;
nodes = (
(998,913,o),
(951,984,o),
(913,1013,c),
(743,1006,o),
(659,879,o),
(659,718,c),
(659,-7,ls),
(659,-134,o),
(605,-220,o),
(450,-220,cs),
(363,-220,o),
(265,-198,o),
(180,-160,c),
(137,-208,o),
(106,-305,o),
(106,-376,c),
(209,-415,o),
(352,-442,o),
(478,-442,cs),
(638,-442,o),
(771,-396,o),
(848,-297,cs),
(911,-217,o),
(950,-101,o),
(950,172,cs),
(950,709,ls),
(950,774,o),
(971,834,o),
(1006,860,c)
);
},
{
closed = 1;
nodes = (
(68,192,o),
(184,-20,o),
(425,-20,cs),
(569,-20,o),
(699,68,o),
(764,177,c),
(721,387,l),
(669,279,o),
(583,221,o),
(498,221,cs),
(427,221,o),
(373,302,o),
(373,495,cs),
(373,688,o),
(418,802,o),
(518,802,cs),
(594,802,o),
(693,725,o),
(768,585,c),
(816,829,l),
(764,916,o),
(658,1025,o),
(466,1025,cs),
(252,1025,o),
(68,842,o),
(68,496,cs)
);
}
);
width = 1072;
}
);
unicode = 103;
},
{
color = 4;
glyphname = h;
kernLeft = h;
kernRight = h;
lastChange = "2023-06-08 12:23:51 +0000";
layers = (
{
anchors = (
{
name = bottom;
pos = (553,0);
},
{
name = top;
pos = (550,1520);
}
);
layerId = "E2DCCAAC-30DB-413E-982C-2359C46E476F";
shapes = (
{
closed = 1;
nodes = (
(322,1369,ls),
(322,1435,o),
(310,1470,o),
(243,1470,cs),
(189,1470,l),
(177,1458,l),
(177,0,l),
(196,-4,o),
(220,-6,o),
(249,-6,cs),
(277,-6,o),
(303,-4,o),
(322,0,c)
);
},
{
closed = 1;
nodes = (
(924,685,ls),
(924,855,o),
(857,997,o),
(668,997,cs),
(522,997,o),
(368,919,o),
(282,810,c),
(282,653,l),
(348,769,o),
(508,863,o),
(631,863,cs),
(746,863,o),
(777,796,o),
(777,638,cs),
(777,85,ls),
(777,20,o),
(799,-12,o),
(855,-12,cs),
(889,-12,o),
(927,1,o),
(948,20,c),
(929,64,o),
(924,125,o),
(924,190,cs)
);
}
);
width = 1090;
},
{
anchors = (
{
name = bottom;
pos = (563,0);
},
{
name = top;
pos = (545,1520);
}
);
layerId = "33C6340C-19D4-4BAD-95FA-1AE5BEBDD22C";
shapes = (
{
closed = 1;
nodes = (
(425,1284,ls),
(425,1423,o),
(378,1472,o),
(255,1472,cs),
(133,1472,l),
(119,1458,l),
(119,0,l),
(167,-8,o),
(220,-11,o),
(270,-11,cs),
(326,-11,o),
(381,-8,o),
(425,0,c)
);
},
{
closed = 1;
nodes = (
(972,660,ls),
(972,869,o),
(874,1016,o),
(692,1016,cs),
(549,1016,o),
(443,929,o),
(350,837,c),
(350,564,l),
(410,689,o),
(511,736,o),
(573,736,cs),
(640,736,o),
(659,693,o),
(659,603,cs),
(659,177,ls),
(659,53,o),
(701,-16,o),
(826,-16,cs),
(904,-16,o),
(975,13,o),
(1021,51,c),
(985,102,o),
(972,172,o),
(972,250,cs)
);
}
);
width = 1086;
},
{
anchors = (
{
name = bottom;
pos = (552,0);
},
{
name = top;
pos = (550,1520);
}
);
layerId = "11405D41-D873-4173-B059-BD48D7789B90";
shapes = (
{
closed = 1;
nodes = (
(315,1375,ls),
(315,1436,o),
(306,1470,o),
(243,1470,cs),
(194,1470,l),
(182,1458,l),
(182,0,l),
(199,-4,o),
(221,-6,o),
(249,-6,cs),
(274,-6,o),
(298,-4,o),
(315,0,c)
);
},
{
closed = 1;
nodes = (
(920,687,ls),
(920,854,o),
(855,996,o),
(665,996,cs),
(519,996,o),
(364,918,o),
(278,808,c),
(278,660,l),
(344,775,o),
(507,872,o),
(634,872,cs),
(753,872,o),
(785,804,o),
(785,641,cs),
(785,78,ls),
(785,17,o),
(805,-12,o),
(856,-12,cs),
(887,-12,o),
(922,0,o),
(942,18,c),
(924,61,o),
(920,121,o),
(920,185,cs)
);
}
);
width = 1090;
},
{
anchors = (
{
name = bottom;
pos = (562,0);
},
{
name = top;
pos = (545,1520);
}
);
layerId = "E2DCE989-2657-47EA-91FE-B2106D1F3005";
shapes = (
{
closed = 1;
nodes = (
(417,1291,ls),
(417,1424,o),
(373,1472,o),
(255,1472,cs),
(139,1472,l),
(125,1458,l),
(125,0,l),
(170,-8,o),
(221,-11,o),
(270,-11,cs),
(322,-11,o),
(375,-8,o),
(417,0,c)
);
},
{
closed = 1;
nodes = (
(967,663,ls),
(967,868,o),
(872,1015,o),
(689,1015,cs),
(546,1015,o),
(438,928,o),
(345,835,c),
(345,572,l),
(406,696,o),
(510,747,o),
(577,747,cs),
(648,747,o),
(669,702,o),
(669,606,cs),
(669,168,ls),
(669,50,o),
(710,-16,o),
(829,-16,cs),
(903,-16,o),
(970,12,o),
(1015,49,c),
(980,98,o),
(967,168,o),
(967,245,cs)
);
}
);
width = 1086;
}
);
metricRight = n;
unicode = 104;
},
{
color = 4;
glyphname = k;
kernLeft = h;
kernRight = k;
lastChange = "2023-06-08 12:27:44 +0000";
layers = (
{
anchors = (
{
name = bottom;
pos = (532,0);
},
{
name = top;
pos = (532,1084);
}
);
layerId = "E2DCCAAC-30DB-413E-982C-2359C46E476F";
shapes = (
{
closed = 1;
nodes = (
(322,1369,ls),
(322,1435,o),
(310,1470,o),
(243,1470,cs),
(189,1470,l),
(177,1458,l),
(177,0,l),
(196,-4,o),
(220,-6,o),
(249,-6,cs),
(277,-6,o),
(303,-4,o),
(322,0,c)
);
},
{
closed = 1;
nodes = (
(761,358,ls),
(700,494,o),
(633,549,o),
(489,549,cs),
(247,549,l),
(247,435,l),
(314,441,ls),
(362,445,o),
(402,447,o),
(429,447,cs),
(542,447,o),
(580,414,o),
(630,300,cs),
(723,92,ls),
(751,28,o),
(772,-12,o),
(837,-12,cs),
(876,-12,o),
(918,9,o),
(936,33,c),
(901,57,o),
(870,112,o),
(840,182,cs)
);
},
{
closed = 1;
nodes = (
(866,969,l),
(854,985,l),
(827,987,o),
(809,987,o),
(781,987,cs),
(719,987,o),
(698,960,o),
(667,915,cs),
(453,597,ls),
(441,581,o),
(427,571,o),
(409,571,cs),
(259,563,l),
(259,495,l),
(421,495,ls),
(503,495,o),
(562,521,o),
(612,597,cs)
);
}
);
width = 980;
},
{
anchors = (
{
name = bottom;
pos = (565,0);
},
{
name = top;
pos = (565,1084);
}
);
layerId = "33C6340C-19D4-4BAD-95FA-1AE5BEBDD22C";
shapes = (
{
closed = 1;
nodes = (
(425,1284,ls),
(425,1423,o),
(378,1472,o),
(255,1472,cs),
(133,1472,l),
(119,1458,l),
(119,0,l),
(165,-8,o),
(218,-11,o),
(270,-11,cs),
(324,-11,o),
(381,-8,o),
(425,0,c)
);
},
{
closed = 1;
nodes = (
(886,398,ls),
(839,536,o),
(725,594,o),
(580,594,cs),
(266,594,l),
(266,379,l),
(347,389,ls),
(391,395,o),
(429,400,o),
(487,400,cs),
(542,400,o),
(575,381,o),
(603,296,cs),
(662,123,ls),
(695,23,o),
(732,-16,o),
(821,-16,cs),
(902,-16,o),
(982,26,o),
(1031,82,c),
(990,111,o),
(968,149,o),
(935,252,cs)
);
},
{
closed = 1;
nodes = (
(978,986,l),
(966,1002,l),
(909,1004,o),
(858,1006,o),
(791,1006,cs),
(707,1006,o),
(654,967,o),
(617,892,cs),
(513,691,ls),
(497,663,o),
(485,656,o),
(456,656,cs),
(304,654,l),
(304,511,l),
(477,511,ls),
(650,511,o),
(763,570,o),
(824,688,cs)
);
}
);
width = 1046;
},
{
anchors = (
{
name = bottom;
pos = (530,0);
},
{
name = top;
pos = (530,1084);
}
);
layerId = "11405D41-D873-4173-B059-BD48D7789B90";
shapes = (
{
closed = 1;
nodes = (
(315,1375,ls),
(315,1436,o),
(306,1470,o),
(243,1470,cs),
(194,1470,l),
(182,1458,l),
(182,0,l),
(199,-4,o),
(221,-6,o),
(249,-6,cs),
(274,-6,o),
(298,-4,o),
(315,0,c)
);
},
{
closed = 1;
nodes = (
(753,355,ls),
(690,491,o),
(627,545,o),
(483,545,cs),
(247,545,l),
(247,439,l),
(312,445,ls),
(361,450,o),
(401,451,o),
(426,451,cs),
(543,451,o),
(580,416,o),
(633,300,cs),
(729,90,ls),
(757,28,o),
(777,-12,o),
(840,-12,cs),
(876,-12,o),
(915,8,o),
(931,29,c),
(896,53,o),
(866,110,o),
(835,177,cs)
);
},
{
closed = 1;
nodes = (
(860,968,l),
(848,984,l),
(823,986,o),
(807,986,o),
(782,986,cs),
(722,986,o),
(702,960,o),
(673,917,cs),
(450,590,ls),
(439,574,o),
(424,566,o),
(406,565,cs),
(256,556,l),
(256,494,l),
(418,494,ls),
(493,494,o),
(547,518,o),
(597,590,cs)
);
}
);
width = 980;
},
{
anchors = (
{
name = bottom;
pos = (567,0);
},
{
name = top;
pos = (567,1084);
}
);
layerId = "E2DCE989-2657-47EA-91FE-B2106D1F3005";
shapes = (
{
closed = 1;
nodes = (
(417,1291,ls),
(417,1424,o),
(373,1472,o),
(255,1472,cs),
(139,1472,l),
(125,1458,l),
(125,0,l),
(168,-8,o),
(219,-11,o),
(270,-11,cs),
(321,-11,o),
(375,-8,o),
(417,0,c)
);
},
{
closed = 1;
nodes = (
(878,394,ls),
(829,532,o),
(718,590,o),
(574,590,cs),
(266,590,l),
(266,384,l),
(345,394,ls),
(390,400,o),
(428,404,o),
(484,404,cs),
(544,404,o),
(577,384,o),
(607,296,cs),
(669,121,ls),
(702,23,o),
(738,-16,o),
(824,-16,cs),
(903,-16,o),
(979,25,o),
(1026,77,c),
(985,106,o),
(962,145,o),
(930,246,cs)
);
},
{
closed = 1;
nodes = (
(971,985,l),
(959,1001,l),
(905,1003,o),
(856,1005,o),
(792,1005,cs),
(710,1005,o),
(660,967,o),
(624,895,cs),
(510,682,ls),
(494,656,o),
(482,649,o),
(453,649,cs),
(301,646,l),
(301,510,l),
(474,510,ls),
(639,510,o),
(748,565,o),
(807,680,cs)
);
}
);
width = 1046;
}
);
unicode = 107;
},
{
color = 4;
glyphname = l;
kernLeft = l;
kernRight = l;
lastChange = "2023-06-08 14:29:19 +0000";
layers = (
{
anchors = (
{
name = bottom;
pos = (330,0);
},
{
name = periodcentered;
pos = (566,786);
},
{
name = top;
pos = (239,1563);
},
{
name = topright;
pos = (318,981);
}
);
layerId = "E2DCCAAC-30DB-413E-982C-2359C46E476F";
shapes = (
{
closed = 1;
nodes = (
(393,115,ls),
(344,115,o),
(318,143,o),
(318,199,cs),
(318,1369,ls),
(318,1435,o),
(306,1470,o),
(239,1470,cs),
(185,1470,l),
(173,1458,l),
(173,158,ls),
(173,50,o),
(241,-8,o),
(341,-8,cs),
(383,-8,o),
(448,-2,o),
(487,4,c),
(490,13,o),
(490,24,o),
(490,35,cs),
(490,64,o),
(485,93,o),
(477,115,c)
);
}
);
width = 566;
},
{
anchors = (
{
name = bottom;
pos = (357,0);
},
{
name = periodcentered;
pos = (626,786);
},
{
name = top;
pos = (262,1544);
},
{
name = topright;
pos = (422,998);
}
);
layerId = "33C6340C-19D4-4BAD-95FA-1AE5BEBDD22C";
shapes = (
{
closed = 1;
nodes = (
(509,228,ls),
(447,228,o),
(423,261,o),
(423,323,cs),
(423,1284,ls),
(423,1423,o),
(376,1472,o),
(253,1472,cs),
(131,1472,l),
(117,1458,l),
(117,268,ls),
(117,77,o),
(185,-10,o),
(366,-10,cs),
(443,-10,o),
(521,0,o),
(581,9,c),
(587,30,o),
(589,57,o),
(589,80,cs),
(589,130,o),
(579,184,o),
(564,228,c)
);
}
);
width = 626;
},
{
anchors = (
{
name = bottom;
pos = (331,0);
},
{
name = periodcentered;
pos = (564,786);
},
{
name = top;
pos = (240,1564);
},
{
name = topright;
pos = (313,980);
}
);
layerId = "11405D41-D873-4173-B059-BD48D7789B90";
shapes = (
{
closed = 1;
nodes = (
(386,106,ls),
(338,106,o),
(312,134,o),
(312,190,cs),
(312,1375,ls),
(312,1436,o),
(303,1470,o),
(240,1470,cs),
(191,1470,l),
(179,1458,l),
(179,150,ls),
(179,48,o),
(247,-8,o),
(341,-8,cs),
(381,-8,o),
(445,-2,o),
(482,4,c),
(485,12,o),
(484,21,o),
(484,31,cs),
(484,59,o),
(480,86,o),
(473,106,c)
);
}
);
width = 566;
},
{
anchors = (
{
name = bottom;
pos = (359,0);
},
{
name = periodcentered;
pos = (625,786);
},
{
name = top;
pos = (263,1545);
},
{
name = topright;
pos = (417,997);
}
);
layerId = "E2DCE989-2657-47EA-91FE-B2106D1F3005";
shapes = (
{
closed = 1;
nodes = (
(502,218,ls),
(441,218,o),
(415,251,o),
(415,312,cs),
(415,1291,ls),
(415,1424,o),
(372,1472,o),
(254,1472,cs),
(137,1472,l),
(123,1458,l),
(123,258,ls),
(123,75,o),
(192,-10,o),
(365,-10,cs),
(440,-10,o),
(518,0,o),
(575,9,c),
(582,29,o),
(583,54,o),
(583,76,cs),
(583,124,o),
(573,176,o),
(560,218,c)
);
}
);
width = 626;
}
);
unicode = 108;
},
{
color = 4;
glyphname = m;
kernLeft = m;
kernRight = h;
lastChange = "2023-06-08 11:12:34 +0000";
layers = (
{
anchors = (
{
name = bottom;
pos = (797,0);
},
{
name = top;
pos = (790,1084);
}
);
layerId = "E2DCCAAC-30DB-413E-982C-2359C46E476F";
shapes = (
{
closed = 1;
nodes = (
(189,987,l),
(177,973,l),
(177,0,l),
(196,-4,o),
(222,-6,o),
(251,-6,cs),
(279,-6,o),
(305,-4,o),
(324,0,c),
(324,884,ls),
(324,951,o),
(311,987,o),
(244,987,cs)
);
},
{
closed = 1;
nodes = (
(722,0,l),
(742,-4,o),
(768,-6,o),
(797,-6,cs),
(824,-6,o),
(850,-4,o),
(870,0,c),
(870,691,ls),
(870,859,o),
(792,999,o),
(618,999,cs),
(489,999,o),
(354,917,o),
(271,785,c),
(271,621,l),
(336,768,o),
(480,865,o),
(587,865,cs),
(686,865,o),
(722,799,o),
(722,640,cs)
);
},
{
closed = 1;
nodes = (
(1269,85,ls),
(1269,20,o),
(1291,-12,o),
(1347,-12,cs),
(1381,-12,o),
(1419,1,o),
(1440,20,c),
(1421,64,o),
(1417,125,o),
(1417,190,cs),
(1417,690,ls),
(1417,859,o),
(1340,999,o),
(1166,999,cs),
(1037,999,o),
(916,925,o),
(813,817,c),
(813,620,l),
(889,777,o),
(1029,865,o),
(1134,865,cs),
(1233,865,o),
(1269,801,o),
(1269,642,cs)
);
}
);
width = 1582;
},
{
anchors = (
{
name = bottom;
pos = (812,0);
},
{
name = top;
pos = (794,1084);
}
);
layerId = "33C6340C-19D4-4BAD-95FA-1AE5BEBDD22C";
shapes = (
{
closed = 1;
nodes = (
(133,1012,l),
(119,998,l),
(119,0,l),
(165,-8,o),
(224,-11,o),
(276,-11,cs),
(329,-11,o),
(388,-8,o),
(432,0,c),
(432,785,ls),
(432,924,o),
(369,1012,o),
(249,1012,cs)
);
},
{
closed = 1;
nodes = (
(655,0,l),
(701,-8,o),
(760,-11,o),
(812,-11,cs),
(865,-11,o),
(924,-8,o),
(968,0,c),
(968,701,ls),
(968,884,o),
(868,1016,o),
(694,1016,cs),
(550,1016,o),
(425,903,o),
(331,797,c),
(331,527,l),
(365,620,o),
(479,734,o),
(565,736,cs),
(608,736,o),
(655,708,o),
(655,602,cs)
);
},
{
closed = 1;
nodes = (
(1189,177,ls),
(1189,53,o),
(1231,-16,o),
(1357,-16,cs),
(1435,-16,o),
(1506,13,o),
(1552,51,c),
(1515,102,o),
(1502,172,o),
(1502,250,cs),
(1502,697,ls),
(1502,880,o),
(1411,1016,o),
(1236,1016,cs),
(1095,1016,o),
(948,913,o),
(859,805,c),
(859,516,l),
(906,619,o),
(1018,736,o),
(1096,736,cs),
(1139,736,o),
(1189,710,o),
(1189,604,cs)
);
}
);
width = 1617;
},
{
anchors = (
{
name = bottom;
pos = (798,0);
},
{
name = top;
pos = (792,1084);
}
);
layerId = "11405D41-D873-4173-B059-BD48D7789B90";
shapes = (
{
closed = 1;
nodes = (
(194,985,l),
(182,971,l),
(182,0,l),
(199,-4,o),
(223,-6,o),
(250,-6,cs),
(276,-6,o),
(301,-4,o),
(318,0,c),
(318,892,ls),
(318,953,o),
(308,985,o),
(245,985,cs)
);
},
{
closed = 1;
nodes = (
(730,0,l),
(748,-4,o),
(771,-6,o),
(799,-6,cs),
(824,-6,o),
(848,-4,o),
(866,0,c),
(866,690,ls),
(866,857,o),
(790,998,o),
(616,998,cs),
(488,998,o),
(350,918,o),
(268,784,c),
(268,628,l),
(335,779,o),
(483,875,o),
(592,874,cs),
(695,874,o),
(730,806,o),
(730,643,cs)
);
},
{
closed = 1;
nodes = (
(1277,78,ls),
(1277,17,o),
(1297,-12,o),
(1348,-12,cs),
(1379,-12,o),
(1415,0,o),
(1434,18,c),
(1416,61,o),
(1413,121,o),
(1413,185,cs),
(1413,690,ls),
(1413,858,o),
(1338,998,o),
(1164,998,cs),
(1036,998,o),
(917,926,o),
(812,818,c),
(812,628,l),
(891,789,o),
(1033,874,o),
(1140,874,cs),
(1243,874,o),
(1277,808,o),
(1277,645,cs)
);
}
);
width = 1582;
},
{
anchors = (
{
name = bottom;
pos = (812,0);
},
{
name = top;
pos = (796,1084);
}
);
layerId = "E2DCE989-2657-47EA-91FE-B2106D1F3005";
shapes = (
{
closed = 1;
nodes = (
(139,1009,l),
(125,995,l),
(125,0,l),
(168,-8,o),
(225,-11,o),
(274,-11,cs),
(325,-11,o),
(383,-8,o),
(424,0,c),
(424,794,ls),
(424,927,o),
(365,1009,o),
(250,1009,cs)
);
},
{
closed = 1;
nodes = (
(664,0,l),
(708,-8,o),
(764,-11,o),
(814,-11,cs),
(864,-11,o),
(921,-8,o),
(963,0,c),
(963,700,ls),
(963,881,o),
(865,1015,o),
(691,1015,cs),
(548,1015,o),
(420,904,o),
(327,796,c),
(327,536,l),
(364,633,o),
(480,747,o),
(569,747,cs),
(619,747,o),
(664,716,o),
(664,606,cs)
);
},
{
closed = 1;
nodes = (
(1200,168,ls),
(1200,50,o),
(1240,-16,o),
(1360,-16,cs),
(1434,-16,o),
(1503,12,o),
(1546,49,c),
(1510,98,o),
(1499,168,o),
(1499,245,cs),
(1499,697,ls),
(1499,879,o),
(1409,1015,o),
(1234,1015,cs),
(1094,1015,o),
(949,914,o),
(858,806,c),
(858,525,l),
(908,633,o),
(1021,747,o),
(1103,747,cs),
(1152,747,o),
(1200,718,o),
(1200,608,cs)
);
}
);
width = 1617;
}
);
unicode = 109;
},
{
color = 4;
glyphname = n;
kernLeft = m;
kernRight = h;
lastChange = "2023-06-08 11:12:34 +0000";
layers = (
{
anchors = (
{
name = bottom;
pos = (553,0);
},
{
name = top;
pos = (554,1084);
}
);
layerId = "E2DCCAAC-30DB-413E-982C-2359C46E476F";
shapes = (
{
closed = 1;
nodes = (
(189,987,l),
(177,975,l),
(177,0,l),
(196,-4,o),
(222,-6,o),
(251,-6,cs),
(279,-6,o),
(305,-4,o),
(324,0,c),
(324,884,ls),
(324,951,o),
(311,987,o),
(244,987,cs)
);
},
{
closed = 1;
nodes = (
(924,687,ls),
(924,857,o),
(856,999,o),
(668,999,cs),
(522,999,o),
(371,921,o),
(284,812,c),
(284,655,l),
(350,771,o),
(509,865,o),
(631,865,cs),
(745,865,o),
(777,798,o),
(777,640,cs),
(777,85,ls),
(777,20,o),
(798,-12,o),
(854,-12,cs),
(888,-12,o),
(926,1,o),
(948,20,c),
(929,64,o),
(924,125,o),
(924,190,cs)
);
}
);
width = 1090;
},
{
anchors = (
{
name = bottom;
pos = (563,0);
},
{
name = top;
pos = (561,1084);
}
);
layerId = "33C6340C-19D4-4BAD-95FA-1AE5BEBDD22C";
shapes = (
{
closed = 1;
nodes = (
(133,1012,l),
(119,998,l),
(119,0,l),
(165,-8,o),
(224,-11,o),
(276,-11,cs),
(329,-11,o),
(388,-8,o),
(432,0,c),
(432,785,ls),
(432,924,o),
(371,1012,o),
(251,1012,cs)
);
},
{
closed = 1;
nodes = (
(979,660,l),
(979,869,o),
(882,1016,o),
(699,1016,cs),
(557,1016,o),
(451,929,o),
(357,838,c),
(357,564,l),
(418,689,o),
(519,736,o),
(581,736,cs),
(647,736,o),
(666,694,o),
(666,603,cs),
(666,177,ls),
(666,53,o),
(708,-16,o),
(834,-16,cs),
(912,-16,o),
(983,13,o),
(1029,51,c),
(992,102,o),
(979,172,o),
(979,250,cs)
);
}
);
width = 1094;
},
{
anchors = (
{
name = bottom;
pos = (552,0);
},
{
name = top;
pos = (554,1084);
}
);
layerId = "11405D41-D873-4173-B059-BD48D7789B90";
shapes = (
{
closed = 1;
nodes = (
(194,985,l),
(182,973,l),
(182,0,l),
(199,-4,o),
(223,-6,o),
(250,-6,cs),
(276,-6,o),
(300,-4,o),
(317,0,c),
(317,892,ls),
(317,953,o),
(308,985,o),
(245,985,cs)
);
},
{
closed = 1;
nodes = (
(920,689,ls),
(920,856,o),
(854,998,o),
(666,998,cs),
(519,998,o),
(366,920,o),
(280,810,c),
(280,662,l),
(346,777,o),
(508,874,o),
(635,874,cs),
(753,874,o),
(785,806,o),
(785,643,cs),
(785,78,ls),
(785,17,o),
(805,-12,o),
(855,-12,cs),
(886,-12,o),
(922,0,o),
(942,18,c),
(924,61,o),
(920,121,o),
(920,185,cs)
);
}
);
width = 1090;
},
{
anchors = (
{
name = bottom;
pos = (563,0);
},
{
name = top;
pos = (562,1084);
}
);
layerId = "E2DCE989-2657-47EA-91FE-B2106D1F3005";
shapes = (
{
closed = 1;
nodes = (
(139,1009,l),
(125,995,l),
(125,0,l),
(168,-8,o),
(225,-11,o),
(274,-11,cs),
(325,-11,o),
(382,-8,o),
(423,0,c),
(423,794,ls),
(423,927,o),
(367,1009,o),
(252,1009,cs)
);
},
{
closed = 1;
nodes = (
(975,663,ls),
(975,868,o),
(880,1015,o),
(698,1015,cs),
(555,1015,o),
(445,928,o),
(352,836,c),
(352,572,l),
(413,696,o),
(519,747,o),
(587,747,cs),
(657,747,o),
(677,703,o),
(677,607,cs),
(677,168,ls),
(677,50,o),
(717,-16,o),
(836,-16,cs),
(910,-16,o),
(979,12,o),
(1023,49,c),
(988,98,o),
(975,168,o),
(975,245,cs)
);
}
);
width = 1094;
}
);
unicode = 110;
},
{
color = 4;
glyphname = o;
kernLeft = c;
kernRight = o;
lastChange = "2023-06-08 11:18:55 +0000";
layers = (
{
anchors = (
{
name = bottom;
pos = (518,0);
},
{
name = ogonek;
pos = (663,0);
},
{
name = top;
pos = (518,1084);
},
{
name = topright;
pos = (778,961);
}
);
layerId = "E2DCCAAC-30DB-413E-982C-2359C46E476F";
shapes = (
{
closed = 1;
nodes = (
(934,786,o),
(794,1005,o),
(518,1005,cs),
(246,1005,o),
(104,787,o),
(104,491,cs),
(104,196,o),
(243,-24,o),
(518,-24,cs),
(792,-24,o),
(934,192,o),
(934,491,cs)
);
},
{
closed = 1;
nodes = (
(257,687,o),
(321,891,o),
(520,891,cs),
(717,891,o),
(780,687,o),
(780,491,cs),
(780,292,o),
(717,92,o),
(520,92,cs),
(321,92,o),
(257,292,o),
(257,491,cs)
);
}
);
width = 1038;
},
{
anchors = (
{
name = bottom;
pos = (522,0);
},
{
name = ogonek;
pos = (698,0);
},
{
name = top;
pos = (522,1084);
},
{
name = topright;
pos = (862,969);
}
);
layerId = "33C6340C-19D4-4BAD-95FA-1AE5BEBDD22C";
shapes = (
{
closed = 1;
nodes = (
(984,818,o),
(826,1028,o),
(522,1028,cs),
(220,1028,o),
(60,820,o),
(60,499,cs),
(60,180,o),
(217,-29,o),
(522,-29,cs),
(823,-29,o),
(984,178,o),
(984,499,cs)
);
},
{
closed = 1;
nodes = (
(381,664,o),
(399,795,o),
(522,795,cs),
(645,795,o),
(663,664,o),
(663,499,cs),
(663,334,o),
(645,204,o),
(522,204,cs),
(399,204,o),
(381,334,o),
(381,499,cs)
);
}
);
width = 1044;
},
{
anchors = (
{
name = bottom;
pos = (518,0);
},
{
name = ogonek;
pos = (661,0);
},
{
name = top;
pos = (518,1084);
},
{
name = topright;
pos = (772,960);
}
);
layerId = "11405D41-D873-4173-B059-BD48D7789B90";
shapes = (
{
closed = 1;
nodes = (
(931,784,o),
(793,1003,o),
(518,1003,cs),
(248,1003,o),
(107,784,o),
(107,490,cs),
(107,197,o),
(245,-24,o),
(518,-24,cs),
(791,-24,o),
(931,193,o),
(931,490,cs)
);
},
{
closed = 1;
nodes = (
(248,689,o),
(315,898,o),
(520,898,cs),
(723,898,o),
(790,689,o),
(790,490,cs),
(790,289,o),
(723,84,o),
(520,84,cs),
(315,84,o),
(248,289,o),
(248,490,cs)
);
}
);
width = 1038;
},
{
anchors = (
{
name = bottom;
pos = (522,0);
},
{
name = ogonek;
pos = (697,0);
},
{
name = top;
pos = (522,1084);
},
{
name = topright;
pos = (855,968);
}
);
layerId = "E2DCE989-2657-47EA-91FE-B2106D1F3005";
shapes = (
{
closed = 1;
nodes = (
(980,816,o),
(825,1025,o),
(522,1025,cs),
(223,1025,o),
(64,817,o),
(64,498,cs),
(64,181,o),
(220,-29,o),
(522,-29,cs),
(822,-29,o),
(980,179,o),
(980,498,cs)
);
},
{
closed = 1;
nodes = (
(370,667,o),
(392,804,o),
(522,804,cs),
(652,804,o),
(674,667,o),
(674,498,cs),
(674,330,o),
(652,194,o),
(522,194,cs),
(392,194,o),
(370,330,o),
(370,498,cs)
);
}
);
width = 1044;
}
);
unicode = 111;
},
{
color = 4;
glyphname = p;
kernLeft = m;
kernRight = p;
lastChange = "2023-06-08 11:15:07 +0000";
layers = (
{
anchors = (
{
name = top;
pos = (524,1084);
}
);
layerId = "E2DCCAAC-30DB-413E-982C-2359C46E476F";
shapes = (
{
closed = 1;
nodes = (
(189,987,l),
(177,975,l),
(177,-418,l),
(189,-430,l),
(243,-430,ls),
(310,-430,o),
(322,-395,o),
(322,-329,cs),
(322,882,ls),
(322,950,o),
(308,987,o),
(241,987,cs)
);
},
{
closed = 1;
nodes = (
(950,801,o),
(834,1005,o),
(614,1005,cs),
(431,1005,o),
(296,875,o),
(248,755,c),
(274,615,l),
(324,778,o),
(465,876,o),
(585,876,cs),
(697,876,o),
(800,770,o),
(800,503,cs),
(800,226,o),
(682,112,o),
(562,112,cs),
(443,112,o),
(338,188,o),
(262,247,c),
(254,116,l),
(349,41,o),
(455,-16,o),
(576,-16,cs),
(751,-16,o),
(950,138,o),
(950,503,cs)
);
}
);
width = 1051;
},
{
anchors = (
{
name = top;
pos = (524,1084);
}
);
layerId = "33C6340C-19D4-4BAD-95FA-1AE5BEBDD22C";
shapes = (
{
closed = 1;
nodes = (
(133,1012,l),
(119,998,l),
(119,-418,l),
(133,-432,l),
(255,-432,ls),
(378,-432,o),
(426,-383,o),
(426,-244,cs),
(426,748,ls),
(426,912,o),
(343,1012,o),
(216,1012,cs)
);
},
{
closed = 1;
nodes = (
(1012,815,o),
(896,1028,o),
(652,1028,cs),
(456,1028,o),
(296,863,o),
(277,701,c),
(347,524,l),
(401,736,o),
(508,777,o),
(571,777,cs),
(641,777,o),
(692,699,o),
(692,513,cs),
(692,329,o),
(653,213,o),
(557,213,cs),
(492,213,o),
(408,265,o),
(330,329,c),
(280,107,l),
(368,53,o),
(472,-20,o),
(611,-20,cs),
(831,-20,o),
(1012,167,o),
(1012,511,cs)
);
}
);
width = 1076;
},
{
anchors = (
{
name = top;
pos = (525,1084);
}
);
layerId = "11405D41-D873-4173-B059-BD48D7789B90";
shapes = (
{
closed = 1;
nodes = (
(194,985,l),
(182,973,l),
(182,-418,l),
(194,-430,l),
(243,-430,ls),
(306,-430,o),
(315,-396,o),
(315,-335,cs),
(315,892,ls),
(315,953,o),
(306,985,o),
(244,985,cs)
);
},
{
closed = 1;
nodes = (
(946,800,o),
(830,1003,o),
(612,1003,cs),
(430,1003,o),
(297,876,o),
(247,759,c),
(270,622,l),
(319,781,o),
(463,884,o),
(587,884,cs),
(702,884,o),
(809,775,o),
(809,502,cs),
(809,218,o),
(685,104,o),
(563,104,cs),
(440,104,o),
(334,182,o),
(258,241,c),
(253,116,l),
(349,40,o),
(455,-16,o),
(574,-16,cs),
(746,-16,o),
(946,136,o),
(946,502,cs)
);
}
);
width = 1051;
},
{
anchors = (
{
name = top;
pos = (525,1084);
}
);
layerId = "E2DCE989-2657-47EA-91FE-B2106D1F3005";
shapes = (
{
closed = 1;
nodes = (
(139,1009,l),
(125,995,l),
(125,-418,l),
(139,-432,l),
(255,-432,ls),
(373,-432,o),
(418,-384,o),
(418,-251,cs),
(418,760,ls),
(418,916,o),
(341,1009,o),
(220,1009,cs)
);
},
{
closed = 1;
nodes = (
(1008,814,o),
(892,1025,o),
(649,1025,cs),
(454,1025,o),
(297,864,o),
(276,706,c),
(342,532,l),
(395,740,o),
(506,786,o),
(573,786,cs),
(647,786,o),
(703,705,o),
(703,512,cs),
(703,320,o),
(656,204,o),
(558,204,cs),
(488,204,o),
(403,258,o),
(325,322,c),
(279,108,l),
(368,52,o),
(472,-20,o),
(609,-20,cs),
(825,-20,o),
(1008,165,o),
(1008,510,cs)
);
}
);
width = 1076;
}
);
unicode = 112;
},
{
color = 4;
glyphname = q;
kernLeft = d;
lastChange = "2023-06-08 11:15:29 +0000";
layers = (
{
layerId = "E2DCCAAC-30DB-413E-982C-2359C46E476F";
shapes = (
{
closed = 1;
nodes = (
(102,185,o),
(218,-16,o),
(443,-16,cs),
(611,-16,o),
(738,102,o),
(787,180,c),
(763,311,l),
(706,203,o),
(586,113,o),
(464,113,cs),
(353,113,o),
(252,221,o),
(252,488,cs),
(252,763,o),
(369,877,o),
(494,877,cs),
(609,877,o),
(728,801,o),
(794,712,c),
(810,849,l),
(734,931,o),
(637,1005,o),
(474,1005,cs),
(301,1005,o),
(102,850,o),
(102,489,cs)
);
},
{
closed = 1;
nodes = (
(728,-329,ls),
(728,-395,o),
(740,-430,o),
(807,-430,cs),
(861,-430,l),
(873,-418,l),
(873,704,ls),
(873,789,o),
(880,872,o),
(929,918,c),
(919,946,o),
(892,980,o),
(861,995,c),
(755,957,o),
(728,859,o),
(728,752,cs)
);
}
);
width = 1048;
},
{
layerId = "33C6340C-19D4-4BAD-95FA-1AE5BEBDD22C";
shapes = (
{
closed = 1;
nodes = (
(64,193,o),
(180,-20,o),
(424,-20,cs),
(564,-20,o),
(694,64,o),
(760,176,c),
(716,394,l),
(664,286,o),
(582,231,o),
(502,231,cs),
(435,231,o),
(384,310,o),
(384,495,cs),
(384,681,o),
(423,795,o),
(520,795,cs),
(592,795,o),
(688,718,o),
(765,573,c),
(815,828,l),
(765,915,o),
(660,1028,o),
(465,1028,cs),
(247,1028,o),
(64,841,o),
(64,497,cs)
);
},
{
closed = 1;
nodes = (
(649,-244,ls),
(649,-383,o),
(696,-432,o),
(819,-432,cs),
(941,-432,l),
(955,-418,l),
(955,709,ls),
(955,773,o),
(977,830,o),
(1011,854,c),
(999,909,o),
(954,984,o),
(915,1014,c),
(739,1011,o),
(649,880,o),
(649,714,cs)
);
}
);
width = 1077;
},
{
layerId = "11405D41-D873-4173-B059-BD48D7789B90";
shapes = (
{
closed = 1;
nodes = (
(106,184,o),
(222,-16,o),
(445,-16,cs),
(616,-16,o),
(742,105,o),
(790,180,c),
(768,305,l),
(710,197,o),
(587,104,o),
(462,104,cs),
(348,104,o),
(243,214,o),
(243,488,cs),
(243,769,o),
(366,883,o),
(493,883,cs),
(611,883,o),
(732,807,o),
(797,722,c),
(811,850,l),
(733,932,o),
(636,1003,o),
(475,1003,cs),
(306,1003,o),
(106,850,o),
(106,488,cs)
);
},
{
closed = 1;
nodes = (
(735,-335,ls),
(735,-396,o),
(744,-430,o),
(807,-430,cs),
(856,-430,l),
(868,-418,l),
(868,704,ls),
(868,790,o),
(874,875,o),
(924,923,c),
(914,949,o),
(888,980,o),
(858,994,c),
(757,953,o),
(735,858,o),
(735,755,cs)
);
}
);
width = 1048;
},
{
layerId = "E2DCE989-2657-47EA-91FE-B2106D1F3005";
shapes = (
{
closed = 1;
nodes = (
(68,192,o),
(184,-20,o),
(425,-20,cs),
(568,-20,o),
(699,68,o),
(764,176,c),
(721,387,l),
(669,279,o),
(582,221,o),
(498,221,cs),
(428,221,o),
(373,302,o),
(373,495,cs),
(373,688,o),
(418,802,o),
(518,802,cs),
(593,802,o),
(693,725,o),
(768,585,c),
(816,829,l),
(764,916,o),
(657,1025,o),
(466,1025,cs),
(252,1025,o),
(68,842,o),
(68,496,cs)
);
},
{
closed = 1;
nodes = (
(658,-251,ls),
(658,-384,o),
(701,-432,o),
(819,-432,cs),
(935,-432,l),
(949,-418,l),
(949,709,ls),
(949,774,o),
(970,834,o),
(1005,860,c),
(993,913,o),
(950,984,o),
(911,1013,c),
(741,1006,o),
(658,879,o),
(658,718,cs)
);
}
);
width = 1077;
}
);
unicode = 113;
},
{
color = 4;
glyphname = r;
kernLeft = r;
kernRight = r;
lastChange = "2023-06-09 11:17:25 +0000";
layers = (
{
anchors = (
{
name = bottom;
pos = (269,0);
},
{
name = top;
pos = (395,1084);
}
);
layerId = "E2DCCAAC-30DB-413E-982C-2359C46E476F";
shapes = (
{
closed = 1;
nodes = (
(652,993,o),
(620,995,o),
(598,995,cs),
(373,995,o),
(285,778,o),
(284,607,c),
(311,574,l),
(336,674,o),
(408,849,o),
(586,849,cs),
(608,849,o),
(633,848,o),
(655,846,c),
(681,885,o),
(690,941,o),
(690,987,c)
);
},
{
closed = 1;
nodes = (
(158,877,o),
(195,808,o),
(195,708,cs),
(195,0,l),
(214,-4,o),
(240,-6,o),
(269,-6,cs),
(297,-6,o),
(323,-4,o),
(342,0,c),
(342,723,l),
(337,859,o),
(291,958,o),
(186,995,c),
(158,978,o),
(131,940,o),
(122,913,c)
);
}
);
width = 705;
},
{
anchors = (
{
name = bottom;
pos = (292,0);
},
{
name = top;
pos = (418,1084);
}
);
layerId = "33C6340C-19D4-4BAD-95FA-1AE5BEBDD22C";
shapes = (
{
closed = 1;
nodes = (
(753,1005,o),
(721,1012,o),
(660,1012,cs),
(425,1012,o),
(368,771,o),
(354,551,c),
(389,504,l),
(446,645,o),
(505,724,o),
(612,724,cs),
(646,724,o),
(680,716,o),
(715,703,c),
(766,791,o),
(793,922,o),
(793,995,c)
);
},
{
closed = 1;
nodes = (
(92,830,o),
(135,764,o),
(135,646,cs),
(135,0,l),
(181,-8,o),
(240,-11,o),
(292,-11,cs),
(346,-11,o),
(405,-8,o),
(448,0,c),
(448,669,l),
(429,869,o),
(340,1000,o),
(155,1014,c),
(116,983,o),
(71,909,o),
(60,853,c)
);
}
);
width = 794;
},
{
anchors = (
{
name = bottom;
pos = (273,0);
},
{
name = top;
pos = (399,1084);
}
);
layerId = "11405D41-D873-4173-B059-BD48D7789B90";
shapes = (
{
closed = 1;
nodes = (
(646,992,o),
(614,994,o),
(595,994,cs),
(371,994,o),
(281,778,o),
(281,611,c),
(307,579,l),
(330,676,o),
(403,858,o),
(586,858,cs),
(607,858,o),
(631,858,o),
(653,857,c),
(677,892,o),
(684,942,o),
(684,986,c)
);
},
{
closed = 1;
nodes = (
(165,881,o),
(201,811,o),
(201,713,cs),
(201,0,l),
(219,-4,o),
(242,-6,o),
(269,-6,cs),
(295,-6,o),
(319,-4,o),
(336,0,c),
(336,727,l),
(332,858,o),
(289,955,o),
(190,994,c),
(163,978,o),
(137,942,o),
(129,917,c)
);
}
);
width = 705;
},
{
anchors = (
{
name = bottom;
pos = (291,0);
},
{
name = top;
pos = (417,1084);
}
);
layerId = "E2DCE989-2657-47EA-91FE-B2106D1F3005";
shapes = (
{
closed = 1;
nodes = (
(746,1004,o),
(714,1011,o),
(657,1011,cs),
(422,1011,o),
(363,771,o),
(350,556,c),
(384,510,l),
(438,647,o),
(499,735,o),
(612,735,cs),
(644,735,o),
(678,728,o),
(712,716,c),
(761,800,o),
(786,923,o),
(786,994,c)
);
},
{
closed = 1;
nodes = (
(100,834,o),
(142,768,o),
(142,651,cs),
(142,0,l),
(186,-8,o),
(242,-11,o),
(291,-11,cs),
(343,-11,o),
(400,-8,o),
(440,0,c),
(440,674,l),
(422,868,o),
(337,996,o),
(159,1013,c),
(122,983,o),
(78,911,o),
(67,858,c)
);
}
);
width = 794;
}
);
unicode = 114;
},
{
color = 4;
glyphname = s;
kernLeft = s;
kernRight = s;
lastChange = "2023-06-09 11:10:02 +0000";
layers = (
{
anchors = (
{
name = bottom;
pos = (427,0);
},
{
name = top;
pos = (432,1084);
}
);
layerId = "E2DCCAAC-30DB-413E-982C-2359C46E476F";
shapes = (
{
closed = 1;
nodes = (
(157,24,o),
(272,-24,o),
(412,-24,cs),
(627,-24,o),
(782,81,o),
(782,258,cs),
(782,404,o),
(683,493,o),
(534,548,cs),
(411,594,ls),
(312,631,o),
(262,672,o),
(262,740,cs),
(262,829,o),
(335,885,o),
(440,885,cs),
(542,885,o),
(638,853,o),
(701,824,c),
(730,853,o),
(748,900,o),
(747,940,c),
(667,977,o),
(543,1005,o),
(444,1005,cs),
(261,1005,o),
(109,902,o),
(109,730,cs),
(109,583,o),
(228,503,o),
(364,453,cs),
(483,409,ls),
(575,375,o),
(628,314,o),
(628,247,cs),
(626,156,o),
(542,92,o),
(415,92,cs),
(314,92,o),
(214,138,o),
(132,184,c),
(103,160,o),
(76,111,o),
(74,76,c)
);
}
);
width = 869;
},
{
anchors = (
{
name = bottom;
pos = (445,0);
},
{
name = top;
pos = (445,1084);
}
);
layerId = "33C6340C-19D4-4BAD-95FA-1AE5BEBDD22C";
shapes = (
{
closed = 1;
nodes = (
(133,15,o),
(267,-29,o),
(410,-29,cs),
(681,-29,o),
(842,97,o),
(842,296,cs),
(842,466,o),
(728,564,o),
(576,618,cs),
(452,662,ls),
(398,681,o),
(376,703,o),
(376,738,cs),
(376,773,o),
(404,802,o),
(458,802,cs),
(553,802,o),
(654,764,o),
(737,727,c),
(787,764,o),
(827,871,o),
(823,944,c),
(736,987,o),
(581,1028,o),
(455,1028,cs),
(220,1028,o),
(68,900,o),
(68,697,cs),
(68,536,o),
(177,449,o),
(318,397,cs),
(429,357,ls),
(493,334,o),
(520,305,o),
(520,266,cs),
(520,226,o),
(480,196,o),
(403,196,cs),
(309,196,o),
(214,233,o),
(127,279,c),
(80,231,o),
(41,136,o),
(39,69,c)
);
}
);
width = 886;
},
{
anchors = (
{
name = bottom;
pos = (426,0);
},
{
name = top;
pos = (431,1084);
}
);
layerId = "11405D41-D873-4173-B059-BD48D7789B90";
shapes = (
{
closed = 1;
nodes = (
(160,24,o),
(273,-24,o),
(413,-24,cs),
(624,-24,o),
(778,80,o),
(778,255,cs),
(778,399,o),
(680,488,o),
(532,543,cs),
(409,589,ls),
(307,627,o),
(254,670,o),
(254,740,cs),
(254,833,o),
(331,891,o),
(440,891,cs),
(542,891,o),
(638,860,o),
(699,831,c),
(727,860,o),
(743,902,o),
(743,940,c),
(663,976,o),
(541,1003,o),
(444,1003,cs),
(265,1003,o),
(113,902,o),
(113,733,cs),
(113,587,o),
(233,507,o),
(369,457,cs),
(488,413,ls),
(582,378,o),
(637,314,o),
(637,246,cs),
(635,151,o),
(548,84,o),
(417,84,cs),
(315,84,o),
(215,131,o),
(133,177,c),
(106,155,o),
(80,109,o),
(78,76,c)
);
}
);
width = 869;
},
{
anchors = (
{
name = bottom;
pos = (444,0);
},
{
name = top;
pos = (444,1084);
}
);
layerId = "E2DCE989-2657-47EA-91FE-B2106D1F3005";
shapes = (
{
closed = 1;
nodes = (
(137,16,o),
(268,-29,o),
(411,-29,cs),
(677,-29,o),
(838,96,o),
(838,292,cs),
(838,461,o),
(725,558,o),
(573,612,cs),
(449,656,ls),
(392,676,o),
(367,701,o),
(367,738,cs),
(367,778,o),
(399,809,o),
(458,809,cs),
(553,809,o),
(654,772,o),
(734,735,c),
(783,772,o),
(821,873,o),
(818,944,c),
(731,986,o),
(578,1025,o),
(455,1025,cs),
(225,1025,o),
(73,900,o),
(73,700,cs),
(73,540,o),
(183,454,o),
(323,402,cs),
(435,362,ls),
(501,338,o),
(531,306,o),
(531,265,cs),
(531,220,o),
(486,187,o),
(405,187,cs),
(310,187,o),
(215,225,o),
(128,271,c),
(84,225,o),
(45,133,o),
(43,69,c)
);
}
);
width = 886;
}
);
unicode = 115;
},
{
glyphname = t;
kernLeft = t;
kernRight = t;
lastChange = "2023-06-06 12:12:54 +0000";
layers = (
{
anchors = (
{
name = bottom;
pos = (389,0);
},
{
name = top;
pos = (315,1361);
},
{
name = topright;
pos = (356,981);
}
);
layerId = "E2DCCAAC-30DB-413E-982C-2359C46E476F";
shapes = (
{
closed = 1;
nodes = (
(211,158,ls),
(211,50,o),
(282,-8,o),
(394,-8,cs),
(472,-8,o),
(534,-4,o),
(597,4,c),
(599,13,o),
(599,24,o),
(599,35,cs),
(599,64,o),
(595,93,o),
(587,115,c),
(435,115,ls),
(377,115,o),
(356,149,o),
(356,197,cs),
(356,1278,l),
(344,1291,l),
(290,1291,ls),
(223,1291,o),
(211,1256,o),
(211,1190,cs)
);
},
{
closed = 1;
nodes = (
(306,979,l),
(70,983,l),
(66,962,o),
(64,947,o),
(64,926,cs),
(64,905,o),
(66,888,o),
(70,869,c),
(307,873,l),
(609,869,l),
(614,888,o),
(616,905,o),
(616,926,cs),
(616,947,o),
(614,962,o),
(609,983,c)
);
}
);
width = 674;
},
{
anchors = (
{
name = bottom;
pos = (418,0);
},
{
name = top;
pos = (342,1369);
},
{
name = topright;
pos = (466,998);
}
);
layerId = "33C6340C-19D4-4BAD-95FA-1AE5BEBDD22C";
shapes = (
{
closed = 1;
nodes = (
(161,268,ls),
(161,77,o),
(244,-10,o),
(425,-10,cs),
(505,-10,o),
(611,0,o),
(684,9,c),
(690,30,o),
(691,57,o),
(691,80,cs),
(691,128,o),
(682,184,o),
(667,228,c),
(555,228,ls),
(491,228,o),
(466,262,o),
(466,322,cs),
(466,1285,l),
(452,1299,l),
(330,1299,ls),
(207,1299,o),
(161,1251,o),
(161,1111,cs)
);
},
{
closed = 1;
nodes = (
(339,995,l),
(4,1000,l),
(-5,962,o),
(-9,926,o),
(-9,891,cs),
(-9,853,o),
(-5,815,o),
(4,778,c),
(330,784,l),
(703,778,l),
(713,815,o),
(717,853,o),
(717,891,cs),
(717,926,o),
(713,962,o),
(703,1000,c)
);
}
);
width = 749;
},
{
anchors = (
{
name = bottom;
pos = (390,0);
},
{
name = top;
pos = (316,1360);
},
{
name = topright;
pos = (351,980);
}
);
layerId = "11405D41-D873-4173-B059-BD48D7789B90";
shapes = (
{
closed = 1;
nodes = (
(218,150,ls),
(218,48,o),
(288,-8,o),
(395,-8,cs),
(472,-8,o),
(531,-4,o),
(594,4,c),
(595,12,o),
(595,21,o),
(595,31,cs),
(595,59,o),
(592,86,o),
(584,106,c),
(429,106,ls),
(371,106,o),
(351,140,o),
(351,188,cs),
(351,1278,l),
(339,1290,l),
(290,1290,ls),
(227,1290,o),
(218,1256,o),
(218,1196,cs)
);
},
{
closed = 1;
nodes = (
(306,978,l),
(78,982,l),
(74,962,o),
(72,948,o),
(72,929,cs),
(72,909,o),
(74,893,o),
(78,876,c),
(308,880,l),
(605,876,l),
(609,893,o),
(611,909,o),
(611,929,cs),
(611,948,o),
(609,962,o),
(605,982,c)
);
}
);
width = 674;
},
{
anchors = (
{
name = bottom;
pos = (423,0);
},
{
name = top;
pos = (347,1368);
},
{
name = topright;
pos = (463,997);
}
);
layerId = "E2DCE989-2657-47EA-91FE-B2106D1F3005";
shapes = (
{
closed = 1;
nodes = (
(173,258,ls),
(173,75,o),
(255,-10,o),
(430,-10,cs),
(509,-10,o),
(611,0,o),
(684,9,c),
(689,29,o),
(689,54,o),
(689,76,cs),
(689,122,o),
(682,176,o),
(667,218,c),
(551,218,ls),
(488,218,o),
(463,252,o),
(463,311,cs),
(463,1285,l),
(449,1298,l),
(333,1298,ls),
(215,1298,o),
(173,1251,o),
(173,1119,cs)
);
},
{
closed = 1;
nodes = (
(343,994,l),
(17,999,l),
(8,962,o),
(4,927,o),
(4,894,cs),
(4,858,o),
(8,821,o),
(17,786,c),
(334,792,l),
(701,786,l),
(711,821,o),
(715,858,o),
(715,894,cs),
(715,927,o),
(711,962,o),
(701,999,c)
);
}
);
width = 749;
}
);
unicode = 116;
},
{
color = 4;
glyphname = u;
kernLeft = u;
kernRight = u;
lastChange = "2023-06-08 11:16:39 +0000";
layers = (
{
anchors = (
{
name = bottom;
pos = (536,0);
},
{
name = ogonek;
pos = (902,-14);
},
{
name = top;
pos = (538,1084);
},
{
name = topright;
pos = (914,981);
}
);
layerId = "E2DCCAAC-30DB-413E-982C-2359C46E476F";
shapes = (
{
closed = 1;
nodes = (
(914,981,l),
(894,985,o),
(868,987,o),
(839,987,cs),
(811,987,o),
(785,985,o),
(766,981,c),
(766,229,ls),
(766,122,o),
(796,24,o),
(902,-14,c),
(932,1,o),
(959,35,o),
(970,63,c),
(920,109,o),
(914,192,o),
(914,277,cs)
);
},
{
closed = 1;
nodes = (
(165,295,ls),
(165,124,o),
(233,-18,o),
(422,-18,cs),
(568,-18,o),
(720,61,o),
(806,170,c),
(806,326,l),
(740,210,o),
(582,116,o),
(459,116,cs),
(344,116,o),
(313,183,o),
(313,341,cs),
(313,896,ls),
(313,961,o),
(291,993,o),
(235,993,cs),
(201,993,o),
(163,980,o),
(142,961,c),
(161,917,o),
(165,856,o),
(165,792,cs)
);
}
);
width = 1092;
},
{
anchors = (
{
name = bottom;
pos = (540,0);
},
{
name = ogonek;
pos = (935,-16);
},
{
name = top;
pos = (531,1084);
},
{
name = topright;
pos = (974,998);
}
);
layerId = "33C6340C-19D4-4BAD-95FA-1AE5BEBDD22C";
shapes = (
{
closed = 1;
nodes = (
(975,998,l),
(930,1006,o),
(871,1010,o),
(819,1010,cs),
(765,1010,o),
(705,1006,o),
(662,998,c),
(662,289,ls),
(662,122,o),
(759,-13,o),
(936,-16,c),
(975,15,o),
(1020,85,o),
(1031,141,c),
(998,165,o),
(975,221,o),
(975,285,cs)
);
},
{
closed = 1;
nodes = (
(115,338,ls),
(115,129,o),
(212,-18,o),
(395,-18,cs),
(537,-18,o),
(644,69,o),
(737,161,c),
(737,434,l),
(677,309,o),
(575,263,o),
(513,263,cs),
(447,263,o),
(428,305,o),
(428,395,cs),
(428,821,ls),
(428,945,o),
(385,1014,o),
(260,1014,cs),
(182,1014,o),
(111,985,o),
(65,947,c),
(101,896,o),
(115,827,o),
(115,748,cs)
);
}
);
width = 1098;
},
{
anchors = (
{
name = bottom;
pos = (536,0);
},
{
name = ogonek;
pos = (899,-14);
},
{
name = top;
pos = (538,1084);
},
{
name = topright;
pos = (909,980);
}
);
layerId = "11405D41-D873-4173-B059-BD48D7789B90";
shapes = (
{
closed = 1;
nodes = (
(909,980,l),
(891,984,o),
(868,985,o),
(840,985,cs),
(815,985,o),
(791,984,o),
(774,980,c),
(774,225,ls),
(774,122,o),
(799,27,o),
(899,-14,c),
(929,0,o),
(955,31,o),
(965,57,c),
(914,105,o),
(909,190,o),
(909,276,cs)
);
},
{
closed = 1;
nodes = (
(169,292,ls),
(169,124,o),
(234,-18,o),
(424,-18,cs),
(570,-18,o),
(726,60,o),
(811,170,c),
(811,318,l),
(745,202,o),
(582,105,o),
(455,105,cs),
(336,105,o),
(304,174,o),
(304,337,cs),
(304,901,ls),
(304,962,o),
(284,992,o),
(233,992,cs),
(202,992,o),
(167,980,o),
(148,962,c),
(165,918,o),
(169,858,o),
(169,795,cs)
);
}
);
width = 1092;
},
{
anchors = (
{
name = bottom;
pos = (540,0);
},
{
name = ogonek;
pos = (932,-16);
},
{
name = top;
pos = (531,1084);
},
{
name = topright;
pos = (969,997);
}
);
layerId = "E2DCE989-2657-47EA-91FE-B2106D1F3005";
shapes = (
{
closed = 1;
nodes = (
(968,997,l),
(925,1005,o),
(869,1007,o),
(818,1007,cs),
(767,1007,o),
(711,1005,o),
(670,997,c),
(670,284,ls),
(670,122,o),
(761,-9,o),
(931,-16,c),
(969,14,o),
(1014,80,o),
(1025,134,c),
(990,160,o),
(968,219,o),
(968,284,cs)
);
},
{
closed = 1;
nodes = (
(118,335,ls),
(118,129,o),
(212,-18,o),
(396,-18,cs),
(538,-18,o),
(649,68,o),
(741,162,c),
(741,424,l),
(681,300,o),
(574,250,o),
(507,250,cs),
(437,250,o),
(416,294,o),
(416,390,cs),
(416,827,ls),
(416,946,o),
(375,1013,o),
(256,1013,cs),
(182,1013,o),
(115,985,o),
(71,948,c),
(105,897,o),
(118,829,o),
(118,752,cs)
);
}
);
width = 1098;
}
);
unicode = 117;
},
{
glyphname = v;
kernLeft = v;
kernRight = v;
lastChange = "2023-06-06 12:12:54 +0000";
layers = (
{
anchors = (
{
name = bottom;
pos = (446,0);
},
{
name = top;
pos = (442,1084);
}
);
layerId = "E2DCCAAC-30DB-413E-982C-2359C46E476F";
shapes = (
{
closed = 1;
nodes = (
(458,128,l),
(446,128,o),
(444,130,o),
(440,144,cs),
(425,206,o),
(382,350,o),
(345,462,cs),
(187,938,ls),
(174,980,o),
(149,995,o),
(113,995,cs),
(87,995,o),
(63,990,o),
(22,970,c),
(321,87,ls),
(349,1,o),
(372,-10,o),
(433,-10,cs),
(466,-10,o),
(504,-8,o),
(536,0,c),
(612,213,o),
(763,655,o),
(863,972,c),
(859,978,l),
(836,985,o),
(814,989,o),
(786,989,cs),
(769,989,o),
(750,989,o),
(727,983,c)
);
}
);
width = 884;
},
{
anchors = (
{
name = bottom;
pos = (484,0);
},
{
name = top;
pos = (479,1084);
}
);
layerId = "33C6340C-19D4-4BAD-95FA-1AE5BEBDD22C";
shapes = (
{
closed = 1;
nodes = (
(498,238,l),
(486,238,o),
(481,238,o),
(478,254,cs),
(468,314,o),
(453,420,o),
(434,497,cs),
(344,870,ls),
(319,978,o),
(262,1016,o),
(163,1016,cs),
(112,1016,o),
(46,997,o),
(-9,974,c),
(230,137,ls),
(266,15,o),
(328,-12,o),
(447,-12,cs),
(526,-12,o),
(612,-8,o),
(681,0,c),
(753,230,o),
(877,680,o),
(957,970,c),
(948,983,l),
(900,1002,o),
(840,1008,o),
(786,1008,cs),
(748,1008,o),
(710,1005,o),
(673,997,c)
);
}
);
width = 959;
},
{
anchors = (
{
name = bottom;
pos = (446,0);
},
{
name = top;
pos = (442,1084);
}
);
layerId = "11405D41-D873-4173-B059-BD48D7789B90";
shapes = (
{
closed = 1;
nodes = (
(458,120,l),
(446,120,o),
(444,122,o),
(440,136,cs),
(425,198,o),
(380,345,o),
(341,459,cs),
(178,943,ls),
(166,980,o),
(143,994,o),
(112,994,cs),
(88,994,o),
(67,990,o),
(27,970,c),
(331,83,ls),
(358,0,o),
(378,-10,o),
(435,-10,cs),
(464,-10,o),
(499,-8,o),
(528,0,c),
(605,212,o),
(757,653,o),
(859,972,c),
(855,978,l),
(834,984,o),
(815,988,o),
(789,988,cs),
(773,988,o),
(756,988,o),
(734,982,c)
);
}
);
width = 884;
},
{
anchors = (
{
name = bottom;
pos = (487,0);
},
{
name = top;
pos = (482,1084);
}
);
layerId = "E2DCE989-2657-47EA-91FE-B2106D1F3005";
shapes = (
{
closed = 1;
nodes = (
(501,228,l),
(489,228,o),
(484,228,o),
(481,244,cs),
(472,304,o),
(454,414,o),
(433,494,cs),
(337,876,ls),
(313,978,o),
(259,1015,o),
(165,1015,cs),
(116,1015,o),
(54,997,o),
(0,974,c),
(245,132,ls),
(280,14,o),
(339,-12,o),
(453,-12,cs),
(528,-12,o),
(609,-8,o),
(675,0,c),
(748,229,o),
(874,677,o),
(955,970,c),
(947,983,l),
(901,1001,o),
(845,1007,o),
(793,1007,cs),
(756,1007,o),
(721,1004,o),
(685,996,c)
);
}
);
width = 959;
}
);
unicode = 118;
},
{
glyphname = w;
kernLeft = w;
kernRight = w;
lastChange = "2023-06-06 12:12:54 +0000";
layers = (
{
anchors = (
{
name = bottom;
pos = (711,0);
},
{
name = top;
pos = (711,1084);
}
);
layerId = "E2DCCAAC-30DB-413E-982C-2359C46E476F";
shapes = (
{
closed = 1;
nodes = (
(280,87,ls),
(300,3,o),
(341,-8,o),
(385,-8,cs),
(423,-8,o),
(478,-6,o),
(511,0,c),
(607,399,ls),
(633,509,o),
(673,690,o),
(705,836,c),
(713,836,l),
(746,690,o),
(781,508,o),
(804,399,cs),
(874,87,ls),
(892,2,o),
(933,-8,o),
(989,-8,cs),
(1025,-8,o),
(1076,-6,o),
(1104,-2,c),
(1353,972,l),
(1348,978,l),
(1331,985,o),
(1306,989,o),
(1279,989,cs),
(1252,989,o),
(1225,987,o),
(1208,983,c),
(1088,471,ls),
(1060,355,o),
(1035,241,o),
(1006,111,c),
(995,111,o),
(993,113,o),
(990,129,cs),
(800,980,l),
(780,985,o),
(735,987,o),
(710,987,cs),
(688,987,o),
(641,985,o),
(619,980,c),
(419,111,l),
(410,111,o),
(406,113,o),
(403,129,cs),
(385,208,o),
(358,349,o),
(330,471,cs),
(224,937,ls),
(214,985,o),
(186,995,o),
(156,995,cs),
(132,995,o),
(104,991,o),
(65,972,c)
);
}
);
width = 1408;
},
{
anchors = (
{
name = bottom;
pos = (754,0);
},
{
name = top;
pos = (754,1084);
}
);
layerId = "33C6340C-19D4-4BAD-95FA-1AE5BEBDD22C";
shapes = (
{
closed = 1;
nodes = (
(203,134,ls),
(230,15,o),
(287,-12,o),
(404,-12,cs),
(479,-12,o),
(575,-8,o),
(640,0,c),
(696,349,ls),
(711,448,o),
(733,586,o),
(748,722,c),
(760,722,l),
(775,584,o),
(797,444,o),
(811,345,cs),
(845,130,ls),
(863,7,o),
(921,-12,o),
(1041,-12,cs),
(1114,-12,o),
(1208,-10,o),
(1271,0,c),
(1504,965,l),
(1495,983,l),
(1451,1006,o),
(1372,1010,o),
(1329,1010,cs),
(1292,1010,o),
(1244,1006,o),
(1210,997,c),
(1121,560,ls),
(1097,437,o),
(1080,323,o),
(1066,231,c),
(1055,231,o),
(1053,235,o),
(1050,247,cs),
(937,987,l),
(890,999,o),
(793,1003,o),
(752,1003,cs),
(714,1003,o),
(622,999,o),
(572,987,c),
(462,231,l),
(450,231,o),
(448,235,o),
(446,247,cs),
(439,316,o),
(420,431,o),
(394,560,cs),
(332,883,ls),
(315,968,o),
(283,1016,o),
(183,1016,cs),
(128,1016,o),
(69,1003,o),
(9,979,c)
);
}
);
width = 1512;
},
{
anchors = (
{
name = bottom;
pos = (712,0);
},
{
name = top;
pos = (712,1084);
}
);
layerId = "11405D41-D873-4173-B059-BD48D7789B90";
shapes = (
{
closed = 1;
nodes = (
(290,83,ls),
(309,2,o),
(349,-8,o),
(388,-8,cs),
(423,-8,o),
(475,-6,o),
(506,0,c),
(604,403,ls),
(631,513,o),
(673,698,o),
(706,844,c),
(713,844,l),
(748,698,o),
(784,513,o),
(808,403,cs),
(880,84,ls),
(898,2,o),
(938,-8,o),
(989,-8,cs),
(1022,-8,o),
(1070,-6,o),
(1095,-2,c),
(1346,972,l),
(1341,978,l),
(1326,984,o),
(1305,988,o),
(1279,988,cs),
(1253,988,o),
(1228,986,o),
(1212,982,c),
(1089,464,ls),
(1061,349,o),
(1035,235,o),
(1005,102,c),
(995,102,o),
(993,104,o),
(989,120,cs),
(794,980,l),
(776,984,o),
(735,986,o),
(711,986,cs),
(690,986,o),
(646,984,o),
(627,980,c),
(420,102,l),
(411,102,o),
(407,104,o),
(404,120,cs),
(385,200,o),
(357,343,o),
(329,464,cs),
(220,941,ls),
(210,986,o),
(183,994,o),
(158,994,cs),
(136,994,o),
(111,990,o),
(73,972,c)
);
}
);
width = 1408;
},
{
anchors = (
{
name = bottom;
pos = (756,0);
},
{
name = top;
pos = (756,1084);
}
);
layerId = "E2DCE989-2657-47EA-91FE-B2106D1F3005";
shapes = (
{
closed = 1;
nodes = (
(215,130,ls),
(241,14,o),
(297,-12,o),
(408,-12,cs),
(479,-12,o),
(572,-8,o),
(634,0,c),
(693,354,ls),
(709,453,o),
(733,595,o),
(750,732,c),
(761,732,l),
(778,594,o),
(801,450,o),
(816,350,cs),
(852,127,ls),
(870,7,o),
(927,-12,o),
(1041,-12,cs),
(1111,-12,o),
(1202,-10,o),
(1261,0,c),
(1496,965,l),
(1487,983,l),
(1445,1005,o),
(1371,1009,o),
(1329,1009,cs),
(1293,1009,o),
(1248,1005,o),
(1215,996,c),
(1123,552,ls),
(1098,430,o),
(1081,316,o),
(1066,220,c),
(1055,220,o),
(1053,224,o),
(1050,237,cs),
(930,987,l),
(885,998,o),
(793,1002,o),
(753,1002,cs),
(717,1002,o),
(628,998,o),
(581,987,c),
(464,220,l),
(451,220,o),
(449,224,o),
(448,237,cs),
(439,306,o),
(420,424,o),
(393,552,cs),
(327,888,ls),
(311,969,o),
(280,1015,o),
(186,1015,cs),
(133,1015,o),
(77,1002,o),
(19,979,c)
);
}
);
width = 1512;
}
);
unicode = 119;
},
{
color = 4;
glyphname = x;
lastChange = "2023-06-06 12:13:23 +0000";
layers = (
{
anchors = (
{
name = top;
pos = (441,1084);
}
);
layerId = "E2DCCAAC-30DB-413E-982C-2359C46E476F";
shapes = (
{
closed = 1;
nodes = (
(675,31,l),
(694,3,o),
(714,-14,o),
(750,-14,cs),
(784,-14,o),
(827,4,o),
(854,22,c),
(249,952,ls),
(229,980,o),
(210,997,o),
(174,997,cs),
(140,997,o),
(98,979,o),
(71,961,c)
);
},
{
closed = 1;
nodes = (
(435,601,l),
(383,545,l),
(44,17,l),
(50,4,l),
(66,-4,o),
(93,-10,o),
(121,-10,cs),
(143,-10,o),
(177,-6,o),
(188,-2,c),
(465,442,l),
(511,492,l),
(811,964,l),
(805,977,l),
(791,983,o),
(764,989,o),
(732,989,cs),
(711,989,o),
(680,985,o),
(669,981,c)
);
}
);
width = 898;
},
{
anchors = (
{
name = top;
pos = (479,1084);
}
);
layerId = "33C6340C-19D4-4BAD-95FA-1AE5BEBDD22C";
shapes = (
{
closed = 1;
nodes = (
(590,76,l),
(630,13,o),
(676,-18,o),
(754,-18,cs),
(824,-18,o),
(905,9,o),
(966,51,c),
(396,921,ls),
(354,985,o),
(316,1018,o),
(238,1018,cs),
(173,1018,o),
(94,998,o),
(26,949,c)
);
},
{
closed = 1;
nodes = (
(443,661,l),
(364,590,l),
(4,31,l),
(13,11,l),
(61,-6,o),
(118,-12,o),
(179,-12,cs),
(225,-12,o),
(268,-10,o),
(300,0,c),
(523,378,l),
(596,450,l),
(933,968,l),
(925,989,l),
(878,1002,o),
(828,1010,o),
(770,1010,cs),
(727,1010,o),
(682,1006,o),
(648,998,c)
);
}
);
width = 962;
},
{
anchors = (
{
name = top;
pos = (440,1084);
}
);
layerId = "11405D41-D873-4173-B059-BD48D7789B90";
shapes = (
{
closed = 1;
nodes = (
(684,27,l),
(702,2,o),
(720,-14,o),
(753,-14,cs),
(784,-14,o),
(824,4,o),
(849,20,c),
(240,954,ls),
(223,980,o),
(204,996,o),
(171,996,cs),
(139,996,o),
(100,978,o),
(77,962,c)
);
},
{
closed = 1;
nodes = (
(436,597,l),
(386,541,l),
(49,16,l),
(55,4,l),
(68,-4,o),
(93,-10,o),
(119,-10,cs),
(139,-10,o),
(172,-6,o),
(182,-2,c),
(463,447,l),
(507,495,l),
(805,964,l),
(799,976,l),
(788,982,o),
(762,988,o),
(732,988,cs),
(713,988,o),
(683,984,o),
(673,980,c)
);
}
);
width = 898;
},
{
anchors = (
{
name = top;
pos = (477,1084);
}
);
layerId = "E2DCE989-2657-47EA-91FE-B2106D1F3005";
shapes = (
{
closed = 1;
nodes = (
(601,72,l),
(640,12,o),
(684,-18,o),
(758,-18,cs),
(824,-18,o),
(902,9,o),
(960,49,c),
(384,923,ls),
(343,985,o),
(307,1017,o),
(233,1017,cs),
(171,1017,o),
(95,997,o),
(31,950,c)
);
},
{
closed = 1;
nodes = (
(443,656,l),
(366,586,l),
(9,30,l),
(18,11,l),
(62,-6,o),
(116,-12,o),
(175,-12,cs),
(219,-12,o),
(261,-10,o),
(291,0,c),
(521,384,l),
(593,454,l),
(926,968,l),
(918,988,l),
(875,1001,o),
(826,1009,o),
(770,1009,cs),
(730,1009,o),
(686,1005,o),
(653,997,c)
);
}
);
width = 962;
}
);
unicode = 120;
},
{
glyphname = y;
kernLeft = y;
kernRight = y;
lastChange = "2023-06-06 12:12:54 +0000";
layers = (
{
anchors = (
{
name = bottom;
pos = (696,-124);
},
{
name = top;
pos = (451,1084);
}
);
layerId = "E2DCCAAC-30DB-413E-982C-2359C46E476F";
shapes = (
{
closed = 1;
nodes = (
(872,972,l),
(868,979,l),
(848,985,o),
(822,989,o),
(795,989,cs),
(772,989,o),
(746,987,o),
(726,983,c),
(482,99,l),
(472,99,o),
(466,101,o),
(462,113,cs),
(439,194,o),
(404,318,o),
(370,424,cs),
(212,926,ls),
(196,980,o),
(168,995,o),
(134,995,cs),
(110,995,o),
(83,987,o),
(46,970,c),
(325,89,ls),
(349,16,o),
(382,-4,o),
(450,-8,c),
(444,-29,ls),
(389,-208,o),
(333,-323,o),
(180,-323,cs),
(135,-323,o),
(76,-313,o),
(49,-303,c),
(30,-326,o),
(13,-373,o),
(15,-409,c),
(50,-422,o),
(124,-436,o),
(178,-436,cs),
(418,-436,o),
(503,-288,o),
(598,34,cs)
);
}
);
width = 903;
},
{
anchors = (
{
name = bottom;
pos = (875,-25);
},
{
name = top;
pos = (494,1084);
}
);
layerId = "33C6340C-19D4-4BAD-95FA-1AE5BEBDD22C";
shapes = (
{
closed = 1;
nodes = (
(984,967,l),
(972,987,l),
(916,1006,o),
(859,1010,o),
(805,1010,cs),
(767,1010,o),
(717,1006,o),
(682,997,c),
(508,221,l),
(498,221,o),
(493,223,o),
(491,235,cs),
(482,300,o),
(464,430,o),
(447,497,cs),
(353,882,ls),
(328,985,o),
(278,1016,o),
(202,1016,cs),
(150,1016,o),
(73,1003,o),
(9,974,c),
(242,112,ls),
(267,18,o),
(342,-13,o),
(450,-13,c),
(442,-43,ls),
(412,-144,o),
(347,-205,o),
(246,-205,cs),
(180,-205,o),
(109,-188,o),
(66,-174,c),
(25,-222,o),
(-4,-326,o),
(3,-397,c),
(57,-417,o),
(166,-438,o),
(246,-438,cs),
(557,-438,o),
(665,-246,o),
(737,27,cs)
);
}
);
width = 994;
},
{
anchors = (
{
name = bottom;
pos = (685,-132);
},
{
name = top;
pos = (450,1084);
}
);
layerId = "11405D41-D873-4173-B059-BD48D7789B90";
shapes = (
{
closed = 1;
nodes = (
(866,972,l),
(862,978,l),
(845,984,o),
(821,988,o),
(796,988,cs),
(774,988,o),
(750,986,o),
(731,982,c),
(482,90,l),
(472,90,o),
(466,92,o),
(462,104,cs),
(438,186,o),
(401,310,o),
(366,419,cs),
(204,929,ls),
(188,980,o),
(162,994,o),
(131,994,cs),
(109,994,o),
(86,986,o),
(51,970,c),
(333,87,ls),
(357,16,o),
(387,-4,o),
(452,-8,c),
(446,-28,ls),
(389,-213,o),
(334,-332,o),
(177,-332,cs),
(133,-332,o),
(75,-322,o),
(50,-312,c),
(32,-334,o),
(16,-377,o),
(18,-410,c),
(52,-422,o),
(123,-436,o),
(175,-436,cs),
(410,-436,o),
(493,-291,o),
(590,34,cs)
);
}
);
width = 903;
},
{
anchors = (
{
name = bottom;
pos = (860,-34);
},
{
name = top;
pos = (492,1084);
}
);
layerId = "E2DCE989-2657-47EA-91FE-B2106D1F3005";
shapes = (
{
closed = 1;
nodes = (
(975,967,l),
(964,986,l),
(911,1005,o),
(856,1009,o),
(805,1009,cs),
(768,1009,o),
(720,1005,o),
(687,996,c),
(507,210,l),
(497,210,o),
(492,212,o),
(490,224,cs),
(480,290,o),
(460,420,o),
(441,491,cs),
(342,886,ls),
(318,985,o),
(269,1015,o),
(197,1015,cs),
(147,1015,o),
(75,1002,o),
(14,974,c),
(250,109,ls),
(275,18,o),
(347,-12,o),
(451,-13,c),
(443,-42,ls),
(410,-150,o),
(347,-215,o),
(241,-215,cs),
(177,-215,o),
(107,-199,o),
(66,-185,c),
(26,-231,o),
(-2,-330,o),
(5,-398,c),
(58,-417,o),
(163,-438,o),
(241,-438,cs),
(546,-438,o),
(651,-250,o),
(726,27,cs)
);
}
);
width = 994;
}
);
unicode = 121;
},
{
glyphname = z;
kernLeft = z;
kernRight = z;
lastChange = "2023-06-06 12:12:54 +0000";
layers = (
{
anchors = (
{
name = bottom;
pos = (448,0);
},
{
name = top;
pos = (448,1084);
}
);
layerId = "E2DCCAAC-30DB-413E-982C-2359C46E476F";
shapes = (
{
closed = 1;
nodes = (
(107,155,ls),
(88,128,o),
(82,109,o),
(82,92,cs),
(82,69,o),
(88,51,o),
(107,0,c),
(699,0,ls),
(784,0,o),
(809,28,o),
(809,76,cs),
(809,99,o),
(804,125,o),
(796,147,c),
(749,128,o),
(671,122,o),
(564,122,cs),
(454,122,ls),
(406,122,o),
(324,120,o),
(255,116,c),
(249,122,l),
(295,182,o),
(361,261,o),
(406,325,cs),
(775,829,ls),
(792,851,o),
(800,870,o),
(800,887,cs),
(800,908,o),
(793,932,o),
(775,981,c),
(122,981,l),
(116,956,o),
(114,925,o),
(114,911,cs),
(114,900,o),
(114,877,o),
(118,861,c),
(359,861,ls),
(446,861,o),
(586,865,o),
(634,871,c),
(640,865,l),
(588,800,o),
(527,729,o),
(483,669,cs)
);
}
);
width = 889;
},
{
anchors = (
{
name = bottom;
pos = (450,0);
},
{
name = top;
pos = (450,1084);
}
);
layerId = "33C6340C-19D4-4BAD-95FA-1AE5BEBDD22C";
shapes = (
{
closed = 1;
nodes = (
(93,268,ls),
(61,225,o),
(49,187,o),
(49,152,cs),
(49,116,o),
(59,74,o),
(84,0,c),
(687,0,ls),
(811,0,o),
(854,55,o),
(854,138,cs),
(854,181,o),
(844,214,o),
(822,267,c),
(766,240,o),
(696,234,o),
(635,234,cs),
(566,234,ls),
(516,234,o),
(465,230,o),
(408,222,c),
(402,232,l),
(453,285,o),
(508,353,o),
(553,412,cs),
(798,735,ls),
(819,761,o),
(827,799,o),
(827,827,cs),
(827,871,o),
(812,923,o),
(787,998,c),
(89,998,l),
(79,956,o),
(72,909,o),
(72,862,cs),
(72,832,o),
(76,797,o),
(83,767,c),
(237,767,ls),
(310,767,o),
(412,774,o),
(486,782,c),
(492,773,l),
(447,723,o),
(378,647,o),
(330,584,cs)
);
}
);
width = 899;
},
{
anchors = (
{
name = bottom;
pos = (449,0);
},
{
name = top;
pos = (449,1084);
}
);
layerId = "11405D41-D873-4173-B059-BD48D7789B90";
shapes = (
{
closed = 1;
nodes = (
(109,146,ls),
(91,121,o),
(86,103,o),
(86,87,cs),
(86,65,o),
(91,49,o),
(110,0,c),
(701,0,ls),
(783,0,o),
(806,26,o),
(806,71,cs),
(806,93,o),
(802,118,o),
(795,138,c),
(749,120,o),
(670,114,o),
(560,114,cs),
(447,114,ls),
(399,114,o),
(315,112,o),
(244,108,c),
(238,114,l),
(284,174,o),
(351,254,o),
(396,319,cs),
(774,836,ls),
(791,858,o),
(799,875,o),
(799,891,cs),
(799,911,o),
(793,932,o),
(775,980,c),
(126,980,l),
(120,956,o),
(118,926,o),
(118,915,cs),
(118,905,o),
(118,883,o),
(122,868,c),
(369,868,ls),
(457,868,o),
(600,872,o),
(646,878,c),
(652,872,l),
(599,806,o),
(539,735,o),
(496,675,cs)
);
}
);
width = 889;
},
{
anchors = (
{
name = bottom;
pos = (451,0);
},
{
name = top;
pos = (451,1084);
}
);
layerId = "E2DCE989-2657-47EA-91FE-B2106D1F3005";
shapes = (
{
closed = 1;
nodes = (
(95,258,ls),
(64,217,o),
(53,180,o),
(53,147,cs),
(53,112,o),
(62,71,o),
(88,0,c),
(689,0,ls),
(810,0,o),
(851,53,o),
(851,133,cs),
(851,174,o),
(841,206,o),
(821,256,c),
(766,230,o),
(694,224,o),
(630,224,cs),
(557,224,ls),
(507,224,o),
(454,220,o),
(395,212,c),
(389,222,l),
(440,276,o),
(496,344,o),
(541,405,cs),
(796,744,ls),
(818,769,o),
(826,805,o),
(826,832,cs),
(826,875,o),
(812,924,o),
(787,997,c),
(93,997,l),
(84,956,o),
(77,910,o),
(77,867,cs),
(77,838,o),
(81,804,o),
(87,776,c),
(249,776,ls),
(323,776,o),
(428,782,o),
(500,790,c),
(506,782,l),
(460,730,o),
(392,654,o),
(345,591,cs)
);
}
);
width = 899;
}
);
unicode = 122;
},
{
glyphname = quotesingle;
lastChange = "2023-06-06 12:12:54 +0000";
layers = (
{
layerId = "E2DCCAAC-30DB-413E-982C-2359C46E476F";
shapes = (
{
closed = 1;
nodes = (
(94,1362,o),
(117,1182,o),
(148,986,c),
(168,975,o),
(209,975,o),
(227,986,c),
(257,1180,o),
(279,1362,o),
(279,1391,cs),
(279,1418,o),
(276,1444,o),
(269,1473,c),
(252,1484,o),
(219,1494,o),
(187,1494,cs),
(151,1494,o),
(124,1484,o),
(105,1473,c),
(98,1444,o),
(94,1418,o),
(94,1391,cs)
);
}
);
width = 389;
},
{
layerId = "33C6340C-19D4-4BAD-95FA-1AE5BEBDD22C";
shapes = (
{
closed = 1;
nodes = (
(84,1393,o),
(122,1177,o),
(157,981,c),
(191,959,o),
(273,959,o),
(307,981,c),
(342,1176,o),
(380,1393,o),
(380,1436,cs),
(380,1478,o),
(374,1519,o),
(366,1556,c),
(327,1579,o),
(283,1591,o),
(232,1591,cs),
(180,1591,o),
(137,1579,o),
(98,1556,c),
(90,1519,o),
(84,1478,o),
(84,1436,cs)
);
}
);
width = 483;
},
{
layerId = "11405D41-D873-4173-B059-BD48D7789B90";
shapes = (
{
closed = 1;
nodes = (
(99,1360,o),
(121,1182,o),
(151,986,c),
(170,976,o),
(208,976,o),
(225,986,c),
(255,1180,o),
(275,1360,o),
(275,1387,cs),
(275,1413,o),
(272,1439,o),
(266,1467,c),
(251,1477,o),
(218,1487,o),
(187,1487,cs),
(153,1487,o),
(127,1477,o),
(109,1467,c),
(102,1439,o),
(99,1413,o),
(99,1387,cs)
);
}
);
width = 389;
},
{
layerId = "E2DCE989-2657-47EA-91FE-B2106D1F3005";
shapes = (
{
closed = 1;
nodes = (
(89,1391,o),
(126,1177,o),
(160,981,c),
(192,960,o),
(271,960,o),
(304,981,c),
(339,1176,o),
(375,1391,o),
(375,1432,cs),
(375,1473,o),
(369,1513,o),
(362,1549,c),
(325,1571,o),
(281,1583,o),
(232,1583,cs),
(182,1583,o),
(140,1571,o),
(102,1549,c),
(95,1513,o),
(89,1473,o),
(89,1432,cs)
);
}
);
width = 483;
}
);
unicode = 39;
},
{
glyphname = numbersign;
lastChange = "2023-06-06 12:12:54 +0000";
layers = (
{
layerId = "E2DCCAAC-30DB-413E-982C-2359C46E476F";
shapes = (
{
closed = 1;
nodes = (
(484,1264,l),
(502,1270,o),
(528,1273,o),
(554,1273,cs),
(580,1273,o),
(605,1270,o),
(623,1264,c),
(347,28,l),
(331,20,o),
(304,17,o),
(277,17,cs),
(250,17,o),
(223,20,o),
(207,28,c)
);
},
{
closed = 1;
nodes = (
(882,1264,l),
(900,1270,o),
(926,1273,o),
(952,1273,cs),
(978,1273,o),
(1004,1270,o),
(1022,1264,c),
(745,28,l),
(729,20,o),
(703,17,o),
(675,17,cs),
(649,17,o),
(621,20,o),
(605,28,c)
);
},
{
closed = 1;
nodes = (
(62,334,l),
(55,351,o),
(52,375,o),
(52,399,cs),
(52,423,o),
(55,448,o),
(62,465,c),
(1065,465,l),
(1071,448,o),
(1074,423,o),
(1074,399,cs),
(1074,375,o),
(1071,351,o),
(1065,334,c)
);
},
{
closed = 1;
nodes = (
(151,827,l),
(144,844,o),
(141,869,o),
(141,893,cs),
(141,917,o),
(144,941,o),
(151,958,c),
(1154,958,l),
(1160,941,o),
(1163,917,o),
(1163,893,cs),
(1163,869,o),
(1160,844,o),
(1154,827,c)
);
}
);
width = 1211;
},
{
layerId = "33C6340C-19D4-4BAD-95FA-1AE5BEBDD22C";
shapes = (
{
closed = 1;
nodes = (
(477,1302,l),
(510,1318,o),
(563,1325,o),
(614,1325,cs),
(667,1325,o),
(718,1318,o),
(748,1302,c),
(461,24,l),
(428,9,o),
(375,1,o),
(324,1,cs),
(272,1,o),
(220,9,o),
(190,24,c)
);
},
{
closed = 1;
nodes = (
(986,1302,l),
(1020,1318,o),
(1073,1325,o),
(1124,1325,cs),
(1177,1325,o),
(1227,1318,o),
(1258,1302,c),
(971,24,l),
(938,9,o),
(885,1,o),
(833,1,cs),
(782,1,o),
(730,9,o),
(699,24,c)
);
},
{
closed = 1;
nodes = (
(55,264,l),
(42,300,o),
(36,344,o),
(36,387,cs),
(36,431,o),
(42,475,o),
(55,510,c),
(1282,510,l),
(1294,475,o),
(1301,431,o),
(1301,387,cs),
(1301,344,o),
(1294,300,o),
(1282,264,c)
);
},
{
closed = 1;
nodes = (
(161,817,l),
(149,852,o),
(143,896,o),
(143,940,cs),
(143,984,o),
(149,1027,o),
(161,1062,c),
(1388,1062,l),
(1401,1027,o),
(1408,984,o),
(1408,940,cs),
(1408,896,o),
(1401,852,o),
(1388,817,c)
);
}
);
width = 1435;
},
{
layerId = "11405D41-D873-4173-B059-BD48D7789B90";
shapes = (
{
closed = 1;
nodes = (
(493,1261,l),
(510,1266,o),
(534,1269,o),
(558,1269,cs),
(583,1269,o),
(606,1266,o),
(623,1261,c),
(347,28,l),
(333,21,o),
(308,18,o),
(282,18,cs),
(257,18,o),
(232,21,o),
(217,28,c)
);
},
{
closed = 1;
nodes = (
(883,1261,l),
(900,1266,o),
(924,1269,o),
(948,1269,cs),
(972,1269,o),
(996,1266,o),
(1013,1261,c),
(737,28,l),
(722,21,o),
(698,18,o),
(672,18,cs),
(648,18,o),
(622,21,o),
(607,28,c)
);
},
{
closed = 1;
nodes = (
(71,339,l),
(65,355,o),
(62,377,o),
(62,400,cs),
(62,423,o),
(65,446,o),
(71,461,c),
(1058,461,l),
(1063,446,o),
(1066,423,o),
(1066,400,cs),
(1066,377,o),
(1063,355,o),
(1058,339,c)
);
},
{
closed = 1;
nodes = (
(159,828,l),
(153,844,o),
(150,867,o),
(150,889,cs),
(150,912,o),
(153,935,o),
(159,950,c),
(1145,950,l),
(1151,935,o),
(1154,912,o),
(1154,889,cs),
(1154,867,o),
(1151,844,o),
(1145,828,c)
);
}
);
width = 1211;
},
{
layerId = "E2DCE989-2657-47EA-91FE-B2106D1F3005";
shapes = (
{
closed = 1;
nodes = (
(488,1298,l),
(520,1314,o),
(571,1320,o),
(620,1320,cs),
(671,1320,o),
(719,1314,o),
(748,1298,c),
(462,24,l),
(431,10,o),
(380,2,o),
(331,2,cs),
(280,2,o),
(231,10,o),
(202,24,c)
);
},
{
closed = 1;
nodes = (
(988,1298,l),
(1020,1314,o),
(1071,1320,o),
(1120,1320,cs),
(1170,1320,o),
(1218,1314,o),
(1248,1298,c),
(962,24,l),
(930,10,o),
(880,2,o),
(830,2,cs),
(781,2,o),
(731,10,o),
(701,24,c)
);
},
{
closed = 1;
nodes = (
(66,270,l),
(54,305,o),
(48,346,o),
(48,388,cs),
(48,430,o),
(54,473,o),
(66,506,c),
(1274,506,l),
(1285,473,o),
(1292,430,o),
(1292,388,cs),
(1292,346,o),
(1285,305,o),
(1274,270,c)
);
},
{
closed = 1;
nodes = (
(171,818,l),
(160,851,o),
(154,894,o),
(154,936,cs),
(154,978,o),
(160,1020,o),
(171,1053,c),
(1378,1053,l),
(1391,1020,o),
(1398,978,o),
(1398,936,cs),
(1398,894,o),
(1391,851,o),
(1378,818,c)
);
}
);
width = 1435;
}
);
unicode = 35;
},
{
glyphname = ampersand;
lastChange = "2023-06-06 12:12:54 +0000";
layers = (
{
layerId = "E2DCCAAC-30DB-413E-982C-2359C46E476F";
shapes = (
{
closed = 1;
nodes = (
(604,793,ls),
(413,793,o),
(330,894,o),
(330,1031,cs),
(330,1166,o),
(422,1262,o),
(577,1262,cs),
(690,1262,o),
(783,1238,o),
(871,1211,cs),
(898,1241,o),
(913,1294,o),
(913,1336,c),
(831,1366,o),
(702,1390,o),
(578,1390,cs),
(314,1390,o),
(168,1227,o),
(168,1038,cs),
(168,865,o),
(304,724,o),
(458,718,c),
(458,746,l),
(288,742,o),
(112,577,o),
(112,360,cs),
(112,137,o),
(242,-24,o),
(491,-24,cs),
(605,-24,o),
(723,16,o),
(816,78,c),
(829,0,l),
(847,-4,o),
(871,-7,o),
(901,-7,cs),
(930,-7,o),
(954,-4,o),
(973,0,c),
(965,87,o),
(961,199,o),
(961,294,cs),
(961,536,ls),
(961,583,o),
(959,674,o),
(956,728,c),
(816,728,l),
(813,674,o),
(811,585,o),
(811,534,cs),
(811,207,l),
(747,152,o),
(633,104,o),
(517,104,cs),
(364,104,o),
(274,204,o),
(274,362,cs),
(274,493,o),
(354,662,o),
(585,662,cs),
(1031,662,ls),
(1102,662,o),
(1160,676,o),
(1160,746,cs),
(1160,770,o),
(1154,801,o),
(1139,820,c),
(1100,802,o),
(1030,793,o),
(961,793,cs)
);
}
);
width = 1208;
},
{
layerId = "33C6340C-19D4-4BAD-95FA-1AE5BEBDD22C";
shapes = (
{
closed = 1;
nodes = (
(664,849,ls),
(529,849,o),
(466,898,o),
(466,1004,cs),
(466,1087,o),
(519,1150,o),
(629,1150,cs),
(728,1150,o),
(828,1124,o),
(918,1095,cs),
(971,1152,o),
(1002,1250,o),
(998,1329,c),
(889,1366,o),
(731,1395,o),
(574,1395,cs),
(309,1395,o),
(139,1248,o),
(139,1031,cs),
(139,853,o),
(262,717,o),
(427,713,c),
(427,744,l),
(257,744,o),
(79,591,o),
(79,358,cs),
(79,149,o),
(215,-29,o),
(470,-29,cs),
(593,-29,o),
(706,16,o),
(781,83,c),
(802,-4,l),
(837,-13,o),
(892,-19,o),
(944,-19,cs),
(1000,-19,o),
(1051,-13,o),
(1087,0,c),
(1079,95,o),
(1074,231,o),
(1074,320,cs),
(1074,463,ls),
(1074,533,o),
(1072,639,o),
(1064,732,c),
(776,732,l),
(768,639,o),
(766,533,o),
(766,463,cs),
(766,289,l),
(724,253,o),
(654,212,o),
(560,212,cs),
(476,212,o),
(406,264,o),
(406,388,cs),
(406,518,o),
(488,585,o),
(641,585,cs),
(1116,585,ls),
(1236,585,o),
(1305,636,o),
(1305,742,cs),
(1305,799,o),
(1290,857,o),
(1264,888,c),
(1206,862,o),
(1129,849,o),
(1052,849,cs)
);
}
);
width = 1312;
},
{
layerId = "11405D41-D873-4173-B059-BD48D7789B90";
shapes = (
{
closed = 1;
nodes = (
(605,789,ls),
(410,789,o),
(326,894,o),
(326,1033,cs),
(326,1172,o),
(421,1270,o),
(579,1270,cs),
(693,1270,o),
(785,1246,o),
(873,1220,cs),
(899,1248,o),
(912,1297,o),
(913,1336,c),
(833,1366,o),
(706,1390,o),
(584,1390,cs),
(320,1390,o),
(176,1226,o),
(176,1038,cs),
(176,866,o),
(313,724,o),
(466,718,c),
(466,746,l),
(296,742,o),
(121,576,o),
(121,360,cs),
(121,136,o),
(250,-24,o),
(498,-24,cs),
(612,-24,o),
(730,16,o),
(825,78,c),
(837,0,l),
(854,-4,o),
(876,-6,o),
(904,-6,cs),
(931,-6,o),
(953,-4,o),
(970,0,c),
(962,87,o),
(958,197,o),
(958,292,cs),
(958,541,ls),
(958,587,o),
(956,677,o),
(954,728,c),
(825,728,l),
(823,677,o),
(821,589,o),
(821,539,cs),
(821,201,l),
(755,144,o),
(638,96,o),
(520,96,cs),
(362,96,o),
(270,199,o),
(270,360,cs),
(270,491,o),
(350,668,o),
(587,668,cs),
(1031,668,ls),
(1098,668,o),
(1155,679,o),
(1155,746,cs),
(1155,768,o),
(1150,797,o),
(1136,815,c),
(1098,797,o),
(1028,789,o),
(960,789,cs)
);
}
);
width = 1208;
},
{
layerId = "E2DCE989-2657-47EA-91FE-B2106D1F3005";
shapes = (
{
closed = 1;
nodes = (
(667,844,ls),
(527,844,o),
(462,898,o),
(462,1007,cs),
(462,1095,o),
(519,1160,o),
(632,1160,cs),
(732,1160,o),
(832,1134,o),
(922,1105,cs),
(973,1160,o),
(1002,1254,o),
(999,1329,c),
(892,1366,o),
(737,1395,o),
(582,1395,cs),
(317,1395,o),
(149,1247,o),
(149,1031,cs),
(149,854,o),
(274,717,o),
(437,713,c),
(437,744,l),
(267,744,o),
(90,590,o),
(90,358,cs),
(90,148,o),
(225,-29,o),
(479,-29,cs),
(602,-29,o),
(715,16,o),
(792,83,c),
(813,-4,l),
(846,-12,o),
(899,-18,o),
(949,-18,cs),
(1002,-18,o),
(1051,-12,o),
(1085,0,c),
(1077,94,o),
(1072,229,o),
(1072,318,cs),
(1072,469,ls),
(1072,538,o),
(1070,642,o),
(1062,732,c),
(788,732,l),
(780,642,o),
(778,538,o),
(778,469,cs),
(778,282,l),
(735,244,o),
(661,202,o),
(565,202,cs),
(474,202,o),
(403,259,o),
(403,386,cs),
(403,515,o),
(484,592,o),
(644,592,cs),
(1117,592,ls),
(1232,592,o),
(1300,640,o),
(1300,742,cs),
(1300,797,o),
(1286,852,o),
(1261,882,c),
(1204,857,o),
(1128,844,o),
(1052,844,cs)
);
}
);
width = 1312;
}
);
unicode = 38;
},
{
color = 4;
glyphname = asterisk;
lastChange = "2023-06-14 14:29:50 +0000";
layers = (
{
layerId = "E2DCCAAC-30DB-413E-982C-2359C46E476F";
shapes = (
{
closed = 1;
nodes = (
(423,1360,ls),
(421,1268,o),
(444,1167,o),
(461,1090,c),
(473,1074,o),
(485,1068,o),
(496,1068,cs),
(507,1068,o),
(519,1076,o),
(531,1090,c),
(546,1167,o),
(571,1268,o),
(569,1360,cs),
(568,1462,l),
(530,1478,o),
(460,1478,o),
(424,1462,c)
);
},
{
closed = 1;
nodes = (
(194,1090,ls),
(282,1058,o),
(386,1051,o),
(463,1043,c),
(483,1047,o),
(491,1057,o),
(496,1068,cs),
(501,1078,o),
(497,1092,o),
(486,1108,c),
(417,1144,o),
(328,1200,o),
(240,1228,cs),
(144,1257,l),
(116,1226,o),
(94,1161,o),
(99,1123,c)
);
},
{
closed = 1;
nodes = (
(381,788,ls),
(439,862,o),
(478,958,o),
(511,1031,c),
(513,1049,o),
(505,1062,o),
(496,1068,cs),
(487,1074,o),
(473,1076,o),
(453,1070,c),
(398,1018,o),
(317,949,o),
(263,873,cs),
(206,792,l),
(228,755,o),
(283,717,o),
(321,708,c)
);
},
{
closed = 1;
nodes = (
(729,873,ls),
(676,949,o),
(596,1018,o),
(537,1070,c),
(519,1078,o),
(505,1074,o),
(496,1068,cs),
(487,1062,o),
(481,1049,o),
(481,1029,c),
(516,958,o),
(553,862,o),
(611,788,cs),
(669,708,l),
(712,717,o),
(765,757,o),
(784,790,c)
);
},
{
closed = 1;
nodes = (
(752,1228,ls),
(664,1202,o),
(575,1147,o),
(506,1107,c),
(493,1092,o),
(491,1078,o),
(496,1068,cs),
(501,1057,o),
(509,1049,o),
(531,1043,c),
(606,1053,o),
(710,1060,o),
(798,1089,cs),
(893,1122,l),
(897,1165,o),
(874,1230,o),
(849,1255,c)
);
}
);
width = 991;
},
{
layerId = "33C6340C-19D4-4BAD-95FA-1AE5BEBDD22C";
shapes = (
{
closed = 1;
nodes = (
(402,1331,ls),
(407,1241,o),
(446,1142,o),
(473,1052,c),
(485,1037,o),
(502,1030,o),
(520,1030,cs),
(537,1030,o),
(555,1038,o),
(567,1052,c),
(594,1142,o),
(632,1241,o),
(638,1331,cs),
(645,1460,l),
(587,1483,o),
(451,1483,o),
(395,1460,c)
);
},
{
closed = 1;
nodes = (
(198,1011,ls),
(284,988,o),
(390,993,o),
(484,993,c),
(502,998,o),
(514,1012,o),
(520,1030,cs),
(526,1047,o),
(523,1065,o),
(513,1081,c),
(436,1135,o),
(354,1204,o),
(269,1235,cs),
(149,1282,l),
(109,1233,o),
(67,1105,o),
(72,1043,c)
);
},
{
closed = 1;
nodes = (
(437,718,ls),
(486,794,o),
(515,894,o),
(545,984,c),
(543,1002,o),
(535,1018,o),
(520,1030,cs),
(504,1041,o),
(487,1043,o),
(469,1039,c),
(394,983,o),
(303,926,o),
(247,856,cs),
(166,755,l),
(199,701,o),
(308,623,o),
(368,609,c)
);
},
{
closed = 1;
nodes = (
(790,854,ls),
(733,924,o),
(647,983,o),
(571,1039,c),
(553,1043,o),
(535,1041,o),
(520,1030,cs),
(504,1018,o),
(497,1002,o),
(495,984,c),
(525,896,o),
(552,792,o),
(601,717,cs),
(672,607,l),
(734,623,o),
(841,703,o),
(872,755,c)
);
},
{
closed = 1;
nodes = (
(770,1232,ls),
(686,1198,o),
(603,1137,o),
(526,1080,c),
(518,1065,o),
(514,1047,o),
(520,1030,cs),
(526,1012,o),
(539,999,o),
(556,993,c),
(648,993,o),
(756,987,o),
(842,1009,cs),
(969,1043,l),
(973,1107,o),
(929,1234,o),
(890,1280,c)
);
}
);
width = 1041;
},
{
layerId = "11405D41-D873-4173-B059-BD48D7789B90";
shapes = (
{
closed = 1;
nodes = (
(426,1362,ls),
(424,1270,o),
(446,1169,o),
(462,1093,c),
(474,1077,o),
(486,1071,o),
(496,1071,cs),
(507,1071,o),
(518,1079,o),
(530,1093,c),
(544,1169,o),
(568,1270,o),
(566,1362,cs),
(564,1462,l),
(528,1478,o),
(462,1478,o),
(428,1462,c)
);
},
{
closed = 1;
nodes = (
(196,1096,ls),
(284,1063,o),
(388,1055,o),
(464,1047,c),
(484,1051,o),
(491,1061,o),
(496,1071,cs),
(501,1080,o),
(497,1094,o),
(486,1110,c),
(418,1144,o),
(328,1200,o),
(240,1228,cs),
(146,1255,l),
(118,1226,o),
(98,1165,o),
(103,1129,c)
);
},
{
closed = 1;
nodes = (
(379,793,ls),
(437,867,o),
(477,963,o),
(510,1035,c),
(513,1053,o),
(505,1065,o),
(496,1071,cs),
(488,1077,o),
(474,1079,o),
(454,1072,c),
(400,1021,o),
(320,951,o),
(266,874,cs),
(211,795,l),
(232,759,o),
(283,724,o),
(319,716,c)
);
},
{
closed = 1;
nodes = (
(726,874,ls),
(674,951,o),
(594,1021,o),
(536,1072,c),
(518,1081,o),
(505,1077,o),
(496,1071,cs),
(488,1065,o),
(482,1053,o),
(482,1033,c),
(517,963,o),
(555,867,o),
(613,793,cs),
(671,716,l),
(712,724,o),
(761,761,o),
(779,793,c)
);
},
{
closed = 1;
nodes = (
(753,1228,ls),
(664,1202,o),
(575,1148,o),
(507,1109,c),
(493,1094,o),
(491,1080,o),
(496,1071,cs),
(501,1061,o),
(509,1053,o),
(531,1047,c),
(605,1057,o),
(708,1065,o),
(796,1095,cs),
(889,1128,l),
(893,1169,o),
(872,1230,o),
(848,1253,c)
);
}
);
width = 991;
},
{
layerId = "E2DCE989-2657-47EA-91FE-B2106D1F3005";
shapes = (
{
closed = 1;
nodes = (
(405,1333,ls),
(410,1243,o),
(448,1145,o),
(474,1056,c),
(486,1041,o),
(503,1034,o),
(519,1034,cs),
(538,1034,o),
(554,1042,o),
(566,1056,c),
(592,1145,o),
(630,1243,o),
(635,1333,cs),
(641,1460,l),
(585,1483,o),
(454,1483,o),
(399,1460,c)
);
},
{
closed = 1;
nodes = (
(200,1019,ls),
(286,994,o),
(392,998,o),
(485,998,c),
(503,1003,o),
(513,1016,o),
(519,1034,cs),
(527,1049,o),
(524,1067,o),
(513,1083,c),
(437,1136,o),
(354,1204,o),
(269,1235,cs),
(151,1279,l),
(111,1233,o),
(71,1110,o),
(77,1050,c)
);
},
{
closed = 1;
nodes = (
(434,724,ls),
(484,800,o),
(513,900,o),
(545,988,c),
(544,1006,o),
(536,1022,o),
(519,1034,cs),
(505,1044,o),
(488,1046,o),
(470,1041,c),
(396,986,o),
(306,929,o),
(250,857,cs),
(172,759,l),
(203,706,o),
(307,632,o),
(366,618,c)
);
},
{
closed = 1;
nodes = (
(788,855,ls),
(731,927,o),
(645,986,o),
(571,1041,c),
(553,1046,o),
(536,1044,o),
(519,1034,cs),
(505,1022,o),
(498,1006,o),
(496,988,c),
(527,901,o),
(555,798,o),
(605,723,cs),
(675,616,l),
(734,632,o),
(837,708,o),
(867,758,c)
);
},
{
closed = 1;
nodes = (
(772,1232,ls),
(686,1198,o),
(604,1138,o),
(528,1083,c),
(517,1067,o),
(513,1049,o),
(519,1034,cs),
(527,1016,o),
(540,1004,o),
(557,998,c),
(648,998,o),
(755,993,o),
(841,1016,cs),
(965,1051,l),
(969,1112,o),
(927,1234,o),
(889,1277,c)
);
}
);
width = 1041;
}
);
unicode = 42;
},
{
glyphname = comma;
kernLeft = comma;
kernRight = comma;
lastChange = "2023-06-06 12:12:54 +0000";
layers = (
{
layerId = "E2DCCAAC-30DB-413E-982C-2359C46E476F";
shapes = (
{
closed = 1;
nodes = (
(346,195,o),
(295,203,o),
(262,203,cs),
(227,203,o),
(174,191,o),
(157,182,c),
(147,168,o),
(141,123,o),
(141,92,cs),
(141,62,o),
(149,23,o),
(157,8,c),
(173,-4,o),
(211,-14,o),
(234,-18,c),
(233,-102,o),
(170,-176,o),
(80,-220,c),
(78,-249,o),
(94,-287,o),
(122,-301,c),
(297,-237,o),
(383,-92,o),
(383,64,cs),
(383,107,o),
(375,157,o),
(363,182,c)
);
}
);
width = 509;
},
{
layerId = "33C6340C-19D4-4BAD-95FA-1AE5BEBDD22C";
shapes = (
{
closed = 1;
nodes = (
(416,277,o),
(349,292,o),
(297,292,cs),
(244,292,o),
(179,276,o),
(143,255,c),
(130,230,o),
(120,172,o),
(120,132,cs),
(120,93,o),
(130,40,o),
(143,15,c),
(163,0,o),
(197,-10,o),
(230,-16,c),
(216,-109,o),
(137,-183,o),
(43,-216,c),
(38,-272,o),
(65,-334,o),
(118,-361,c),
(355,-287,o),
(475,-92,o),
(475,97,cs),
(475,154,o),
(469,202,o),
(450,255,c)
);
}
);
width = 590;
},
{
layerId = "11405D41-D873-4173-B059-BD48D7789B90";
shapes = (
{
closed = 1;
nodes = (
(343,189,o),
(293,196,o),
(261,196,cs),
(228,196,o),
(176,185,o),
(160,177,c),
(150,163,o),
(144,119,o),
(144,89,cs),
(144,60,o),
(152,22,o),
(160,8,c),
(176,-4,o),
(214,-14,o),
(236,-18,c),
(236,-102,o),
(175,-176,o),
(85,-220,c),
(83,-247,o),
(98,-283,o),
(124,-297,c),
(295,-233,o),
(378,-92,o),
(378,61,cs),
(378,103,o),
(370,153,o),
(359,177,c)
);
}
);
width = 509;
},
{
layerId = "E2DCE989-2657-47EA-91FE-B2106D1F3005";
shapes = (
{
closed = 1;
nodes = (
(412,270,o),
(346,284,o),
(296,284,cs),
(245,284,o),
(181,269,o),
(146,249,c),
(133,225,o),
(123,167,o),
(123,128,cs),
(123,91,o),
(133,39,o),
(146,15,c),
(166,0,o),
(200,-10,o),
(232,-16,c),
(219,-109,o),
(142,-183,o),
(49,-216,c),
(44,-269,o),
(69,-330,o),
(120,-356,c),
(352,-282,o),
(468,-92,o),
(468,94,cs),
(468,150,o),
(462,198,o),
(445,249,c)
);
}
);
width = 590;
}
);
unicode = 44;
},
{
color = 4;
glyphname = period;
kernLeft = comma;
kernRight = comma;
lastChange = "2023-06-06 12:13:23 +0000";
layers = (
{
layerId = "E2DCCAAC-30DB-413E-982C-2359C46E476F";
shapes = (
{
closed = 1;
nodes = (
(130,70,o),
(136,24,o),
(146,7,c),
(165,-4,o),
(212,-14,o),
(249,-14,cs),
(282,-14,o),
(338,-4,o),
(353,7,c),
(364,24,o),
(370,70,o),
(370,94,cs),
(370,118,o),
(364,165,o),
(353,182,c),
(336,193,o),
(282,203,o),
(249,203,cs),
(212,203,o),
(165,193,o),
(146,182,c),
(136,165,o),
(130,118,o),
(130,94,cs)
);
}
);
width = 500;
},
{
layerId = "33C6340C-19D4-4BAD-95FA-1AE5BEBDD22C";
shapes = (
{
closed = 1;
nodes = (
(106,112,o),
(112,51,o),
(130,15,c),
(170,-9,o),
(234,-21,o),
(287,-21,cs),
(339,-21,o),
(404,-9,o),
(444,15,c),
(461,51,o),
(467,112,o),
(467,136,cs),
(467,160,o),
(461,221,o),
(444,257,c),
(404,280,o),
(339,294,o),
(287,294,cs),
(234,294,o),
(170,280,o),
(130,257,c),
(112,221,o),
(106,160,o),
(106,136,cs)
);
}
);
width = 573;
},
{
layerId = "11405D41-D873-4173-B059-BD48D7789B90";
shapes = (
{
closed = 1;
nodes = (
(135,67,o),
(141,22,o),
(150,6,c),
(168,-4,o),
(214,-14,o),
(249,-14,cs),
(281,-14,o),
(335,-4,o),
(348,6,c),
(359,22,o),
(365,67,o),
(365,91,cs),
(365,115,o),
(359,161,o),
(348,177,c),
(333,187,o),
(281,196,o),
(249,196,cs),
(214,196,o),
(168,187,o),
(150,177,c),
(141,161,o),
(135,115,o),
(135,91,cs)
);
}
);
width = 500;
},
{
layerId = "E2DCE989-2657-47EA-91FE-B2106D1F3005";
shapes = (
{
closed = 1;
nodes = (
(112,108,o),
(118,49,o),
(134,14,c),
(173,-9,o),
(236,-21,o),
(286,-21,cs),
(337,-21,o),
(401,-9,o),
(439,14,c),
(456,49,o),
(462,108,o),
(462,132,cs),
(462,156,o),
(456,216,o),
(439,251,c),
(401,273,o),
(337,286,o),
(286,286,cs),
(236,286,o),
(173,273,o),
(134,251,c),
(118,216,o),
(112,156,o),
(112,132,cs)
);
}
);
width = 573;
}
);
unicode = 46;
},
{
glyphname = question;
lastChange = "2023-06-06 12:12:54 +0000";
layers = (
{
layerId = "E2DCCAAC-30DB-413E-982C-2359C46E476F";
shapes = (
{
closed = 1;
nodes = (
(36,1251,o),
(64,1200,o),
(88,1177,c),
(173,1219,o),
(270,1253,o),
(365,1253,cs),
(499,1253,o),
(583,1171,o),
(583,1047,cs),
(583,916,o),
(480,822,o),
(321,738,cs),
(230,689,l),
(218,671,l),
(226,373,l),
(243,366,o),
(267,364,o),
(287,364,cs),
(307,364,o),
(326,366,o),
(343,373,c),
(357,604,l),
(485,678,ls),
(629,761,o),
(745,883,o),
(745,1060,cs),
(745,1263,o),
(601,1389,o),
(397,1389,cs),
(267,1389,o),
(139,1350,o),
(32,1295,c)
);
},
{
closed = 1;
nodes = (
(250,187,o),
(213,179,o),
(192,166,c),
(184,152,o),
(178,109,o),
(178,86,cs),
(178,63,o),
(184,21,o),
(192,6,c),
(213,-7,o),
(250,-15,o),
(286,-15,cs),
(319,-15,o),
(360,-7,o),
(381,6,c),
(389,21,o),
(395,63,o),
(395,86,cs),
(395,109,o),
(389,152,o),
(381,166,c),
(360,179,o),
(319,187,o),
(286,187,cs)
);
}
);
width = 764;
},
{
layerId = "33C6340C-19D4-4BAD-95FA-1AE5BEBDD22C";
shapes = (
{
closed = 1;
nodes = (
(7,1202,o),
(57,1103,o),
(115,1059,c),
(185,1097,o),
(263,1129,o),
(344,1129,cs),
(449,1129,o),
(501,1077,o),
(501,998,cs),
(501,909,o),
(419,849,o),
(309,798,cs),
(199,749,l),
(174,718,l),
(191,420,l),
(229,408,o),
(275,404,o),
(312,404,cs),
(350,404,o),
(390,408,o),
(426,420,c),
(446,573,l),
(567,636,ls),
(716,714,o),
(828,833,o),
(828,1033,cs),
(828,1244,o),
(686,1397,o),
(414,1397,cs),
(257,1397,o),
(114,1348,o),
(3,1281,c)
);
},
{
closed = 1;
nodes = (
(257,272,o),
(201,261,o),
(163,239,c),
(149,214,o),
(141,158,o),
(141,121,cs),
(141,84,o),
(149,29,o),
(163,4,c),
(201,-17,o),
(257,-29,o),
(312,-29,cs),
(366,-29,o),
(422,-17,o),
(459,4,c),
(474,29,o),
(482,84,o),
(482,121,cs),
(482,158,o),
(474,214,o),
(459,239,c),
(422,261,o),
(366,272,o),
(312,272,cs)
);
}
);
width = 841;
},
{
layerId = "11405D41-D873-4173-B059-BD48D7789B90";
shapes = (
{
closed = 1;
nodes = (
(41,1255,o),
(67,1207,o),
(89,1186,c),
(175,1228,o),
(273,1262,o),
(369,1262,cs),
(506,1262,o),
(592,1178,o),
(592,1051,cs),
(592,916,o),
(488,820,o),
(325,733,cs),
(235,685,l),
(224,667,l),
(232,369,l),
(247,363,o),
(269,361,o),
(288,361,cs),
(307,361,o),
(324,363,o),
(340,369,c),
(353,606,l),
(482,681,ls),
(626,765,o),
(742,887,o),
(742,1062,cs),
(742,1264,o),
(598,1388,o),
(399,1388,cs),
(271,1388,o),
(144,1350,o),
(37,1296,c)
);
},
{
closed = 1;
nodes = (
(253,181,o),
(217,173,o),
(197,161,c),
(190,147,o),
(184,105,o),
(184,83,cs),
(184,62,o),
(190,20,o),
(197,6,c),
(217,-6,o),
(253,-14,o),
(287,-14,cs),
(318,-14,o),
(358,-6,o),
(378,6,c),
(386,20,o),
(392,62,o),
(392,83,cs),
(392,105,o),
(386,147,o),
(378,161,c),
(358,173,o),
(318,181,o),
(287,181,cs)
);
}
);
width = 764;
},
{
layerId = "E2DCE989-2657-47EA-91FE-B2106D1F3005";
shapes = (
{
closed = 1;
nodes = (
(10,1207,o),
(58,1111,o),
(114,1069,c),
(185,1108,o),
(264,1140,o),
(346,1140,cs),
(455,1140,o),
(509,1086,o),
(509,1003,cs),
(509,909,o),
(425,847,o),
(311,793,cs),
(202,744,l),
(179,714,l),
(195,416,l),
(231,404,o),
(275,400,o),
(310,400,cs),
(348,400,o),
(385,404,o),
(420,416,c),
(439,575,l),
(561,640,ls),
(710,718,o),
(822,838,o),
(822,1035,cs),
(822,1245,o),
(680,1396,o),
(414,1396,cs),
(259,1396,o),
(118,1348,o),
(6,1282,c)
);
},
{
closed = 1;
nodes = (
(258,265,o),
(203,254,o),
(166,233,c),
(153,209,o),
(146,153,o),
(146,118,cs),
(146,83,o),
(153,28,o),
(166,4,c),
(203,-16,o),
(258,-28,o),
(311,-28,cs),
(363,-28,o),
(418,-16,o),
(453,4,c),
(468,28,o),
(476,83,o),
(476,118,cs),
(476,153,o),
(468,209,o),
(453,233,c),
(418,254,o),
(363,265,o),
(311,265,cs)
);
}
);
width = 841;
}
);
unicode = 63;
},
{
color = 4;
glyphname = exclam;
lastChange = "2023-06-06 12:13:23 +0000";
layers = (
{
layerId = "E2DCCAAC-30DB-413E-982C-2359C46E476F";
shapes = (
{
closed = 1;
nodes = (
(235,366,o),
(257,364,o),
(277,364,cs),
(298,364,o),
(319,366,o),
(337,373,c),
(349,642,o),
(363,911,o),
(363,1180,cs),
(363,1364,l),
(320,1377,o),
(235,1377,o),
(192,1366,c),
(192,1181,ls),
(192,911,o),
(207,644,o),
(218,373,c)
);
},
{
closed = 1;
nodes = (
(242,187,o),
(205,179,o),
(184,167,c),
(176,152,o),
(170,109,o),
(170,86,cs),
(170,64,o),
(176,21,o),
(184,6,c),
(205,-6,o),
(242,-14,o),
(277,-14,cs),
(311,-14,o),
(350,-6,o),
(371,6,c),
(379,21,o),
(385,64,o),
(385,86,cs),
(385,109,o),
(379,152,o),
(371,167,c),
(350,179,o),
(311,187,o),
(277,187,cs)
);
}
);
width = 555;
},
{
layerId = "33C6340C-19D4-4BAD-95FA-1AE5BEBDD22C";
shapes = (
{
closed = 1;
nodes = (
(229,406,o),
(280,404,o),
(308,404,cs),
(339,404,o),
(383,406,o),
(425,418,c),
(444,675,o),
(482,930,o),
(482,1187,cs),
(482,1364,l),
(396,1389,o),
(220,1389,o),
(134,1364,c),
(134,1191,ls),
(134,930,o),
(166,675,o),
(189,418,c)
);
},
{
closed = 1;
nodes = (
(253,278,o),
(197,266,o),
(159,245,c),
(145,220,o),
(138,163,o),
(138,126,cs),
(138,90,o),
(145,35,o),
(159,10,c),
(197,-11,o),
(253,-23,o),
(308,-23,cs),
(362,-23,o),
(418,-11,o),
(455,10,c),
(470,35,o),
(478,90,o),
(478,126,cs),
(478,163,o),
(470,220,o),
(455,245,c),
(418,266,o),
(362,278,o),
(308,278,cs)
);
}
);
width = 616;
},
{
layerId = "11405D41-D873-4173-B059-BD48D7789B90";
shapes = (
{
closed = 1;
nodes = (
(237,363,o),
(258,361,o),
(277,361,cs),
(297,361,o),
(317,363,o),
(333,369,c),
(344,639,o),
(356,910,o),
(356,1180,cs),
(356,1364,l),
(317,1376,o),
(237,1376,o),
(198,1366,c),
(198,1180,ls),
(198,910,o),
(212,642,o),
(222,369,c)
);
},
{
closed = 1;
nodes = (
(244,180,o),
(207,173,o),
(187,161,c),
(180,147,o),
(174,105,o),
(174,83,cs),
(174,62,o),
(180,20,o),
(187,6,c),
(207,-6,o),
(244,-14,o),
(277,-14,cs),
(309,-14,o),
(347,-6,o),
(367,6,c),
(375,20,o),
(381,62,o),
(381,83,cs),
(381,105,o),
(375,147,o),
(367,161,c),
(347,173,o),
(309,180,o),
(277,180,cs)
);
}
);
width = 555;
},
{
layerId = "E2DCE989-2657-47EA-91FE-B2106D1F3005";
shapes = (
{
closed = 1;
nodes = (
(232,402,o),
(281,400,o),
(307,400,cs),
(338,400,o),
(380,402,o),
(420,414,c),
(438,672,o),
(474,929,o),
(474,1187,cs),
(474,1364,l),
(392,1388,o),
(223,1388,o),
(142,1364,c),
(142,1190,ls),
(142,929,o),
(172,673,o),
(194,414,c)
);
},
{
closed = 1;
nodes = (
(255,270,o),
(200,259,o),
(163,238,c),
(151,214,o),
(144,158,o),
(144,122,cs),
(144,88,o),
(151,34,o),
(163,10,c),
(200,-11,o),
(255,-22,o),
(307,-22,cs),
(360,-22,o),
(415,-11,o),
(450,10,c),
(465,34,o),
(473,88,o),
(473,122,cs),
(473,158,o),
(465,214,o),
(450,238,c),
(415,259,o),
(360,270,o),
(307,270,cs)
);
}
);
width = 616;
}
);
unicode = 33;
},
{
color = 4;
glyphname = at;
lastChange = "2023-06-14 10:33:52 +0000";
layers = (
{
layerId = "E2DCCAAC-30DB-413E-982C-2359C46E476F";
shapes = (
{
closed = 1;
nodes = (
(1288,826,l),
(1206,900,o),
(1092,957,o),
(959,957,cs),
(703,957,o),
(563,722,o),
(563,452,cs),
(563,184,o),
(686,19,o),
(877,19,cs),
(1030,19,o),
(1177,140,o),
(1225,258,c),
(1166,341,l),
(1128,244,o),
(1005,143,o),
(906,143,cs),
(769,143,o),
(711,277,o),
(711,453,cs),
(711,666,o),
(800,843,o),
(959,843,cs),
(1037,843,o),
(1108,807,o),
(1144,769,c),
(1144,267,ls),
(1144,123,o),
(1229,28,o),
(1380,28,cs),
(1581,28,o),
(1769,225,o),
(1769,573,cs),
(1769,1035,o),
(1444,1346,o),
(965,1346,cs),
(463,1346,o),
(114,960,o),
(114,455,cs),
(114,-68,o),
(436,-361,o),
(877,-361,cs),
(1037,-361,o),
(1192,-332,o),
(1340,-278,c),
(1340,-238,o),
(1320,-190,o),
(1296,-170,c),
(1176,-219,o),
(1037,-242,o),
(884,-242,cs),
(519,-242,o),
(263,9,o),
(263,455,cs),
(263,894,o),
(540,1233,o),
(965,1233,cs),
(1364,1233,o),
(1622,968,o),
(1622,579,cs),
(1622,259,o),
(1500,147,o),
(1390,147,cs),
(1321,147,o),
(1288,190,o),
(1288,307,cs)
);
}
);
width = 1865;
},
{
layerId = "33C6340C-19D4-4BAD-95FA-1AE5BEBDD22C";
shapes = (
{
closed = 1;
nodes = (
(1391,822,l),
(1314,900,o),
(1162,973,o),
(1006,973,cs),
(728,973,o),
(575,760,o),
(575,454,cs),
(575,184,o),
(686,-6,o),
(902,-6,cs),
(1067,-6,o),
(1224,140,o),
(1275,254,c),
(1168,391,l),
(1132,306,o),
(1048,226,o),
(974,226,cs),
(896,226,o),
(873,302,o),
(873,469,cs),
(873,626,o),
(897,756,o),
(1006,756,cs),
(1045,756,o),
(1073,746,o),
(1102,722,c),
(1102,319,ls),
(1102,144,o),
(1245,1,o),
(1451,1,cs),
(1666,1,o),
(1896,176,o),
(1896,592,cs),
(1896,1091,o),
(1514,1372,o),
(1012,1372,cs),
(473,1372,o),
(77,987,o),
(77,443,cs),
(77,-143,o),
(429,-406,o),
(922,-406,cs),
(1086,-406,o),
(1289,-361,o),
(1415,-305,c),
(1415,-238,o),
(1390,-150,o),
(1338,-93,c),
(1213,-141,o),
(1080,-169,o),
(946,-169,cs),
(602,-169,o),
(388,26,o),
(388,443,cs),
(388,854,o),
(635,1142,o),
(1012,1142,cs),
(1360,1142,o),
(1589,939,o),
(1589,600,cs),
(1589,317,o),
(1527,227,o),
(1452,227,cs),
(1408,227,o),
(1391,256,o),
(1391,328,cs)
);
}
);
width = 1959;
},
{
layerId = "11405D41-D873-4173-B059-BD48D7789B90";
shapes = (
{
closed = 1;
nodes = (
(1283,826,l),
(1201,900,o),
(1090,956,o),
(958,956,cs),
(704,956,o),
(565,719,o),
(565,452,cs),
(565,184,o),
(689,21,o),
(878,21,cs),
(1030,21,o),
(1176,140,o),
(1224,258,c),
(1169,337,l),
(1131,239,o),
(1005,137,o),
(904,137,cs),
(763,137,o),
(702,275,o),
(702,452,cs),
(702,669,o),
(796,850,o),
(958,850,cs),
(1039,850,o),
(1114,811,o),
(1150,773,c),
(1150,263,ls),
(1150,122,o),
(1231,30,o),
(1378,30,cs),
(1578,30,o),
(1763,229,o),
(1763,572,cs),
(1763,1031,o),
(1442,1344,o),
(964,1344,cs),
(465,1344,o),
(120,958,o),
(120,456,cs),
(120,-63,o),
(439,-357,o),
(876,-357,cs),
(1036,-357,o),
(1188,-330,o),
(1338,-276,c),
(1338,-238,o),
(1318,-193,o),
(1296,-176,c),
(1176,-225,o),
(1037,-247,o),
(882,-247,cs),
(516,-247,o),
(257,8,o),
(257,456,cs),
(257,897,o),
(536,1240,o),
(964,1240,cs),
(1367,1240,o),
(1628,970,o),
(1628,578,cs),
(1628,255,o),
(1501,141,o),
(1388,141,cs),
(1318,141,o),
(1283,185,o),
(1283,306,cs)
);
}
);
width = 1865;
},
{
layerId = "E2DCE989-2657-47EA-91FE-B2106D1F3005";
shapes = (
{
closed = 1;
nodes = (
(1386,822,l),
(1308,900,o),
(1160,972,o),
(1006,972,cs),
(729,972,o),
(578,756,o),
(578,454,cs),
(578,184,o),
(690,-3,o),
(903,-3,cs),
(1067,-3,o),
(1224,140,o),
(1274,254,c),
(1172,386,l),
(1136,301,o),
(1049,219,o),
(972,219,cs),
(889,219,o),
(862,299,o),
(862,468,cs),
(862,630,o),
(893,764,o),
(1006,764,cs),
(1048,764,o),
(1080,751,o),
(1110,726,c),
(1110,314,ls),
(1110,143,o),
(1248,3,o),
(1449,3,cs),
(1663,3,o),
(1889,181,o),
(1889,591,cs),
(1889,1086,o),
(1512,1370,o),
(1012,1370,cs),
(476,1370,o),
(85,985,o),
(85,444,cs),
(85,-137,o),
(433,-402,o),
(922,-402,cs),
(1085,-402,o),
(1285,-359,o),
(1413,-303,c),
(1413,-238,o),
(1388,-154,o),
(1338,-100,c),
(1213,-148,o),
(1081,-175,o),
(945,-175,cs),
(599,-175,o),
(381,25,o),
(381,444,cs),
(381,858,o),
(631,1150,o),
(1012,1150,cs),
(1364,1150,o),
(1596,941,o),
(1596,599,cs),
(1596,312,o),
(1529,220,o),
(1451,220,cs),
(1405,220,o),
(1386,250,o),
(1386,327,cs)
);
}
);
width = 1959;
}
);
unicode = 64;
},
